<?xml version="1.0" encoding="UTF-8"?>
<svg version="1.1" xmlns="http://www.w3.org/2000/svg" width="1024" height="1024">
<path d="M0 0 C6.9329537 6.2031691 11.30506194 15.58977122 12.109375 24.79296875 C12.30281824 34.54573222 9.73232669 42.62373584 3.90625 50.46875 C3.24625 51.12875 2.58625 51.78875 1.90625 52.46875 C2.38835937 52.92765625 2.87046875 53.3865625 3.3671875 53.859375 C3.99882812 54.47296875 4.63046875 55.0865625 5.28125 55.71875 C5.90773438 56.32203125 6.53421875 56.9253125 7.1796875 57.546875 C72.43782475 130.18715448 11.25499251 252.8208465 10.90625 350.46875 C203.29625 350.13875 395.68625 349.80875 593.90625 349.46875 C595.1509786 345.7345642 595.03956603 342.27449352 595.02409363 338.38595581 C595.0251505 337.13594369 595.0251505 337.13594369 595.02622873 335.86067879 C595.02754097 333.0579776 595.02185583 330.2553322 595.01635742 327.45263672 C595.01611536 325.44711812 595.01639229 323.4415994 595.01715088 321.43608093 C595.01825842 317.11121109 595.01682093 312.78635185 595.01378441 308.461483 C595.01015669 301.62014296 595.01928137 294.77885839 595.03157043 287.93753052 C595.03359236 286.78332418 595.03561429 285.62911785 595.03769749 284.43993556 C595.04186631 282.07938761 595.04606906 279.7188397 595.05030501 277.35829186 C595.07845857 261.42828187 595.09858648 245.49839157 595.08129883 229.56835938 C595.06973753 218.82723899 595.07934241 208.0863671 595.11335641 197.34529126 C595.13050776 191.66130833 595.13680582 185.97777377 595.117239 180.29378891 C595.09898904 174.94362546 595.10865776 169.59423365 595.13949585 164.2441349 C595.14585348 162.28382388 595.14202829 160.32344846 595.12709999 158.36318398 C595.00113335 140.49113477 595.00113335 140.49113477 600.2297411 134.03463936 C602.02697848 132.35598743 603.90535933 130.8965692 605.90625 129.46875 C605.50792969 128.96085938 605.10960937 128.45296875 604.69921875 127.9296875 C596.78185041 117.64288775 594.95153052 109.32476707 595.90625 96.46875 C598.5294551 86.04388828 604.8839109 77.76233486 614.02734375 72.171875 C623.19673711 67.38784368 633.85012423 66.98848125 643.71875 69.96875 C645.12105388 70.45030427 646.51990871 70.94300432 647.90625 71.46875 C647.90625 72.12875 647.90625 72.78875 647.90625 73.46875 C648.48503906 73.736875 649.06382812 74.005 649.66015625 74.28125 C658.4620054 78.93474938 662.83440803 86.2532241 665.90625 95.46875 C666.78474631 108.96302934 665.42828762 118.57947971 656.90625 129.46875 C657.38835938 129.97664062 657.87046875 130.48453125 658.3671875 131.0078125 C658.99882813 131.69617188 659.63046875 132.38453125 660.28125 133.09375 C661.22097656 134.10308594 661.22097656 134.10308594 662.1796875 135.1328125 C665.74600284 139.95782737 666.1566762 144.80800242 666.16072559 150.67427921 C666.16553531 151.73342946 666.16553531 151.73342946 666.17044219 152.81397668 C666.17874337 155.17994621 666.17281757 157.54566268 666.16694641 159.91163635 C666.16996703 161.62504507 666.17385606 163.33845243 666.17853898 165.05185741 C666.18883901 169.76032458 666.18663207 174.46871577 666.18235838 179.17718923 C666.17989485 184.25494486 666.18890059 189.33268201 666.19639587 194.41043091 C666.2091545 204.35752649 666.21093518 214.3045951 666.20859561 224.25169749 C666.20681388 232.33408595 666.20855897 240.41646621 666.21282005 248.49885368 C666.21341524 249.64837204 666.21401043 250.7978904 666.21462366 251.98224266 C666.21583538 254.3173198 666.21704951 256.65239694 666.21826603 258.98747408 C666.22914569 280.8918295 666.22697684 302.79616952 666.22088119 324.70052581 C666.21570953 344.75271772 666.2269733 364.80486109 666.24597941 384.85704339 C666.2653356 405.43591792 666.27361785 426.01476945 666.26985615 446.59365314 C666.26794101 458.15151278 666.27046229 469.70933108 666.28457069 481.2671833 C666.29645709 491.10440606 666.29792015 500.94156202 666.28578053 510.77878565 C666.27987302 515.80012594 666.27884396 520.82134387 666.29078293 525.84267616 C666.30157797 530.4361436 666.29861498 535.02938558 666.28452124 539.62284219 C666.28185667 541.2876128 666.28429559 542.95240072 666.29225711 544.61715443 C666.30230732 546.87473178 666.29398985 549.13151693 666.28098011 551.38906193 C666.28103513 552.64458239 666.28109014 553.90010285 666.28114682 555.19366938 C665.73924429 559.92770382 663.94594844 562.44525723 660.60375977 565.73535156 C657.42113811 567.78047906 655.50683651 568.04867045 651.74609375 568.203125 C649.89346924 568.28530273 649.89346924 568.28530273 648.00341797 568.36914062 C646.63776717 568.40517823 645.27203616 568.43827065 643.90625 568.46875 C643.19092102 568.48800537 642.47559204 568.50726074 641.73858643 568.52709961 C637.11002977 568.64515371 632.48374786 568.69752283 627.85375977 568.70898438 C625.44709551 568.71883867 623.04123644 568.75006358 620.63476562 568.78125 C619.08073412 568.78776975 617.52669667 568.79302424 615.97265625 568.796875 C615.26524796 568.8092218 614.55783966 568.8215686 613.82899475 568.83428955 C608.72407176 568.81159373 605.35677217 567.7895596 600.90625 565.46875 C597.19720666 561.46688745 595.78041927 559.02123687 595.78599548 553.63461304 C595.78462082 552.61375107 595.78324615 551.5928891 595.78182983 550.54109192 C595.78542511 549.41684311 595.78902039 548.2925943 595.79272461 547.13427734 C595.79257858 545.95380325 595.79243256 544.77332916 595.7922821 543.55708313 C595.79286041 540.31555225 595.79788417 537.07406425 595.80485606 533.83254194 C595.81109694 530.44660089 595.81169398 527.06065905 595.81288147 523.67471313 C595.81599261 517.2609399 595.82420309 510.84718366 595.83423096 504.43341792 C595.84649384 496.4165527 595.85197628 488.39968475 595.85742188 480.3828125 C595.86716862 466.07811561 595.88632547 451.77343585 595.90625 437.46875 C594.7059694 437.48154698 593.5056888 437.49434396 592.26903605 437.50752872 C520.54974515 438.26704968 448.84761368 438.58525102 377.12403978 438.37874443 C364.37709576 438.34231349 351.63013683 438.31356862 338.8831732 438.28498887 C316.18105336 438.23390344 293.47895211 438.1773502 270.77685547 438.11694336 C248.82210969 438.05853913 226.8673595 438.00296012 204.91259766 437.95092773 C204.22714247 437.94930215 203.54168728 437.94767657 202.83546073 437.94600173 C195.94730217 437.92966916 189.05914349 437.91339104 182.17098471 437.89715267 C125.08271832 437.76256586 67.99447726 437.61898534 10.90625 437.46875 C10.92099869 438.67270416 10.93574738 439.87665833 10.95094299 441.11709595 C11.09028288 452.55933464 11.22289676 464.00163497 11.3492136 475.44402504 C11.41433567 481.32421878 11.48168662 487.20436803 11.55444336 493.08447266 C11.62479619 498.7773454 11.68888707 504.47025965 11.74894524 510.16324997 C11.77270269 512.3165574 11.79857725 514.46984273 11.82678413 516.62309647 C11.9693823 527.61629683 11.99444764 538.60500098 11.66381836 549.59521484 C11.64200548 550.95504203 11.64200548 550.95504203 11.61975193 552.34234047 C11.40698637 557.82297211 10.59328077 561.14815992 6.90625 565.46875 C-1.16890846 570.85218897 -15.46771839 568.65503807 -25.07080078 568.65405273 C-27.48617517 568.65626597 -29.9011105 568.67457754 -32.31640625 568.69335938 C-33.87499847 568.69628985 -35.43359281 568.69827696 -36.9921875 568.69921875 C-37.70273285 568.70640427 -38.4132782 568.71358978 -39.14535522 568.72099304 C-45.26643268 568.69322739 -50.27384598 568.05127524 -54.96875 563.96875 C-58.30500746 560.04374123 -58.24041648 557.30120265 -58.23520851 552.34174061 C-58.23835033 551.59543417 -58.24149214 550.84912773 -58.24472916 550.08020595 C-58.25413134 547.55303945 -58.25637017 545.02591575 -58.25869751 542.49873352 C-58.26397562 540.67846733 -58.26968782 538.85820236 -58.27579916 537.03793877 C-58.29137903 532.01389373 -58.30069308 526.98985318 -58.30901766 521.96579158 C-58.31905295 516.55314324 -58.3347933 511.14051115 -58.34980774 505.72787476 C-58.37833456 495.10306879 -58.40142416 484.47825753 -58.4225855 473.8534346 C-58.43991881 465.19541362 -58.45915391 456.53739882 -58.47974777 447.87938499 C-58.48267637 446.64708876 -58.48560496 445.41479252 -58.4886223 444.14515397 C-58.49457979 441.64121339 -58.500541 439.13727283 -58.50650589 436.63333227 C-58.56073233 413.7730998 -58.6092418 390.91285767 -58.65543602 368.0526078 C-58.69744777 347.28107013 -58.74487361 326.50955222 -58.796875 305.73803711 C-58.85539931 282.36048846 -58.91021312 258.98293558 -58.95947587 235.60536546 C-58.96477314 233.09685177 -58.97007575 230.58833811 -58.97538376 228.07982445 C-58.97799359 226.84594238 -58.98060343 225.61206032 -58.98329235 224.34078789 C-59.00174188 215.73715335 -59.02276103 207.1335274 -59.0448494 198.5299015 C-59.07187652 187.97795817 -59.09481728 177.4260146 -59.11293437 166.87405208 C-59.12223903 161.51137374 -59.1331219 156.14871395 -59.14903831 150.7860508 C-59.18790537 137.34647558 -59.1758881 123.90814478 -59.09375 110.46875 C-59.08808657 109.41712267 -59.08242314 108.36549534 -59.07658809 107.28200051 C-59.03892584 100.71828965 -58.97639848 94.15551152 -58.88256554 87.59235712 C-58.85539115 85.50889454 -58.83470813 83.42533591 -58.82091458 81.34174178 C-58.800032 78.46068903 -58.75415126 75.58107221 -58.70180321 72.70044231 C-58.70068837 71.85120095 -58.69957354 71.00195959 -58.69842492 70.12698364 C-58.52724938 63.20515433 -56.14296695 59.61111318 -51.34375 54.59375 C-50.60125 53.8925 -49.85875 53.19125 -49.09375 52.46875 C-49.57585937 51.80488281 -50.05796875 51.14101563 -50.5546875 50.45703125 C-51.18632812 49.57402344 -51.81796875 48.69101562 -52.46875 47.78125 C-53.09523437 46.91113281 -53.72171875 46.04101562 -54.3671875 45.14453125 C-59.33273466 37.44905658 -60.29033665 28.22101596 -58.4453125 19.3515625 C-56.41393243 11.83372003 -53.81949367 6.74246127 -48.09375 1.46875 C-47.145 0.56125 -46.19625 -0.34625 -45.21875 -1.28125 C-30.85185216 -11.62541644 -14.06660713 -10.28751865 0 0 Z " fill="#527457" transform="translate(208.09375,232.53125)"/>
<path d="M0 0 C3.19438475 0.00533529 6.38862747 0.00004307 9.58300781 -0.00634766 C42.46050524 -0.02359579 42.46050524 -0.02359579 51.46582031 4.13037109 C52.73561218 4.58581493 54.01058853 5.02703071 55.29003906 5.45458984 C74.93946824 12.30950972 94.0102907 24.42950361 103.46582031 43.56787109 C107.63560574 52.36109915 109.59133009 61.67998234 106.45410156 71.20068359 C104.48647957 75.15956268 102.15957731 78.63085686 99.46582031 82.13037109 C106.46604531 83.44519811 113.47340027 83.27136001 120.57235718 83.26167297 C122.01978983 83.26337653 123.46722202 83.26552686 124.91465342 83.26808423 C128.05574245 83.2726704 131.1968118 83.27410421 134.33790398 83.27311897 C139.44925075 83.27152269 144.56057808 83.2767358 149.67192078 83.28274536 C157.09281788 83.29085044 164.51371156 83.29579942 171.93461227 83.29903603 C183.66578362 83.30453834 195.39692599 83.32144112 207.12808228 83.34037781 C211.14321704 83.34673417 215.15835188 83.35304264 219.17348671 83.35935497 C220.17685168 83.36093874 221.18021666 83.3625225 222.21398663 83.36415425 C233.63028588 83.38208365 245.04658718 83.39831414 256.46289062 83.41333008 C257.50627711 83.41470595 258.54966359 83.41608182 259.62466784 83.41749939 C276.53780779 83.43943568 293.45094025 83.45018765 310.36409192 83.45770083 C327.73381119 83.46577243 345.1034663 83.48906267 362.47314894 83.52565449 C373.1843182 83.54767368 383.89535555 83.55734593 394.6065463 83.55115416 C401.94657905 83.54797905 409.28649913 83.55931313 416.62649702 83.58204857 C420.8605482 83.59471205 425.09434834 83.60089135 429.32840919 83.58963203 C433.20726873 83.57944983 437.0856413 83.58774074 440.9644434 83.61049499 C442.36478131 83.61548136 443.76516311 83.61377646 445.16547959 83.60456232 C456.11124685 83.53822254 464.53537549 85.19681054 472.53564453 93.03930664 C481.00359167 102.21309456 480.27209135 113.08562216 480.34082031 124.81787109 C480.37261881 126.57246684 480.40645973 128.32702682 480.44238281 130.08154297 C480.53041633 135.09939449 480.52358492 140.11223261 480.46582031 145.13037109 C480.45814636 146.25261078 480.45814636 146.25261078 480.45031738 147.39752197 C480.42509188 149.46293277 480.3633842 151.52335699 480.28613281 153.58740234 C480.2502002 154.73829346 480.21426758 155.88918457 480.17724609 157.07495117 C479.00195107 162.12258919 475.63100967 164.35357819 471.46582031 167.13037109 C468.98742997 167.37258492 466.61352581 167.50063598 464.13077068 167.53988457 C463.38092471 167.55894209 462.63107873 167.57799961 461.85851014 167.59763463 C459.34399437 167.65796534 456.82947004 167.70315238 454.31462097 167.74728394 C452.51284476 167.78505192 450.71107343 167.82305286 448.9093067 167.86127079 C428.02958124 168.27681805 407.14701593 168.27331622 386.26404202 168.26109576 C380.40418142 168.25878906 374.54432352 168.26234662 368.6844635 168.26507568 C357.27281368 168.26947489 345.86117051 168.26858398 334.44952045 168.26566304 C325.17474784 168.2633887 315.89997687 168.2630791 306.62520409 168.26418686 C305.96162115 168.26426324 305.2980382 168.26433963 304.61434669 168.26441833 C301.91963686 168.26472975 299.22492704 168.26504816 296.53021722 168.26537809 C271.38207689 168.26842042 246.23394016 168.26568858 221.08580039 168.2602812 C198.78449327 168.25552248 176.48319185 168.25597461 154.18188477 168.26074219 C129.03326953 168.26610071 103.88465745 168.26821929 78.73604172 168.26512992 C76.05516477 168.26480926 73.37428782 168.26449642 70.69341087 168.26418686 C69.37473849 168.26403258 68.05606611 168.26387831 66.69743395 168.26371936 C57.42566698 168.26285757 48.15390205 168.26430949 38.88213539 168.26666641 C27.597078 168.26947257 16.31202756 168.26870829 5.02697096 168.26338567 C-0.72465326 168.26076188 -6.47626589 168.25972139 -12.22789001 168.26303482 C-17.49636999 168.26602412 -22.76482766 168.26436128 -28.03330562 168.25905727 C-29.93407817 168.25794449 -31.83485261 168.25849886 -33.73562392 168.26093306 C-64.08072545 168.29680143 -64.08072545 168.29680143 -69.53417969 163.13037109 C-72.02804011 159.58129054 -72.91236256 157.16534887 -72.93823242 152.84033203 C-72.9509166 151.80865906 -72.96360077 150.77698608 -72.97666931 149.71405029 C-72.97373367 148.60877991 -72.97079803 147.50350952 -72.96777344 146.36474609 C-72.97301529 145.21677551 -72.97825714 144.06880493 -72.98365784 142.88604736 C-72.99007593 140.458545 -72.98874383 138.03101153 -72.98022461 135.60351562 C-72.97174188 131.9074692 -73.00043765 128.2129826 -73.03222656 124.51708984 C-73.03383948 122.15380905 -73.03325931 119.79052555 -73.03027344 117.42724609 C-73.04150742 116.33007263 -73.05274139 115.23289917 -73.0643158 114.10247803 C-72.97689508 104.37085868 -70.35811443 97.11678047 -63.53417969 90.13037109 C-59.13479794 86.70862973 -54.74778008 84.92816433 -49.53417969 83.13037109 C-50.35917969 82.63537109 -51.18417969 82.14037109 -52.03417969 81.63037109 C-61.68591522 75.07447526 -67.64358526 66.20817419 -70.90917969 55.00537109 C-73.14414497 41.14858637 -69.21123817 29.64595882 -61.53417969 18.13037109 C-60.87417969 18.13037109 -60.21417969 18.13037109 -59.53417969 18.13037109 C-59.53417969 17.47037109 -59.53417969 16.81037109 -59.53417969 16.13037109 C-41.57976233 0.15489753 -22.55426103 -0.04476418 0 0 Z " fill="#527357" transform="translate(308.5341796875,398.86962890625)"/>
<path d="M0 0 C42.33648282 84.67296564 1.33809518 189.33335022 1 284 C193.39 283.67 385.78 283.34 584 283 C585.24548561 279.26354316 585.13998857 275.79520997 585.13130188 271.90374756 C585.13341759 271.06899501 585.13553331 270.23424246 585.13771313 269.37419438 C585.14372206 266.56683268 585.14271234 263.75951581 585.1418457 260.95214844 C585.14487662 258.94338403 585.14839789 256.93462031 585.15237427 254.92585754 C585.16026907 250.59443841 585.16541038 246.26302753 585.16866493 241.93160248 C585.17456976 235.08240736 585.19110527 228.23326435 585.21000671 221.38409424 C585.21634428 219.04018787 585.2226699 216.69628146 585.22898388 214.35237503 C585.23214969 213.17844775 585.2353155 212.00452046 585.23857725 210.79501963 C585.28067013 194.84626583 585.31363012 178.89753611 585.32592773 162.94873047 C585.3343047 152.19521068 585.35678251 141.44181965 585.3952834 130.68836427 C585.41505723 124.99671712 585.42744421 119.3052625 585.42244911 113.6135788 C585.41780687 108.25862954 585.43158521 102.90404522 585.45946121 97.54916954 C585.46638022 95.58479955 585.46649194 93.62039189 585.45926094 91.65602303 C585.45037827 88.97164346 585.46605671 86.28846881 585.48774719 83.60418701 C585.47930466 82.82897886 585.47086212 82.05377071 585.46216375 81.2550714 C585.54397054 75.77013648 586.96377168 72.57017483 590 68 C590.66 68 591.32 68 592 68 C591.690625 68.598125 591.38125 69.19625 591.0625 69.8125 C588.85941655 74.34826005 588.84775345 78.39772646 588.84178162 83.33317566 C588.83437465 84.62333956 588.83437465 84.62333956 588.82681805 85.93956739 C588.81141451 88.83234958 588.80307469 91.72510952 588.79467773 94.61791992 C588.78510146 96.68730364 588.77509153 98.75668539 588.76467896 100.82606506 C588.73759671 106.45379455 588.71660512 112.08153246 588.69667697 117.70929122 C588.67483788 123.58699697 588.64743904 129.46467669 588.62062073 135.34236145 C588.57066572 146.47702743 588.52573731 157.61170784 588.48259836 168.74640208 C588.43324997 181.42097564 588.37832296 194.09552308 588.32291877 206.77007139 C588.20905562 232.8466899 588.10222602 258.92333346 588 285 C585.73378464 286.13310768 584.51665761 286.12511555 582.00171655 286.12534916 C581.15892913 286.12785268 580.31614171 286.1303562 579.44781527 286.13293558 C578.51481306 286.13059442 577.58181085 286.12825325 576.62053585 286.12584114 C575.63082915 286.12729458 574.64112246 286.12874802 573.62142465 286.13024551 C570.26672068 286.1339284 566.91206151 286.13040854 563.55735779 286.12698364 C561.14333592 286.12813456 558.72931422 286.12972188 556.31529289 286.13171089 C551.047001 286.13502943 545.77872263 286.13520667 540.51043129 286.13266373 C532.67655497 286.12889261 524.84268734 286.13080904 517.00881109 286.13387203 C503.02055888 286.13914744 489.03231122 286.13867756 475.04405858 286.13579312 C462.80360857 286.13328135 450.56316024 286.13261909 438.32271004 286.13381577 C437.10661464 286.13393034 437.10661464 286.13393034 435.86595167 286.13404724 C432.57526136 286.13435855 429.28457106 286.13467695 425.99388076 286.135007 C395.10166945 286.13806853 364.20946104 286.13528847 333.31725018 286.1299101 C305.84634557 286.12516377 278.37544559 286.12558921 250.90454102 286.13037109 C220.06870215 286.13572072 189.23286586 286.13785189 158.3970266 286.13475883 C155.11250913 286.13443809 151.82799166 286.13412525 148.5434742 286.13381577 C147.73469159 286.13373669 146.92590898 286.13365761 146.09261781 286.13357614 C133.85648264 286.13243664 121.62034932 286.13377269 109.3842144 286.13629532 C95.47785666 286.13914792 81.5715042 286.138454 67.66514712 286.13301457 C59.87354336 286.13006781 52.08195103 286.12990165 44.29034755 286.13366075 C38.48855703 286.13615217 32.68677672 286.13347044 26.88498736 286.12868617 C24.52569116 286.12756082 22.16639344 286.12815576 19.8070982 286.13056196 C16.62258392 286.13356289 13.43813382 286.13052465 10.25362301 286.12584114 C9.31827963 286.12818231 8.38293626 286.13052347 7.41924915 286.13293558 C1.11415035 286.11415035 1.11415035 286.11415035 0 285 C-0.09686654 283.47786136 -0.12371708 281.95121915 -0.12304783 280.42600155 C-0.12503888 279.43124276 -0.12702993 278.43648397 -0.12908131 277.41158098 C-0.12616847 276.30557356 -0.12325563 275.19956613 -0.12025452 274.06004333 C-0.12110894 272.89537649 -0.12196337 271.73070964 -0.12284368 270.53074986 C-0.12421184 267.28354599 -0.12106446 264.03638151 -0.11606562 260.78918231 C-0.11176436 257.29291635 -0.11320731 253.79665238 -0.1139679 250.30038452 C-0.11449334 244.23806252 -0.11134443 238.17575124 -0.10573006 232.11343193 C-0.09761778 223.3482367 -0.09500012 214.58304667 -0.09374207 205.81784809 C-0.09155112 191.59837039 -0.08488987 177.37889842 -0.07543945 163.15942383 C-0.06626645 149.34301787 -0.05918507 135.52661346 -0.05493164 121.71020508 C-0.05466892 120.85917406 -0.05440619 120.00814305 -0.05413551 119.13132321 C-0.05283051 114.86213355 -0.05156679 110.59294387 -0.05032361 106.32375419 C-0.03994965 70.88249871 -0.02233018 35.44124988 0 0 Z " fill="#445F47" transform="translate(218,299)"/>
<path d="M0 0 C4.89326308 1.39807517 7.0857479 3.90429435 10 8 C11.85260939 12.51861168 12.25111773 16.34106567 12.25447559 21.20552921 C12.25768207 21.91162938 12.26088855 22.61772954 12.26419219 23.34522668 C12.27249337 25.71119621 12.26656757 28.07691268 12.26069641 30.44288635 C12.26371703 32.15629507 12.26760606 33.86970243 12.27228898 35.58310741 C12.28258901 40.29157458 12.28038207 44.99996577 12.27610838 49.70843923 C12.27364485 54.78619486 12.28265059 59.86393201 12.29014587 64.94168091 C12.3029045 74.88877649 12.30468518 84.8358451 12.30234561 94.78294749 C12.30056388 102.86533595 12.30230897 110.94771621 12.30657005 119.03010368 C12.30716524 120.17962204 12.30776043 121.3291404 12.30837366 122.51349266 C12.30958538 124.8485698 12.31079951 127.18364694 12.31201603 129.51872408 C12.32289569 151.4230795 12.32072684 173.32741952 12.31463119 195.23177581 C12.30945953 215.28396772 12.3207233 235.33611109 12.33972941 255.38829339 C12.3590856 275.96716792 12.36736785 296.54601945 12.36360615 317.12490314 C12.36169101 328.68276278 12.36421229 340.24058108 12.37832069 351.7984333 C12.39020709 361.63565606 12.39167015 371.47281202 12.37953053 381.31003565 C12.37362302 386.33137594 12.37259396 391.35259387 12.38453293 396.37392616 C12.39532797 400.9673936 12.39236498 405.56063558 12.37827124 410.15409219 C12.37560667 411.8188628 12.37804559 413.48365072 12.38600711 415.14840443 C12.39605732 417.40598178 12.38773985 419.66276693 12.37473011 421.92031193 C12.37481263 423.80359262 12.37481263 423.80359262 12.37489682 425.72491938 C11.83299429 430.45895382 10.03969844 432.97650723 6.69750977 436.26660156 C3.51488811 438.31172906 1.60058651 438.57992045 -2.16015625 438.734375 C-3.39523926 438.78916016 -4.63032227 438.84394531 -5.90283203 438.90039062 C-7.26848283 438.93642823 -8.63421384 438.96952065 -10 439 C-10.71532898 439.01925537 -11.43065796 439.03851074 -12.16766357 439.05834961 C-16.79622023 439.17640371 -21.42250214 439.22877283 -26.05249023 439.24023438 C-28.45915449 439.25008867 -30.86501356 439.28131358 -33.27148438 439.3125 C-34.82551588 439.31901975 -36.37955333 439.32427424 -37.93359375 439.328125 C-38.64100204 439.3404718 -39.34841034 439.3528186 -40.07725525 439.36553955 C-45.18217824 439.34284373 -48.54947783 438.3208096 -53 436 C-56.67864627 432.03093428 -58.12588048 429.58645208 -58.12025452 424.24179077 C-58.12162918 423.23775711 -58.12300385 422.23372345 -58.12442017 421.19926453 C-58.12082489 420.09371719 -58.11722961 418.98816986 -58.11352539 417.84912109 C-58.11367142 416.68815414 -58.11381744 415.52718719 -58.1139679 414.33103943 C-58.11326903 410.4784867 -58.10547781 406.62598182 -58.09765625 402.7734375 C-58.09579198 400.10828571 -58.09431895 397.44313659 -58.09336853 394.77798462 C-58.09025745 388.47045915 -58.08204706 382.16295096 -58.07201904 375.85543311 C-58.06085098 368.67535645 -58.0553457 361.49527898 -58.05032361 354.3151958 C-58.03986427 339.54345502 -58.02226914 324.77172781 -58 310 C-57.34 309.67 -56.68 309.34 -56 309 C-55.99945523 309.61899264 -55.99891047 310.23798529 -55.99834919 310.87573528 C-55.98337857 325.94075531 -55.9409208 341.00542594 -55.86790943 356.07026196 C-55.83326357 363.35555046 -55.80790447 370.64064983 -55.80444336 377.92602539 C-55.80140286 384.27636257 -55.78090144 390.62636288 -55.73947543 396.97656995 C-55.71815078 400.33873118 -55.70554161 403.7004136 -55.71384621 407.06264305 C-55.71872999 410.81727049 -55.6927545 414.57049587 -55.65942383 418.32495117 C-55.66804947 419.43841415 -55.67667511 420.55187714 -55.68556213 421.69908142 C-55.63106273 427.89594767 -55.63106273 427.89594767 -52.58378601 433.16719055 C-49.12833664 435.61831469 -47.45277468 436.12953297 -43.27832031 436.17700195 C-42.29679993 436.18983719 -41.31527954 436.20267242 -40.30401611 436.21589661 C-38.70720001 436.22697701 -38.70720001 436.22697701 -37.078125 436.23828125 C-35.98538269 436.246353 -34.89264038 436.25442474 -33.76678467 436.26274109 C-31.45000804 436.27659019 -29.13321094 436.28730864 -26.81640625 436.29516602 C-23.2782504 436.31236269 -19.74103264 436.35624077 -16.203125 436.40039062 C-13.95313188 436.41051878 -11.7031308 436.4190345 -9.453125 436.42578125 C-7.86845428 436.45204338 -7.86845428 436.45204338 -6.25177002 436.47883606 C-5.25764099 436.47591049 -4.26351196 436.47298492 -3.23925781 436.4699707 C-2.37036926 436.47583694 -1.50148071 436.48170319 -0.60626221 436.48774719 C3.08373549 435.79718505 5.1249649 434.40483229 8 432 C8.89726028 428.71517168 8.89726028 428.71517168 8.74946022 424.91562748 C8.75758167 424.19832802 8.76570312 423.48102855 8.77407068 422.74199274 C8.79405036 420.32518244 8.771066 417.91067185 8.7484436 415.49391174 C8.75392195 413.74922256 8.76202368 412.00453995 8.77253091 410.25987381 C8.7937654 405.45544095 8.77740863 400.65174897 8.75502992 395.84734809 C8.73738694 390.67000854 8.754221 385.49276811 8.76675415 380.31542969 C8.78575881 370.16877301 8.7725054 360.02240021 8.74822827 349.87576456 C8.72102342 338.06673964 8.7242609 326.2577828 8.72849493 314.44873451 C8.73487896 293.38169886 8.71151557 272.31479832 8.67236328 251.24780273 C8.63435797 230.79268274 8.62018638 210.33772114 8.63134766 189.88256836 C8.64345667 167.62458746 8.64312081 145.36667627 8.62037599 123.10870117 C8.61796134 120.73634112 8.61554937 118.36398107 8.61314011 115.99162102 C8.61193303 114.82428589 8.61072595 113.65695075 8.6094823 112.45424183 C8.60171531 104.21757475 8.6025146 95.98093358 8.6063118 87.7442646 C8.6105512 77.70932784 8.600142 67.67453 8.57108469 57.63963241 C8.55657299 52.51702436 8.5484627 47.39461888 8.55757141 42.27199364 C8.56570146 37.58584315 8.55545929 32.90011158 8.53031926 28.21402477 C8.52444497 26.5155569 8.52535616 24.81704973 8.53360541 23.11859173 C8.54377963 20.81529515 8.52950109 18.51341103 8.50895119 16.21021366 C8.50721763 14.92930696 8.50548408 13.64840025 8.50369799 12.32867819 C7.91180351 8.41715522 6.7547103 6.78420271 4 4 C1.88339573 2.68834743 1.88339573 2.68834743 0 2 C0 1.34 0 0.68 0 0 Z " fill="#48644B" transform="translate(862,362)"/>
<path d="M0 0 C0.66 0.33 1.32 0.66 2 1 C1.0409375 2.3921875 1.0409375 2.3921875 0.0625 3.8125 C-2.57119764 7.88275999 -3.1290456 10.56882878 -3.19287109 15.31005859 C-3.20893402 16.3948349 -3.22499695 17.47961121 -3.24154663 18.59725952 C-3.28600816 23.5482315 -3.32704309 28.49907052 -3.35009766 33.45019531 C-3.36667707 36.06324151 -3.39399268 38.676242 -3.43212891 41.2890625 C-3.48681002 45.05492701 -3.50875755 48.81972983 -3.5234375 52.5859375 C-3.54610687 53.75377777 -3.56877625 54.92161804 -3.59213257 56.12484741 C-3.58928253 57.21592804 -3.5864325 58.30700867 -3.58349609 59.43115234 C-3.59562637 60.86652847 -3.59562637 60.86652847 -3.60800171 62.3309021 C-2.72327237 66.21482084 -1.1208947 67.55097224 2 70 C4.99380039 70.72263454 7.90683459 70.6681637 10.97497654 70.62361908 C11.88451567 70.63028709 12.7940548 70.6369551 13.73115572 70.64382517 C16.79553171 70.66013802 19.85864425 70.64064369 22.92298889 70.62145996 C25.13535157 70.62578658 27.34771089 70.6323004 29.5600614 70.64082003 C35.65242914 70.65786712 41.74438801 70.64359136 47.83673441 70.62430525 C53.72807142 70.6104985 59.61933845 70.62012088 65.51067792 70.62911103 C78.30633388 70.64771127 91.10185077 70.63797398 103.89749539 70.61663339 C115.09440331 70.59809065 126.29126449 70.58965351 137.48818779 70.59120178 C138.23034547 70.59129346 138.97250314 70.59138513 139.73715045 70.59147959 C142.74965268 70.59187273 145.76215489 70.59232235 148.7746571 70.59285098 C177.04430524 70.59772405 205.31387041 70.57504636 233.58349276 70.53889475 C258.71201039 70.50689724 283.84045715 70.49485156 308.96899414 70.50097656 C310.58258444 70.50136341 312.19617475 70.50174986 313.80976505 70.50213593 C315.0063449 70.50242295 315.0063449 70.50242295 316.22709808 70.50271577 C320.24252197 70.50367007 324.25794587 70.50458444 328.27336979 70.50545502 C329.06551224 70.50562881 329.85765468 70.5058026 330.67380145 70.50598167 C351.65764991 70.51033443 372.6414907 70.50032777 393.62533373 70.48561716 C394.74465962 70.48483695 394.74465962 70.48483695 395.88659815 70.48404097 C396.63146994 70.48352163 397.37634173 70.48300229 398.1437854 70.4824672 C398.88731216 70.48194946 399.63083892 70.48143172 400.39689679 70.48089829 C401.89431877 70.4798502 403.39174075 70.47878999 404.88916271 70.47771757 C415.33887724 70.47032986 425.78858092 70.46825006 436.23829773 70.46971158 C449.70241758 70.4715553 463.16647061 70.46352522 476.63056857 70.43807012 C483.12615479 70.42618038 489.62165192 70.41910471 496.11724854 70.42490768 C502.05657269 70.43005707 507.99570819 70.42147102 513.93499999 70.40163308 C516.09035312 70.39687013 518.24572448 70.39722255 520.40107501 70.40304345 C523.31789965 70.41016314 526.23408845 70.39904004 529.1508646 70.38311005 C530.4228524 70.39278775 530.4228524 70.39278775 531.72053692 70.40266097 C536.14499778 70.35691796 538.73337522 70.06739029 542 67 C542.66 67 543.32 67 544 67 C543 70 543 70 540.90814763 71.65580189 C537.37540675 73.28869823 534.28808767 73.47427872 530.46963787 73.50716972 C529.72262179 73.5248123 528.9756057 73.54245487 528.20595277 73.56063206 C525.71194967 73.61503365 523.218188 73.64766429 520.72380066 73.67941284 C518.93112988 73.71209502 517.13847307 73.74555193 515.34583014 73.77972782 C494.49905077 74.14787525 473.64752945 74.14292542 452.79822171 74.13072467 C446.93836111 74.12841797 441.07850321 74.13197553 435.21864319 74.13470459 C423.80699337 74.1391038 412.39535019 74.13821289 400.98370013 74.13529195 C391.70892753 74.13301761 382.43415656 74.132708 373.15938377 74.13381577 C372.49580083 74.13389215 371.83221789 74.13396854 371.14852638 74.13404724 C368.45381655 74.13435865 365.75910673 74.13467706 363.0643969 74.135007 C337.91625658 74.13804932 312.76811985 74.13531748 287.61998008 74.1299101 C265.31867295 74.12515138 243.01737153 74.12560352 220.71606445 74.13037109 C195.56744922 74.13572962 170.41883714 74.13784819 145.27022141 74.13475883 C142.58934446 74.13443817 139.90846751 74.13412532 137.22759056 74.13381577 C135.90891818 74.13366149 134.59024579 74.13350721 133.23161364 74.13334826 C123.95984667 74.13248648 114.68808173 74.1339384 105.41631508 74.13629532 C94.13125769 74.13910148 82.84620725 74.13833719 71.56115065 74.13301457 C65.80952643 74.13039079 60.0579138 74.1293503 54.30628967 74.13266373 C49.0378097 74.13565302 43.76935203 74.13399018 38.50087406 74.12868617 C36.60010152 74.1275734 34.69932708 74.12812776 32.79855577 74.13056196 C2.45345424 74.16643033 2.45345424 74.16643033 -3 69 C-5.49386042 65.45091945 -6.37818287 63.03497777 -6.40405273 58.70996094 C-6.41673691 57.67828796 -6.42942108 56.64661499 -6.44248962 55.5836792 C-6.43955399 54.47840881 -6.43661835 53.37313843 -6.43359375 52.234375 C-6.4388356 51.08640442 -6.44407745 49.93843384 -6.44947815 48.75567627 C-6.45589624 46.3281739 -6.45456414 43.90064043 -6.44604492 41.47314453 C-6.43756219 37.77709811 -6.46625796 34.0826115 -6.49804688 30.38671875 C-6.4996598 28.02343796 -6.49907962 25.66015445 -6.49609375 23.296875 C-6.50732773 22.19970154 -6.51856171 21.10252808 -6.53013611 19.97210693 C-6.46279882 12.47616159 -5.50919425 5.50919425 0 0 Z " fill="#466147" transform="translate(242,493)"/>
<path d="M0 0 C0.33 0 0.66 0 1 0 C1.00146521 1.4127358 1.00146521 1.4127358 1.00296003 2.85401171 C1.06107735 58.63535893 1.13495907 114.41666709 1.22898628 170.1979659 C1.24025487 176.89101028 1.25139672 183.58405487 1.26245117 190.27709961 C1.26355374 190.94314566 1.2646563 191.6091917 1.26579228 192.29542096 C1.30147455 213.89227329 1.32744461 235.48912406 1.34838969 257.08599529 C1.370572 279.90430588 1.40379644 302.72258147 1.44870156 325.54085952 C1.475252 339.21424197 1.49292237 352.88757733 1.49934604 366.56098429 C1.50458955 375.92875988 1.52077153 385.29647616 1.54566566 394.66422 C1.55971625 400.07435525 1.56883822 405.48438423 1.56500816 410.89453888 C1.56161069 415.8435395 1.57188886 420.7923127 1.59323552 425.74126671 C1.59852602 427.53541406 1.59871479 429.3295849 1.59339563 431.12373217 C1.5869172 433.55589992 1.59873232 435.98730919 1.61523914 438.41941357 C1.60896245 439.12181657 1.60268575 439.82421956 1.59621885 440.5479075 C1.65053972 444.87043216 2.40742311 447.53549452 5 451 C9.63776602 455.18300476 15.36112569 454.41482581 21.25 454.36328125 C22.34086914 454.36377975 23.43173828 454.36427826 24.55566406 454.36479187 C26.85874252 454.36245461 29.16182368 454.35274666 31.46484375 454.33618164 C34.98721188 454.31258567 38.50882288 454.31562418 42.03125 454.32226562 C44.27083784 454.31668868 46.5104225 454.3095787 48.75 454.30078125 C49.80219727 454.30169266 50.85439453 454.30260406 51.93847656 454.30354309 C52.92299805 454.29401108 53.90751953 454.28447906 54.921875 454.2746582 C55.78393555 454.27005081 56.64599609 454.26544342 57.53417969 454.26069641 C60.47315217 453.94997646 62.43903432 453.50690762 65 452 C67.87361399 446.65231665 67.30702915 440.40549275 67.31884766 434.48681641 C67.32889328 433.33501892 67.3389389 432.18322144 67.34928894 430.996521 C67.38012265 427.19820646 67.39715691 423.39996243 67.4140625 419.6015625 C67.43277396 416.96454258 67.45234735 414.32752864 67.4727478 411.69052124 C67.51946131 405.46462813 67.55624123 399.23871788 67.58942068 393.01273954 C67.6276947 385.9219901 67.67709095 378.83133164 67.72740483 371.740659 C67.83061411 357.16050943 67.91991016 342.58029466 68 328 C68.33 328 68.66 328 69 328 C69.15510075 340.39757528 69.30325351 352.79521338 69.4429636 365.19297218 C69.50807228 370.95209875 69.57541684 376.71117966 69.64819336 382.47021484 C69.71857128 388.04637688 69.78265559 393.6225814 69.84269524 399.19886398 C69.86644381 401.30751466 69.89231635 403.41614271 69.92053413 405.52473831 C70.06444666 416.38548526 70.08397058 427.24131301 69.75756836 438.09912109 C69.73575548 439.46141814 69.73575548 439.46141814 69.71350193 440.85123634 C69.50099078 446.34015283 68.69444849 449.67366772 65 454 C56.92484154 459.38343897 42.62603161 457.18628807 33.02294922 457.18530273 C30.60757483 457.18751597 28.1926395 457.20582754 25.77734375 457.22460938 C24.21875153 457.22753985 22.66015719 457.22952696 21.1015625 457.23046875 C20.39101715 457.23765427 19.6804718 457.24483978 18.94839478 457.25224304 C12.82731732 457.22447739 7.81990402 456.58252524 3.125 452.5 C-0.23835174 448.5431156 -0.14145446 445.75653509 -0.12304783 440.75732231 C-0.12420167 439.99862321 -0.12535552 439.23992411 -0.12654433 438.45823413 C-0.12921317 435.88936075 -0.12468663 433.32054873 -0.12025452 430.75167847 C-0.12069016 428.90204164 -0.12156495 427.05240488 -0.12284368 425.20276845 C-0.12508992 420.09937426 -0.1210656 414.99600089 -0.11606562 409.89260936 C-0.11176315 404.39702398 -0.1132074 398.90143986 -0.1139679 393.40585327 C-0.11449326 383.87748815 -0.11134516 374.34912985 -0.10573006 364.82076645 C-0.09761674 351.04420579 -0.09500001 337.26764845 -0.09374207 323.49108566 C-0.09155128 301.14167899 -0.08489904 278.79227564 -0.07543945 256.44287109 C-0.06625877 234.72737649 -0.05917332 213.01188287 -0.05493164 191.29638672 C-0.05480011 190.62731272 -0.05466859 189.95823873 -0.05453308 189.26888976 C-0.05321458 182.54992584 -0.05193877 175.83096192 -0.05069422 169.11199798 C-0.04024872 112.74132943 -0.0225984 56.37066491 0 0 Z " fill="#314732" transform="translate(150,344)"/>
<path d="M0 0 C59.07 0 118.14 0 179 0 C179 0.33 179 0.66 179 1 C120.59 1.33 62.18 1.66 2 2 C1.67 30.38 1.34 58.76 1 88 C0.67 88 0.34 88 0 88 C0 58.96 0 29.92 0 0 Z " fill="#4C6A4F" transform="translate(217,668)"/>
<path d="M0 0 C0.33 0 0.66 0 1 0 C1.15510075 12.39757528 1.30325351 24.79521338 1.4429636 37.19297218 C1.50807228 42.95209875 1.57541684 48.71117966 1.64819336 54.47021484 C1.71857128 60.04637688 1.78265559 65.6225814 1.84269524 71.19886398 C1.86644381 73.30751466 1.89231635 75.41614271 1.92053413 77.52473831 C2.06444666 88.38548526 2.08397058 99.24131301 1.75756836 110.09912109 C1.73575548 111.46141814 1.73575548 111.46141814 1.71350193 112.85123634 C1.50099078 118.34015283 0.69444849 121.67366772 -3 126 C-11.07515846 131.38343897 -25.37396839 129.18628807 -34.97705078 129.18530273 C-37.39242517 129.18751597 -39.8073605 129.20582754 -42.22265625 129.22460938 C-43.78124847 129.22753985 -45.33984281 129.22952696 -46.8984375 129.23046875 C-47.60898285 129.23765427 -48.3195282 129.24483978 -49.05160522 129.25224304 C-55.11670716 129.2247313 -60.12975255 128.54498702 -64.875 124.625 C-66.80666821 122.23882162 -67.66724545 120.99479096 -68 118 C-67.34 118 -66.68 118 -66 118 C-65.3503125 119.1446875 -65.3503125 119.1446875 -64.6875 120.3125 C-62.62525808 123.59681121 -61.56888509 124.43917534 -58 126 C-54.24903833 126.4337525 -50.52222585 126.39629906 -46.75 126.36328125 C-45.65913086 126.36377975 -44.56826172 126.36427826 -43.44433594 126.36479187 C-41.14125748 126.36245461 -38.83817632 126.35274666 -36.53515625 126.33618164 C-33.01278812 126.31258567 -29.49117712 126.31562418 -25.96875 126.32226562 C-23.72916216 126.31668868 -21.4895775 126.3095787 -19.25 126.30078125 C-18.19780273 126.30169266 -17.14560547 126.30260406 -16.06152344 126.30354309 C-15.07700195 126.29401108 -14.09248047 126.28447906 -13.078125 126.2746582 C-12.21606445 126.27005081 -11.35400391 126.26544342 -10.46582031 126.26069641 C-7.52684783 125.94997646 -5.56096568 125.50690762 -3 124 C-0.12638601 118.65231665 -0.69297085 112.40549275 -0.68115234 106.48681641 C-0.67110672 105.33501892 -0.6610611 104.18322144 -0.65071106 102.996521 C-0.61987735 99.19820646 -0.60284309 95.39996243 -0.5859375 91.6015625 C-0.56722604 88.96454258 -0.54765265 86.32752864 -0.5272522 83.69052124 C-0.48053869 77.46462813 -0.44375877 71.23871788 -0.41057932 65.01273954 C-0.3723053 57.9219901 -0.32290905 50.83133164 -0.27259517 43.740659 C-0.16938589 29.16050943 -0.08008984 14.58029466 0 0 Z " fill="#3C543D" transform="translate(218,672)"/>
<path d="M0 0 C0 0.66 0 1.32 0 2 C0.57878906 2.268125 1.15757812 2.53625 1.75390625 2.8125 C10.5557554 7.46599938 14.92815803 14.7844741 18 24 C18.73494088 35.2891739 18.58406724 44.63323994 11.75 54.125 C10.88375 55.053125 10.88375 55.053125 10 56 C9.01 55.505 9.01 55.505 8 55 C8.78375 54.01 9.5675 53.02 10.375 52 C16.16922183 43.71081579 15.77601134 33.72924222 15 24 C14.15585258 20.30205874 12.9175082 17.26461839 11 14 C10.63390625 13.36835938 10.2678125 12.73671875 9.890625 12.0859375 C5.50842187 5.94544299 -1.87618942 2.12221303 -9 0 C-18.40834406 -1.56959165 -28.12432109 -0.39741818 -36.0625 5.0625 C-41.0527916 8.68766624 -43.89286194 12.76335922 -47 18 C-47.98399942 19.34518509 -48.97965135 20.68217361 -50 22 C-49.62878694 14.57573874 -44.91156104 9.55155544 -39.625 4.75 C-28.04401996 -4.65314088 -13.68160924 -5.18851095 0 0 Z " fill="#435C44" transform="translate(856,304)"/>
<path d="M0 0 C1.06845406 -0.00021904 1.06845406 -0.00021904 2.15849304 -0.0004425 C4.51763941 0.00025528 6.87670724 0.00804142 9.23583984 0.01586914 C10.86965898 0.0177338 12.50347868 0.01915747 14.13729858 0.02015686 C18.44125914 0.0239783 22.74518605 0.03380541 27.0491333 0.04486084 C31.43948918 0.05508297 35.82985049 0.0596562 40.22021484 0.06469727 C48.8374178 0.075428 57.45459339 0.09249996 66.07177734 0.11352539 C66.07177734 0.44352539 66.07177734 0.77352539 66.07177734 1.11352539 C54.85177734 1.44352539 43.63177734 1.77352539 32.07177734 2.11352539 C32.07177734 2.44352539 32.07177734 2.77352539 32.07177734 3.11352539 C18.54177734 3.11352539 5.01177734 3.11352539 -8.92822266 3.11352539 C-8.92822266 2.45352539 -8.92822266 1.79352539 -8.92822266 1.11352539 C-5.96414707 -0.3685124 -3.307431 -0.00568287 0 0 Z " fill="#4D6B4F" transform="translate(631.92822265625,563.886474609375)"/>
<path d="M0 0 C-0.7734375 0.32871094 -1.546875 0.65742188 -2.34375 0.99609375 C-11.88287611 5.35245208 -18.37586657 10.41222337 -22.5 20.25 C-25.45024452 29.62522146 -25.15585543 40.02270291 -21 49 C-19.46905033 51.19162735 -17.82216361 53.0300934 -16 55 C-16 55.66 -16 56.32 -16 57 C-20.52252884 55.49249039 -21.76388424 52.03422946 -24 48 C-28.73709136 38.28896272 -27.57790702 28.03467018 -24.33203125 18.125 C-22.36655695 13.51391659 -19.66364315 10.360335 -16 7 C-15.48050781 6.50886719 -14.96101562 6.01773438 -14.42578125 5.51171875 C-10.05007896 1.61837735 -5.89311041 -1.84633931 0 0 Z " fill="#405940" transform="translate(176,227)"/>
<path d="M0 0 C0.66 0 1.32 0 2 0 C2.433125 0.763125 2.86625 1.52625 3.3125 2.3125 C5.29735201 5.47356061 6.64768085 6.39656695 10 8 C13.46085477 8.48573862 13.46085477 8.48573862 17.2421875 8.4765625 C18.27208298 8.49993179 18.27208298 8.49993179 19.32278442 8.52377319 C21.5068446 8.57105259 23.69059275 8.59894345 25.875 8.625 C28.05203859 8.66172696 30.22890998 8.7026078 32.40579224 8.74765015 C34.38611197 8.78695703 36.36664693 8.81494167 38.34716797 8.84228516 C41.98372686 8.99929739 45.41124935 9.42355657 49 10 C49 10.33 49 10.66 49 11 C44.0012352 11.04967812 39.00261621 11.08585063 34.00366211 11.10986328 C32.30539443 11.11988065 30.60714383 11.13349838 28.90893555 11.15087891 C26.45877858 11.17531579 24.00885095 11.1865259 21.55859375 11.1953125 C20.80726669 11.20563507 20.05593964 11.21595764 19.28184509 11.22659302 C13.18886032 11.22787099 7.97177802 10.62886011 3.125 6.625 C1.19333179 4.23882162 0.33275455 2.99479096 0 0 Z " fill="#4A624B" transform="translate(150,790)"/>
<path d="M0 0 C13.59116224 2.77499368 27.17442437 15.0077961 35 26 C35.7421875 28.796875 35.7421875 28.796875 36 31 C35.484375 30.34 34.96875 29.68 34.4375 29 C33.633125 28.01 32.82875 27.02 32 26 C31.54882812 25.41863281 31.09765625 24.83726562 30.6328125 24.23828125 C23.20446982 15.12839831 13.5088762 8.3570136 3.046875 3.15625 C1 2 1 2 0 0 Z " fill="#435E45" transform="translate(373,409)"/>
<path d="M0 0 C0.33 0 0.66 0 1 0 C1.01417969 1.25554687 1.02835938 2.51109375 1.04296875 3.8046875 C1.39514662 18.92120367 1.39514662 18.92120367 9.375 31.375 C9.91125 31.91125 10.4475 32.4475 11 33 C11 35.125 11 35.125 10 37 C7.9375 38.25 7.9375 38.25 6 39 C6 38.34 6 37.68 6 37 C6.99 36.34 7.98 35.68 9 35 C8.60167969 34.49210937 8.20335937 33.98421875 7.79296875 33.4609375 C1.66732172 25.50206764 -1.18289251 19.44829745 -1.125 9.375 C-1.12886719 8.694375 -1.13273438 8.01375 -1.13671875 7.3125 C-1.12672061 2.25344122 -1.12672061 2.25344122 0 0 Z " fill="#435D44" transform="translate(805,327)"/>
<path d="M0 0 C-1 3 -1 3 -3.22868347 4.67195129 C-6.25498172 6.12219035 -8.01375361 6.33783141 -11.34106445 6.2487793 C-12.90211662 6.21840828 -12.90211662 6.21840828 -14.4947052 6.18742371 C-16.16215034 6.13138725 -16.16215034 6.13138725 -17.86328125 6.07421875 C-19.01040085 6.04777786 -20.15752045 6.02133698 -21.33940125 5.99409485 C-24.99763623 5.9064345 -28.65486745 5.79724579 -32.3125 5.6875 C-34.79488608 5.62423079 -37.27730836 5.5623651 -39.75976562 5.50195312 C-45.84035742 5.35090973 -51.92026618 5.18219457 -58 5 C-58 4.67 -58 4.34 -58 4 C-57.35742249 3.99413376 -56.71484497 3.98826752 -56.05279541 3.98222351 C-49.36921548 3.91832604 -42.6861187 3.83391559 -36.00292969 3.73754883 C-33.50820279 3.70427931 -31.01340025 3.67625377 -28.51855469 3.65356445 C-24.93391665 3.6200565 -21.34997308 3.56774089 -17.765625 3.51171875 C-16.09043793 3.50213387 -16.09043793 3.50213387 -14.38140869 3.49235535 C-13.34063171 3.47256119 -12.29985474 3.45276703 -11.22753906 3.43237305 C-10.31264709 3.42126999 -9.39775513 3.41016693 -8.45513916 3.39872742 C-5.01887782 2.84066064 -3.33932398 0 0 0 Z " fill="#4D6C50" transform="translate(786,560)"/>
<path d="M0 0 C16.83 0 33.66 0 51 0 C51 1.32 51 2.64 51 4 C50.34 3.34 49.68 2.68 49 2 C46.81875409 1.66947545 46.81875409 1.66947545 44.27490234 1.68115234 C43.29403656 1.66128265 42.31317078 1.64141296 41.30258179 1.62094116 C40.24108917 1.60938995 39.17959656 1.59783875 38.0859375 1.5859375 C37.00116119 1.56657135 35.91638489 1.5472052 34.79873657 1.5272522 C31.32423841 1.46733574 27.84970733 1.42102261 24.375 1.375 C22.02342282 1.33683135 19.67185979 1.29778029 17.3203125 1.2578125 C11.5470003 1.16162441 5.77360334 1.07661247 0 1 C0 0.67 0 0.34 0 0 Z " fill="#4C6A4F" transform="translate(754,668)"/>
<path d="M0 0 C0 0.33 0 0.66 0 1 C-8.56276086 2.22379846 -17.01569434 1.92181823 -25.625 1.5625 C-27.02471583 1.50913888 -28.42445553 1.45640008 -29.82421875 1.40429688 C-33.21643041 1.27562678 -36.60827006 1.14071053 -40 1 C-40 0.67 -40 0.34 -40 0 C-26.55576297 -0.86952777 -13.43802009 -0.99825292 0 0 Z " fill="#435C44" transform="translate(581,565)"/>
<path d="M0 0 C12.54 0 25.08 0 38 0 C38 0.33 38 0.66 38 1 C36.06447266 1.09087891 36.06447266 1.09087891 34.08984375 1.18359375 C32.37238745 1.26805881 30.65493998 1.35270377 28.9375 1.4375 C28.08994141 1.47681641 27.24238281 1.51613281 26.36914062 1.55664062 C21.51999791 1.80003389 16.79371788 2.22598042 12 3 C12 2.67 12 2.34 12 2 C8.04 1.67 4.08 1.34 0 1 C0 0.67 0 0.34 0 0 Z " fill="#4C694F" transform="translate(568,564)"/>
<path d="M0 0 C12.21 0 24.42 0 37 0 C37 0.33 37 0.66 37 1 C28.75 1 20.5 1 12 1 C12 1.66 12 2.32 12 3 C10.68 3 9.36 3 8 3 C8 2.34 8 1.68 8 1 C5.36 1 2.72 1 0 1 C0 0.67 0 0.34 0 0 Z " fill="#4C6B4F" transform="translate(492,564)"/>
<path d="M0 0 C0.99 0.33 1.98 0.66 3 1 C2.41992188 1.42410156 1.83984375 1.84820312 1.2421875 2.28515625 C-3.87605086 6.12805799 -8.01441048 9.99246445 -12 15 C-12.33 14.34 -12.66 13.68 -13 13 C-11.6875 10.375 -11.6875 10.375 -10 8 C-9.34 8 -8.68 8 -8 8 C-8 7.34 -8 6.68 -8 6 C-6.35546875 4.45703125 -6.35546875 4.45703125 -4.1875 2.8125 C-3.47980469 2.26207031 -2.77210938 1.71164062 -2.04296875 1.14453125 C-1.36878906 0.76683594 -0.69460938 0.38914062 0 0 Z " fill="#425B42" transform="translate(257,409)"/>
<path d="M0 0 C0.33 0.66 0.66 1.32 1 2 C-6.02765937 1.17321655 -13.00998353 0.09751783 -20 -1 C-20 -1.33 -20 -1.66 -20 -2 C-12.80343544 -3.27088268 -6.73960354 -3.09068688 0 0 Z " fill="#486349" transform="translate(360,403)"/>
<path d="M0 0 C0.66 0 1.32 0 2 0 C2.433125 0.763125 2.86625 1.52625 3.3125 2.3125 C5.29440998 5.46887515 6.6059106 6.49151582 10 8 C12.67920194 8.51293271 15.27383398 8.76896898 18 9 C16 11 16 11 14.01171875 11.15234375 C9.78122948 10.76129012 7.51452018 10.39410057 4.0625 7.75 C2.13880443 5.18507257 0.95689792 3.04467519 0 0 Z " fill="#3F5740" transform="translate(150,790)"/>
<path d="M0 0 C3.47575128 0.56793322 5.02496366 1.66168245 7.3125 4.3125 C7.84488281 4.90675781 8.37726563 5.50101562 8.92578125 6.11328125 C10 8 10 8 9.66796875 10.23046875 C9.44753906 10.81441406 9.22710937 11.39835937 9 12 C8.443125 11.13375 7.88625 10.2675 7.3125 9.375 C5.09747202 6.04054927 2.60395067 3.03794244 0 0 Z " fill="#455F46" transform="translate(208,286)"/>
<path d="M0 0 C0.66 0.66 1.32 1.32 2 2 C0 6 -2 10 -4 14 C-5.2277183 10.31684509 -4.6026666 9.37044582 -3.125 5.875 C-2.75632813 4.98554688 -2.38765625 4.09609375 -2.0078125 3.1796875 C-1 1 -1 1 0 0 Z " fill="#466148" transform="translate(155,239)"/>
<path d="M0 0 C0.66 0 1.32 0 2 0 C1 3 1 3 -1.3125 4.6875 C-4 6 -4 6 -8 6 C-8 5.34 -8 4.68 -8 4 C-6.865625 3.525625 -5.73125 3.05125 -4.5625 2.5625 C-1.24259834 1.36377917 -1.24259834 1.36377917 0 0 Z " fill="#466147" transform="translate(784,560)"/>
<path d="M0 0 C0.66 0.33 1.32 0.66 2 1 C1.0409375 2.3921875 1.0409375 2.3921875 0.0625 3.8125 C-2.08622093 6.84219943 -2.08622093 6.84219943 -3 10 C-3.66 10 -4.32 10 -5 10 C-3.14285714 2.42857143 -3.14285714 2.42857143 0 0 Z " fill="#435D44" transform="translate(242,493)"/>
<path d="M0 0 C2 1 2 1 2 1 Z " fill="#5B775C" transform="translate(597,671)"/>
<path d="" fill="#59745B" transform="translate(0,0)"/>
<path d="" fill="#557256" transform="translate(0,0)"/>
<path d="" fill="#5E7C60" transform="translate(0,0)"/>
<path d="" fill="#5F7B60" transform="translate(0,0)"/>
<path d="" fill="#5F795D" transform="translate(0,0)"/>
<path d="" fill="#5D785E" transform="translate(0,0)"/>
<path d="" fill="#5C785C" transform="translate(0,0)"/>
<path d="" fill="#5E795E" transform="translate(0,0)"/>
<path d="" fill="#5D775D" transform="translate(0,0)"/>
<path d="" fill="#5C765C" transform="translate(0,0)"/>
<path d="" fill="#5D785D" transform="translate(0,0)"/>
<path d="" fill="#5B7A5F" transform="translate(0,0)"/>
<path d="" fill="#5B785C" transform="translate(0,0)"/>
<path d="" fill="#607D60" transform="translate(0,0)"/>
<path d="" fill="#5E7E62" transform="translate(0,0)"/>
<path d="" fill="#5F7E61" transform="translate(0,0)"/>
<path d="" fill="#5F7D5F" transform="translate(0,0)"/>
<path d="" fill="#607E61" transform="translate(0,0)"/>
<path d="" fill="#5F7E60" transform="translate(0,0)"/>
<path d="" fill="#5E7D60" transform="translate(0,0)"/>
<path d="" fill="#5F7D60" transform="translate(0,0)"/>
<path d="" fill="#628164" transform="translate(0,0)"/>
<path d="" fill="#607F61" transform="translate(0,0)"/>
<path d="" fill="#607F61" transform="translate(0,0)"/>
<path d="" fill="#617D60" transform="translate(0,0)"/>
<path d="" fill="#5B795F" transform="translate(0,0)"/>
<path d="" fill="#5C785C" transform="translate(0,0)"/>
<path d="" fill="#628167" transform="translate(0,0)"/>
<path d="" fill="#5A745A" transform="translate(0,0)"/>
<path d="" fill="#5C775C" transform="translate(0,0)"/>
<path d="" fill="#5A795D" transform="translate(0,0)"/>
<path d="" fill="#5B765D" transform="translate(0,0)"/>
<path d="" fill="#58745A" transform="translate(0,0)"/>
<path d="" fill="#5A775B" transform="translate(0,0)"/>
<path d="" fill="#5A775C" transform="translate(0,0)"/>
<path d="" fill="#58735A" transform="translate(0,0)"/>
<path d="" fill="#587159" transform="translate(0,0)"/>
</svg>
