<?xml version="1.0" encoding="UTF-8"?>
<svg version="1.1" xmlns="http://www.w3.org/2000/svg" width="1024" height="1024">
<path d="M0 0 C2.43853547 0.97873192 4.76555231 1.98665648 7.125 3.125 C7.7744458 3.4334082 8.4238916 3.74181641 9.09301758 4.05957031 C16.76524421 7.76295101 24.19523889 11.85928527 31 17 C31.639375 17.28875 32.27875 17.5775 32.9375 17.875 C35.81584336 19.44500547 37.70737559 21.65527049 40 24 C41.21959955 25.09409266 42.44968304 26.17656115 43.6875 27.25 C44.37585938 27.84941406 45.06421875 28.44882813 45.7734375 29.06640625 C47.29703901 30.38953388 48.82320799 31.70970922 50.3515625 33.02734375 C90.78458041 68.51854836 116.58982058 120.93102879 121.6875 174.25 C121.81943695 176.49854249 121.91986788 178.74901587 122 181 C122.02723145 181.7513623 122.05446289 182.50272461 122.08251953 183.27685547 C122.81602637 206.90131149 119.1348086 229.66733021 114.42553711 252.72900391 C112.98357313 259.80282209 111.60526478 266.79407737 111 274 C115.41522109 272.73025028 115.41522109 272.73025028 119 270 C120.34883327 269.22830495 121.71617066 268.48865543 123.09375 267.76953125 C127.90898348 265.13945072 132.18275308 262.06016273 136.5 258.6875 C137.23831055 258.11644531 137.97662109 257.54539062 138.73730469 256.95703125 C145.91425432 251.36476728 152.57784797 245.44149586 159 239 C160.27617188 237.75863281 160.27617188 237.75863281 161.578125 236.4921875 C168.52043248 229.69197404 174.7345739 222.52521474 180.6796875 214.82421875 C183.77003227 210.95728475 185.95767931 209.08049729 191 208 C194.47200799 214.62126593 194.98183476 221.33205543 195.8125 228.6875 C199.69652677 260.57168194 208.55389695 290.47561816 219.43859863 320.5814209 C227.18031684 342.0151349 234.29919959 363.45234412 238 386 C238.22429688 387.258125 238.44859375 388.51625 238.6796875 389.8125 C245.48112028 435.27961226 236.83802897 484.18049513 209.9375 521.9375 C205.77349389 527.41115319 201.42423329 532.73532096 197 538 C195.98292969 539.22203125 195.98292969 539.22203125 194.9453125 540.46875 C194.32398438 541.2009375 193.70265625 541.933125 193.0625 542.6875 C192.51722656 543.33074219 191.97195313 543.97398437 191.41015625 544.63671875 C190 546 190 546 188 546 C188 546.66 188 547.32 188 548 C186.671875 549.375 186.671875 549.375 184.75 551 C184.02554687 551.61617187 183.30109375 552.23234375 182.5546875 552.8671875 C181.71164062 553.57101562 180.86859375 554.27484375 180 555 C179.01257813 555.82757812 178.02515625 556.65515625 177.0078125 557.5078125 C174.01196159 560.01336547 171.00619271 562.50686418 168 565 C167.48977295 565.43787842 166.9795459 565.87575684 166.45385742 566.3269043 C163.61797902 568.74746981 160.86103163 570.82547509 157.5625 572.5625 C156.80066406 572.97242188 156.03882813 573.38234375 155.25390625 573.8046875 C154.51011719 574.19914063 153.76632812 574.59359375 153 575 C148.2689635 577.22076665 148.2689635 577.22076665 145 581 C147.66545164 581.6512183 150.33219056 582.29607161 153 582.9375 C154.11568359 583.21110352 154.11568359 583.21110352 155.25390625 583.49023438 C158.96278214 584.37713948 162.57957539 585.10854952 166.375 585.50390625 C170 586 170 586 173 588 C174.76611177 588.6265538 176.55211211 589.19795939 178.34765625 589.734375 C179.41862549 590.05792969 180.48959473 590.38148438 181.59301758 590.71484375 C182.73794678 591.05644531 183.88287598 591.39804687 185.0625 591.75 C187.44314419 592.4725238 189.82335197 593.19648703 192.203125 593.921875 C193.36908203 594.27701172 194.53503906 594.63214844 195.73632812 594.99804688 C220.45161276 602.58568363 245.14524694 611.60710957 268.1027832 623.5625 C271.37766661 625.39195642 271.37766661 625.39195642 275 626 C275.39058594 626.41378906 275.78117188 626.82757812 276.18359375 627.25390625 C278.78864673 629.75811847 281.90232304 631.24518771 285.0625 632.9375 C335.75254507 660.81382061 335.75254507 660.81382061 341.78515625 679.421875 C342.60757705 686.32557634 341.22449027 691.42011121 337 697 C331.27822723 701.84406393 325.90912664 703.14629984 318.53100586 703.18945312 C317.77300186 703.19774643 317.01499786 703.20603973 316.23402405 703.21458435 C314.5889233 703.2319744 312.94379794 703.24714408 311.29865837 703.26036072 C308.69762076 703.28138924 306.09670717 703.30841064 303.4957428 703.33703613 C297.03732462 703.40686815 290.5788182 703.46631404 284.12030029 703.52606201 C278.6611917 703.57694869 273.20215037 703.63175547 267.74313545 703.69187927 C265.17610278 703.71850358 262.60906399 703.73928603 260.04197693 703.7598877 C258.47451475 703.7764862 256.90705542 703.79335764 255.33959961 703.81054688 C254.62214569 703.81473129 253.90469177 703.81891571 253.16549683 703.82322693 C249.45829309 703.82067036 249.45829309 703.82067036 246 705 C243.99199544 704.71887936 241.98985949 704.38932033 240 704 C240.33 704.66 240.66 705.32 241 706 C237.7 705.01 234.4 704.02 231 703 C230.67 703.66 230.34 704.32 230 705 C227.69 704.34 225.38 703.68 223 703 C222.67 703.66 222.34 704.32 222 705 C221.05125 704.814375 220.1025 704.62875 219.125 704.4375 C216.10131207 703.71313368 216.10131207 703.71313368 214 705 C212.66300574 704.68166803 211.33021395 704.3455716 210 704 C208.29354998 703.90962726 206.58383377 703.869899 204.875 703.875 C204.00617188 703.87242187 203.13734375 703.86984375 202.2421875 703.8671875 C199.96280551 703.85462066 199.96280551 703.85462066 198 705 C197.34 704.67 196.68 704.34 196 704 C194.40737934 703.84824451 192.80935144 703.75099675 191.2109375 703.68359375 C190.26992188 703.64169922 189.32890625 703.59980469 188.359375 703.55664062 C186.88210938 703.49766602 186.88210938 703.49766602 185.375 703.4375 C184.38242187 703.39431641 183.38984375 703.35113281 182.3671875 703.30664062 C179.91160162 703.20038931 177.45591297 703.09835036 175 703 C174.67 703.66 174.34 704.32 174 705 C173.01 704.67 172.02 704.34 171 704 C169.53238207 703.90922771 168.06098313 703.87372376 166.59056091 703.87301636 C165.68901276 703.87019653 164.7874646 703.86737671 163.8585968 703.86447144 C162.37869514 703.86750778 162.37869514 703.86750778 160.86889648 703.87060547 C159.82803894 703.86885315 158.7871814 703.86710083 157.71478271 703.86529541 C154.26686954 703.86088633 150.81900746 703.86381138 147.37109375 703.8671875 C144.98120616 703.86651424 142.59131863 703.86554403 140.20143127 703.86428833 C135.19035185 703.86281268 130.17929024 703.86496187 125.16821289 703.86962891 C118.73280389 703.87532918 112.29743655 703.87204445 105.86202908 703.86605644 C100.92682072 703.86244989 95.9916223 703.8635898 91.05641365 703.86618423 C88.68285174 703.86685308 86.30928894 703.86602654 83.93572807 703.86370468 C80.62436389 703.8611763 77.31306805 703.86502128 74.00170898 703.87060547 C73.01308365 703.86858124 72.02445831 703.86655701 71.00587463 703.86447144 C70.1071463 703.86729126 69.20841797 703.87011108 68.28245544 703.87301636 C67.49914069 703.87339338 66.71582594 703.87377041 65.90877438 703.87415886 C63.91329028 703.88193609 63.91329028 703.88193609 62 705 C62 704.34 62 703.68 62 703 C59.69 703 57.38 703 55 703 C54.67 703.66 54.34 704.32 54 705 C53.01 704.67 52.02 704.34 51 704 C48.36195411 704.39397335 48.36195411 704.39397335 46 705 C46 704.34 46 703.68 46 703 C30.82 703.33 15.64 703.66 0 704 C0.66 704.66 1.32 705.32 2 706 C0.68 705.67 -0.64 705.34 -2 705 C-2 704.34 -2 703.68 -2 703 C-2.64469238 703.03029297 -3.28938477 703.06058594 -3.95361328 703.09179688 C-24.90368755 704.01958078 -45.84635877 704.08796352 -66.8125 704.0625 C-67.87433376 704.06121597 -67.87433376 704.06121597 -68.95761871 704.05990601 C-77.13870122 704.04927891 -85.31975576 704.03144829 -93.50080872 704.00672913 C-95.33386721 704.00179358 -97.16693487 704 -99 704 C-115.35061788 704 -115.35061788 704 -119.18165588 703.99327087 C-131.00412238 703.97319557 -142.82658441 703.95804031 -154.64906406 703.94818783 C-160.72007019 703.94295516 -166.79106242 703.93584682 -172.86206055 703.92456055 C-178.72693456 703.91372718 -184.59179515 703.90772258 -190.45667839 703.90512276 C-192.69627024 703.90327027 -194.93586132 703.89965302 -197.17544746 703.89426994 C-200.30000549 703.88705297 -203.4245073 703.88600931 -206.54907227 703.88647461 C-207.48159317 703.88287933 -208.41411407 703.87928406 -209.37489319 703.87557983 C-210.2231366 703.8769545 -211.07138 703.87832916 -211.94532776 703.87974548 C-212.68439645 703.87882369 -213.42346514 703.8779019 -214.18492985 703.87695217 C-216.10062884 703.88960899 -216.10062884 703.88960899 -218 705 C-218 704.34 -218 703.68 -218 703 C-218.60508896 703.07155304 -219.21017792 703.14310608 -219.83360291 703.21682739 C-225.94033408 703.89015032 -231.92618117 704.13565434 -238.06640625 704.0546875 C-238.98534164 704.04293488 -239.90427704 704.03118225 -240.85105896 704.01907349 C-242.77795932 703.99056714 -244.70480944 703.95845181 -246.6315918 703.92285156 C-248.5871748 703.89092368 -250.54296337 703.8697826 -252.4987793 703.859375 C-255.35551609 703.84405353 -258.21017696 703.79661574 -261.06640625 703.7421875 C-262.36053185 703.74338089 -262.36053185 703.74338089 -263.68080139 703.74459839 C-270.04115401 703.56890082 -274.90014692 701.87238419 -280 698 C-283.51210573 693.81356055 -285.88408375 689.56397996 -286 684 C-285.04455312 676.8341484 -281.78321566 671.39669422 -277 666 C-275.35680126 664.96188841 -273.68550358 663.96791295 -272 663 C-269.33031926 661.03711994 -266.73520007 658.9785298 -264.125 656.9375 C-216.62980201 620.32958455 -159.90737895 600.20956233 -102.54394531 584.95458984 C-100.09609209 584.29524112 -97.65686442 583.60331455 -95.22558594 582.88525391 C-92.28854003 582.07918908 -90.01836351 581.81706888 -87 582 C-87 581.01 -87 580.02 -87 579 C-87.71027344 578.74347656 -88.42054688 578.48695313 -89.15234375 578.22265625 C-93.21873995 576.47672756 -96.70692216 574.00828078 -100.37890625 571.55859375 C-102.68451532 570.18759819 -104.38518738 569.44913252 -107 569 C-107 568.34 -107 567.68 -107 567 C-108.40678023 565.75185669 -109.87879704 564.5769161 -111.375 563.4375 C-118.66915099 557.7470276 -125.54240056 551.62753627 -132 545 C-132.80050781 544.26716797 -132.80050781 544.26716797 -133.6171875 543.51953125 C-144.66787386 533.13372021 -156.55648827 518.48575595 -162.08203125 504.203125 C-162.78754667 501.83388505 -162.78754667 501.83388505 -165 501 C-165.68239354 499.00531118 -166.34370484 497.00342734 -167 495 C-167.7742018 493.24220374 -168.56775136 491.4928671 -169.375 489.75 C-171.47046589 485.21809004 -173.3875768 480.64657581 -175.203125 475.99609375 C-175.97797774 473.97427941 -175.97797774 473.97427941 -177 472 C-177.78091823 468.69174641 -178.36499269 465.33890939 -179 462 C-179.25136719 460.71222656 -179.50273437 459.42445313 -179.76171875 458.09765625 C-180.0290202 456.71100961 -180.29594717 455.32429074 -180.5625 453.9375 C-180.81128906 452.64714844 -181.06007813 451.35679687 -181.31640625 450.02734375 C-190.34741726 398.54995688 -175.29625558 346.58073948 -152 301 C-151.60232422 300.21995605 -151.20464844 299.43991211 -150.79492188 298.63623047 C-141.37778539 280.41144222 -129.53130422 263.46912834 -117.26171875 247.06640625 C-115.31251428 244.42370244 -113.4752922 241.75292424 -111.6875 239 C-109.59377695 235.80618517 -107.34847572 232.92157464 -104.8203125 230.0625 C-102.4038414 227.32452416 -100.04588961 224.53792171 -97.6875 221.75 C-96.97182861 220.90574463 -96.97182861 220.90574463 -96.24169922 220.04443359 C-93.26310919 216.5222685 -90.33673381 212.96305886 -87.4375 209.375 C-83.56482342 204.60380673 -79.46864808 200.08337581 -75.26171875 195.60546875 C-72.89514852 192.87921254 -70.97524285 190.01726716 -69 187 C-67.35697047 185.31002677 -65.68528688 183.64783606 -64 182 C-58.60377141 176.21456973 -53.46674626 170.24263339 -48.5 164.0859375 C-46.68422085 161.84458511 -44.85312428 159.62400679 -43 157.4140625 C-31.1945294 143.2525298 -20.71971743 128.25676054 -12 112 C-11.47019531 111.06800781 -10.94039063 110.13601563 -10.39453125 109.17578125 C2.80170235 84.85264631 7.18413038 52.43033949 -0.67651367 25.78076172 C-2.75611216 19.14041614 -5.23470778 12.76631505 -8.1796875 6.453125 C-9.07888528 3.76409544 -9.12729945 2.58000493 -8 0 C-5.04058064 -1.47970968 -3.20075605 -0.7305255 0 0 Z M7.3203125 287.39453125 C6 289 6 289 3.625 291.3125 C-30.9200716 326.68007331 -45.54578891 379.10992332 -45.15234375 427.34765625 C-44.73913348 451.25579765 -39.72154344 473.28972677 -31.78442383 495.77368164 C-31.17267807 497.50991243 -30.58212801 499.25361596 -30 501 C-20.4239482 525.23453885 -6.53976454 547.60111513 12 566 C12.83273437 566.9178125 13.66546875 567.835625 14.5234375 568.78125 C19.09532495 572.50315068 25.14531583 571.78380708 30.75 571.8125 C31.89855469 571.83763672 33.04710937 571.86277344 34.23046875 571.88867188 C37.82060172 571.96267344 41.40915185 572 45 572 C46.65563965 572.07069702 46.65563965 572.07069702 48.34472656 572.14282227 C52.15411506 572.3052684 55.96306632 572.40894313 59.77490234 572.49438477 C61.41833533 572.5396124 63.06140674 572.60101154 64.70361328 572.67895508 C74.09465027 573.47537021 74.09465027 573.47537021 82.38574219 570.07080078 C83.94365121 567.75184425 85.01193791 565.60573306 86 563 C86.5775 561.9275 87.155 560.855 87.75 559.75 C94.9170622 543.98246315 99.12141188 527.30552365 100 510 C100.05285156 509.20335937 100.10570312 508.40671875 100.16015625 507.5859375 C100.57931609 495.81301335 98.49199262 483.2351067 95 472 C94.34 472.66 93.68 473.32 93 474 C93.30744141 472.69675781 93.30744141 472.69675781 93.62109375 471.3671875 C95.39425036 455.60985765 76.90048614 430.22817838 68.03125 417.8515625 C52.41592334 395.93004623 39.02582016 372.95094762 31.78515625 346.80078125 C31.27917704 344.11584681 31.27917704 344.11584681 30 343 C29.67902249 340.68182911 29.48779044 338.36220643 29.28125 336.03125 C29.20934163 334.00819407 29.20934163 334.00819407 28 333 C26.68272972 323.17739196 26.89562186 313.13599312 26.875 303.25 C26.86811157 301.40390137 26.86811157 301.40390137 26.86108398 299.52050781 C26.87201747 293.01814789 27.10542368 286.65668517 27.88330078 280.19824219 C28.14396091 277.82175688 28.14396091 277.82175688 27 275 C18.4752174 273.46991082 12.21124311 281.34100238 7.3203125 287.39453125 Z " fill="#59795C" transform="translate(485,158)"/>
<path d="M0 0 C13.63971466 0.00443765 27.27942061 0.00367115 40.91913511 -0.00091031 C126.66107754 -0.02895827 212.39641482 0.16239438 334.37006284 1.12946078 C334.37006284 1.45946078 334.37006284 1.78946078 334.37006284 2.12946078 C332.96731611 2.14492198 332.96731611 2.14492198 331.53623106 2.16069552 C322.73653389 2.25832024 313.93690917 2.36104382 305.13733007 2.46880004 C300.6130447 2.52403768 296.08875288 2.57745903 291.56439878 2.62677523 C287.20069676 2.67440637 282.83707467 2.72674873 278.47346784 2.78240153 C276.80607112 2.80283076 275.13865247 2.8215429 273.47121717 2.8385348 C271.14135699 2.86256628 268.81164849 2.89262244 266.48187925 2.92413852 C265.78776441 2.92989398 265.09364957 2.93564944 264.37850095 2.94157931 C260.75150806 2.9586677 260.75150806 2.9586677 257.37006284 4.12946078 C255.36205829 3.84834014 253.35992233 3.51878112 251.37006284 3.12946078 C251.70006284 3.78946078 252.03006284 4.44946078 252.37006284 5.12946078 C249.07006284 4.13946078 245.77006284 3.14946078 242.37006284 2.12946078 C242.04006284 2.78946078 241.71006284 3.44946078 241.37006284 4.12946078 C239.06006284 3.46946078 236.75006284 2.80946078 234.37006284 2.12946078 C234.04006284 2.78946078 233.71006284 3.44946078 233.37006284 4.12946078 C232.42131284 3.94383578 231.47256284 3.75821078 230.49506284 3.56696078 C227.47137491 2.84259446 227.47137491 2.84259446 225.37006284 4.12946078 C224.03306858 3.81112882 222.7002768 3.47503238 221.37006284 3.12946078 C219.66361283 3.03908804 217.95389662 2.99935979 216.24506284 3.00446078 C215.37623472 3.00188266 214.50740659 2.99930453 213.61225034 2.99664828 C211.33286835 2.98408144 211.33286835 2.98408144 209.37006284 4.12946078 C208.71006284 3.79946078 208.05006284 3.46946078 207.37006284 3.12946078 C205.77744219 2.97770529 204.17941428 2.88045753 202.58100034 2.81305453 C201.63998472 2.77116 200.69896909 2.72926547 199.72943784 2.68610141 C198.74459409 2.646785 197.75975034 2.60746859 196.74506284 2.56696078 C195.75248472 2.52377719 194.75990659 2.48059359 193.73725034 2.43610141 C191.28166446 2.32985009 188.82597581 2.22781115 186.37006284 2.12946078 C186.04006284 2.78946078 185.71006284 3.44946078 185.37006284 4.12946078 C184.38006284 3.79946078 183.39006284 3.46946078 182.37006284 3.12946078 C180.90244492 3.03868849 179.43104597 3.00318454 177.96062376 3.00247714 C176.60830152 2.9982474 176.60830152 2.9982474 175.22865964 2.99393222 C174.24205854 2.99595645 173.25545744 2.99798068 172.23895933 3.00006625 C170.67767301 2.99743777 170.67767301 2.99743777 169.08484556 2.99475619 C165.63693239 2.99034712 162.18907031 2.99327216 158.74115659 2.99664828 C156.351269 2.99597502 153.96138147 2.99500481 151.57149412 2.99374911 C146.5604147 2.99227346 141.54935309 2.99442265 136.53827573 2.99908969 C130.10286673 3.00478996 123.6674994 3.00150523 117.23209192 2.99551722 C112.29688356 2.99191067 107.36168515 2.99305058 102.42647649 2.99564502 C100.05291458 2.99631386 97.67935178 2.99548733 95.30579092 2.99316546 C91.99442673 2.99063709 88.6831309 2.99448206 85.37177183 3.00006625 C84.38314649 2.99804202 83.39452116 2.99601779 82.37593748 2.99393222 C81.47720914 2.99675204 80.57848081 2.99957187 79.65251829 3.00247714 C78.86920353 3.00285416 78.08588878 3.00323119 77.27883722 3.00361964 C75.28335312 3.01139687 75.28335312 3.01139687 73.37006284 4.12946078 C73.37006284 3.46946078 73.37006284 2.80946078 73.37006284 2.12946078 C71.06006284 2.12946078 68.75006284 2.12946078 66.37006284 2.12946078 C66.04006284 2.78946078 65.71006284 3.44946078 65.37006284 4.12946078 C64.38006284 3.79946078 63.39006284 3.46946078 62.37006284 3.12946078 C59.73201695 3.52343413 59.73201695 3.52343413 57.37006284 4.12946078 C57.37006284 3.46946078 57.37006284 2.80946078 57.37006284 2.12946078 C42.19006284 2.45946078 27.01006284 2.78946078 11.37006284 3.12946078 C12.03006284 3.78946078 12.69006284 4.44946078 13.37006284 5.12946078 C11.39006284 4.63446078 11.39006284 4.63446078 9.37006284 4.12946078 C9.37006284 3.46946078 9.37006284 2.80946078 9.37006284 2.12946078 C8.72537046 2.15975375 8.08067808 2.19004672 7.41644956 2.22125766 C-13.53362471 3.14904156 -34.47629593 3.21742431 -55.44243716 3.19196078 C-56.50427092 3.19067675 -56.50427092 3.19067675 -57.58755587 3.18936679 C-65.76863838 3.17873969 -73.94969292 3.16090907 -82.13074587 3.13618991 C-83.96380436 3.13125436 -85.79687202 3.12946078 -87.62993716 3.12946078 C-103.98055504 3.12946078 -103.98055504 3.12946078 -107.81159304 3.12273166 C-119.63405954 3.10265635 -131.45652157 3.08750109 -143.27900122 3.07764861 C-149.35000735 3.07241594 -155.42099957 3.0653076 -161.4919977 3.05402133 C-167.35687172 3.04318796 -173.22173231 3.03718336 -179.08661555 3.03458354 C-181.32620739 3.03273106 -183.56579848 3.0291138 -185.80538462 3.02373073 C-188.92994265 3.01651375 -192.05444446 3.01547009 -195.17900942 3.01593539 C-196.11153033 3.01234012 -197.04405123 3.00874484 -198.00483035 3.00504062 C-199.27719546 3.00710261 -199.27719546 3.00710261 -200.57526492 3.00920627 C-201.31433361 3.00828447 -202.05340229 3.00736268 -202.814867 3.00641295 C-204.73056599 3.01906977 -204.73056599 3.01906977 -206.62993716 4.12946078 C-206.62993716 3.46946078 -206.62993716 2.80946078 -206.62993716 2.12946078 C-207.23896883 2.20305316 -207.84800051 2.27664554 -208.47548769 2.35246798 C-214.48658526 3.02417365 -220.31613246 3.206708 -226.35649966 3.00836703 C-227.23019198 2.98475604 -228.1038843 2.96114505 -229.00405215 2.93681857 C-231.75455351 2.86114087 -234.50470205 2.77671342 -237.25493716 2.69196078 C-239.13643115 2.63864368 -241.01794161 2.58590423 -242.89946841 2.53375766 C-247.47650848 2.40565819 -252.0532542 2.2697191 -256.62993716 2.12946078 C-256.62993716 1.79946078 -256.62993716 1.46946078 -256.62993716 1.12946078 C-171.08584759 0.09175878 -85.54915101 -0.02840134 0 0 Z " fill="#456045" transform="translate(473.6299371570349,858.8705392181873)"/>
<path d="M0 0 C8.26727213 0.06252107 16.53456545 0.12201215 24.80186075 0.18137598 C41.68448982 0.30266419 58.56709169 0.42735506 75.44967681 0.55461836 C75.44967681 0.88461836 75.44967681 1.21461836 75.44967681 1.55461836 C74.51451232 1.56492582 73.57934783 1.57523329 72.61584502 1.5858531 C63.81614786 1.68347782 55.01652314 1.78620139 46.21694404 1.89395761 C41.69265867 1.94919526 37.16836685 2.00261661 32.64401275 2.05193281 C28.28031073 2.09956395 23.91668864 2.1519063 19.55308181 2.20755911 C17.88568509 2.22798834 16.21826644 2.24670047 14.55083114 2.26369238 C12.22097096 2.28772386 9.89126246 2.31778001 7.56149322 2.34929609 C6.86737838 2.35505156 6.17326354 2.36080702 5.45811492 2.36673689 C1.83112203 2.38382528 1.83112203 2.38382528 -1.55032319 3.55461836 C-3.55832774 3.27349772 -5.5604637 2.94393869 -7.55032319 2.55461836 C-7.22032319 3.21461836 -6.89032319 3.87461836 -6.55032319 4.55461836 C-9.85032319 3.56461836 -13.15032319 2.57461836 -16.55032319 1.55461836 C-16.88032319 2.21461836 -17.21032319 2.87461836 -17.55032319 3.55461836 C-19.86032319 2.89461836 -22.17032319 2.23461836 -24.55032319 1.55461836 C-24.88032319 2.21461836 -25.21032319 2.87461836 -25.55032319 3.55461836 C-26.49907319 3.36899336 -27.44782319 3.18336836 -28.42532319 2.99211836 C-31.44901112 2.26775203 -31.44901112 2.26775203 -33.55032319 3.55461836 C-34.88731745 3.23628639 -36.22010924 2.90018995 -37.55032319 2.55461836 C-39.2567732 2.46424562 -40.96648941 2.42451736 -42.67532319 2.42961836 C-43.54415131 2.42704023 -44.41297944 2.42446211 -45.30813569 2.42180586 C-47.58751768 2.40923902 -47.58751768 2.40923902 -49.55032319 3.55461836 C-50.54032319 3.05961836 -50.54032319 3.05961836 -51.55032319 2.55461836 C-53.14294384 2.40286287 -54.74097175 2.30561511 -56.33938569 2.23821211 C-57.28040131 2.19631758 -58.22141694 2.15442305 -59.19094819 2.11125898 C-60.17579194 2.07194258 -61.16063569 2.03262617 -62.17532319 1.99211836 C-63.16790131 1.94893476 -64.16047944 1.90575117 -65.18313569 1.86125898 C-67.63872157 1.75500767 -70.09441022 1.65296872 -72.55032319 1.55461836 C-72.88032319 2.21461836 -73.21032319 2.87461836 -73.55032319 3.55461836 C-74.54032319 3.22461836 -75.53032319 2.89461836 -76.55032319 2.55461836 C-78.01794112 2.46384607 -79.48934006 2.42834212 -80.95976228 2.42763472 C-82.31208451 2.42340498 -82.31208451 2.42340498 -83.69172639 2.41908979 C-84.67832749 2.42111403 -85.6649286 2.42313826 -86.6814267 2.42522383 C-87.72228425 2.42347151 -88.76314179 2.42171919 -89.83554047 2.41991377 C-93.28345365 2.41550469 -96.73131572 2.41842974 -100.17922944 2.42180586 C-102.56911703 2.4211326 -104.95900456 2.42016239 -107.34889191 2.41890669 C-112.35997133 2.41743104 -117.37103294 2.41958023 -122.3821103 2.42424726 C-128.8175193 2.42994754 -135.25288663 2.4266628 -141.68829411 2.4206748 C-146.62350247 2.41706825 -151.55870089 2.41820816 -156.49390954 2.42080259 C-158.86747145 2.42147144 -161.24103425 2.4206449 -163.61459512 2.41832304 C-166.9259593 2.41579466 -170.23725513 2.41963964 -173.5486142 2.42522383 C-174.53723954 2.4231996 -175.52586488 2.42117537 -176.54444855 2.41908979 C-177.44317689 2.42190962 -178.34190522 2.42472944 -179.26786774 2.42763472 C-180.0511825 2.42801174 -180.83449725 2.42838877 -181.64154881 2.42877722 C-183.63703291 2.43655445 -183.63703291 2.43655445 -185.55032319 3.55461836 C-185.55032319 2.89461836 -185.55032319 2.23461836 -185.55032319 1.55461836 C-187.86032319 1.55461836 -190.17032319 1.55461836 -192.55032319 1.55461836 C-192.88032319 2.21461836 -193.21032319 2.87461836 -193.55032319 3.55461836 C-194.54032319 3.22461836 -195.53032319 2.89461836 -196.55032319 2.55461836 C-199.18836908 2.94859171 -199.18836908 2.94859171 -201.55032319 3.55461836 C-201.55032319 2.89461836 -201.55032319 2.23461836 -201.55032319 1.55461836 C-216.73032319 1.88461836 -231.91032319 2.21461836 -247.55032319 2.55461836 C-246.89032319 3.21461836 -246.23032319 3.87461836 -245.55032319 4.55461836 C-246.87032319 4.22461836 -248.19032319 3.89461836 -249.55032319 3.55461836 C-249.55032319 2.89461836 -249.55032319 2.23461836 -249.55032319 1.55461836 C-250.43590913 1.59014814 -251.32149506 1.62567793 -252.23391694 1.66228437 C-284.7093221 2.92742275 -284.7093221 2.92742275 -297.55032319 1.55461836 C-297.55032319 1.22461836 -297.55032319 0.89461836 -297.55032319 0.55461836 C-278.01099589 0.42138844 -258.47165159 0.29095452 -238.93228596 0.16346693 C-229.85077345 0.1041544 -220.76926764 0.04405648 -211.68777436 -0.01813555 C-141.11916817 -0.50042073 -70.56828282 -0.5345133 0 0 Z " fill="#374E34" transform="translate(732.5503231883049,859.4453816413879)"/>
<path d="M0 0 C-0.63164062 0.27038086 -1.26328125 0.54076172 -1.9140625 0.81933594 C-61.60194762 24.59921772 -61.60194762 24.59921772 -106.4375 67.875 C-107.491001 73.72778332 -107.10907023 78.218766 -103.9375 83.3125 C-100.54773827 86.41377137 -97.20273662 88.22713344 -93 90 C-96.37596969 91.11547357 -96.90725763 91.03878317 -100.4375 89.5625 C-105.54917922 86.38556388 -108.17507904 81.63974707 -109.9375 76 C-110.1143578 67.51082574 -106.539973 61.25051062 -101 55 C-99.35680126 53.96188841 -97.68550358 52.96791295 -96 52 C-93.33031926 50.03711994 -90.73520007 47.9785298 -88.125 45.9375 C-64.68392044 27.86979853 -38.6099998 13.30973116 -11.375 1.75 C-10.68245117 1.44989014 -9.98990234 1.14978027 -9.27636719 0.84057617 C-5.70036852 -0.62212786 -3.67078378 -1.15856299 0 0 Z " fill="#425C41" transform="translate(309,769)"/>
<path d="M0 0 C5.36391746 0.92524174 9.88472896 3.00911516 14.8125 5.25 C15.67681641 5.63285156 16.54113281 6.01570312 17.43164062 6.41015625 C22.17836073 8.55244955 26.62204962 10.87772489 30.99145508 13.70947266 C33.14912338 15.09581454 35.3443327 16.39749877 37.55859375 17.69140625 C83.75465584 44.81120102 83.75465584 44.81120102 92.5 61.9375 C93.64896133 68.97488813 92.45634529 74.45627459 88.3984375 80.33203125 C86.50723415 82.58774028 84.73828865 83.91909659 82 85 C80.515 84.505 80.515 84.505 79 84 C79.54269531 83.62488281 80.08539062 83.24976563 80.64453125 82.86328125 C87.30251701 78.24839497 87.30251701 78.24839497 90.34375 71.00390625 C90.78753398 64.60232229 88.86036046 60.03869372 85 55 C62.54805812 30.87844209 29.13310354 15.36455028 0 1 C0 0.67 0 0.34 0 0 Z " fill="#435D43" transform="translate(734,774)"/>
<path d="M0 0 C1.39846746 2.64163163 2.41639465 5.14323959 3.19140625 8.02734375 C9.20084125 29.59950352 18.01950273 49.60006677 30.69970703 68.09863281 C47.22619203 92.26466083 47.22619203 92.26466083 54 105 C54.55373291 106.03592285 54.55373291 106.03592285 55.11865234 107.09277344 C56.28172007 109.28349975 57.42571723 111.48303301 58.5625 113.6875 C58.9219873 114.37175049 59.28147461 115.05600098 59.65185547 115.76098633 C60.5132907 117.46986546 61.26588346 119.23268241 62 121 C61.505 122.485 61.505 122.485 61 124 C60.5153125 123.00742187 60.030625 122.01484375 59.53125 120.9921875 C52.43464496 106.56290084 44.56283896 93.02424608 35.45947266 79.75439453 C20.66777095 58.14167118 9.16727422 36.74726599 0.93774414 11.77685547 C0.09921999 9.08382759 0.09921999 9.08382759 -1 7 C-0.71758117 4.6599583 -0.38749213 2.32495277 0 0 Z " fill="#435D42" transform="translate(515,494)"/>
<path d="M0 0 C2.72512814 2.72512814 3.64001096 5.96787716 5 9.5 C20.7003526 48.56996353 52.06868013 83.38883838 90 102 C89.34 102.66 88.68 103.32 88 104 C87.21496094 103.54109375 86.42992187 103.0821875 85.62109375 102.609375 C82.41548149 100.73714011 79.20777385 98.86852827 76 97 C75.2575 96.56429687 74.515 96.12859375 73.75 95.6796875 C71.1794733 94.18390688 68.8322454 92.9440818 66 92 C66 91.34 66 90.68 66 90 C64.59321977 88.75185669 63.12120296 87.5769161 61.625 86.4375 C54.33084901 80.7470276 47.45759944 74.62753627 41 68 C40.46632813 67.51144531 39.93265625 67.02289062 39.3828125 66.51953125 C28.33212614 56.13372021 16.44351173 41.48575595 10.91796875 27.203125 C10.21245333 24.83388505 10.21245333 24.83388505 8 24 C7.31760646 22.00531118 6.65629516 20.00342734 6 18 C5.15791251 16.18185655 4.30261698 14.36979897 3.4375 12.5625 C1.44084639 8.26382223 0.31434063 4.71510938 0 0 Z " fill="#445E42" transform="translate(312,635)"/>
<path d="M0 0 C3.88380466 3.52656791 6.5793285 7.6265793 9.5 11.9375 C13.49540589 17.71788903 17.64980506 23.16467536 22.4375 28.3125 C22.92089844 28.83255615 23.40429688 29.3526123 23.90234375 29.88842773 C25.23759288 31.28881662 26.61782291 32.64590778 28 34 C28.680625 34.76054688 29.36125 35.52109375 30.0625 36.3046875 C34.9126415 39.10383831 40.06090165 38.72169388 45.5625 38.8125 C46.69880859 38.85052734 47.83511719 38.88855469 49.00585938 38.92773438 C55.58025021 39.18526634 55.58025021 39.18526634 62 38 C62 38.33 62 38.66 62 39 C79.325 39.495 79.325 39.495 97 40 C94.46455008 42.53544992 92.87256569 42.23731257 89.41488647 42.25205994 C88.26012314 42.2413723 88.26012314 42.2413723 87.08203125 42.23046875 C86.28060699 42.23055435 85.47918274 42.23063995 84.6534729 42.23072815 C82.03964417 42.22743681 79.42624188 42.20858072 76.8125 42.1875 C75.02677456 42.1779719 73.24104864 42.16853191 71.45532227 42.15917969 C67.08680417 42.13122285 62.71870984 42.0857806 58.35046387 42.02996826 C56.23400235 42.00298351 54.11749069 41.98000265 52.00097656 41.95751953 C48.8118017 41.91427799 45.62559653 41.84179608 42.4375 41.75 C41.54329346 41.73606201 40.64908691 41.72212402 39.7277832 41.70776367 C32.94349367 41.43879479 29.3773603 39.26897002 24.4296875 34.546875 C19.1796391 28.79911559 14.24997677 22.90561098 9.5625 16.6875 C9.06669434 16.03040039 8.57088867 15.37330078 8.06005859 14.69628906 C0 3.8010478 0 3.8010478 0 0 Z " fill="#577558" transform="translate(470,690)"/>
<path d="M0 0 C0.99 0.495 0.99 0.495 2 1 C1.41734375 1.680625 0.8346875 2.36125 0.234375 3.0625 C-26.4594307 34.62498724 -48.81495332 69.41855953 -66 107 C-66.83783774 104.62125331 -67.10643323 103.34549553 -66.35424805 100.90380859 C-65.99371338 100.15953613 -65.63317871 99.41526367 -65.26171875 98.6484375 C-64.85937012 97.80692139 -64.45702148 96.96540527 -64.04248047 96.09838867 C-63.59533691 95.19967041 -63.14819336 94.30095215 -62.6875 93.375 C-62.22746582 92.43567627 -61.76743164 91.49635254 -61.29345703 90.52856445 C-59.88227512 87.67512475 -58.44758479 84.83512685 -57 82 C-56.40517822 80.83331787 -56.40517822 80.83331787 -55.79833984 79.64306641 C-46.37433064 61.41788748 -34.53348019 44.47203731 -22.26171875 28.06640625 C-20.31251428 25.42370244 -18.4752922 22.75292424 -16.6875 20 C-14.08956882 16.03278886 -11.16902749 12.5203112 -8 9 C-7.2884375 8.19691406 -6.576875 7.39382813 -5.84375 6.56640625 C-3.90048995 4.37339622 -1.95218684 2.18506192 0 0 Z " fill="#455F43" transform="translate(390,377)"/>
<path d="M0 0 C9.27556496 1.45300289 17.42508958 6.99456629 24.84375 12.484375 C26.9329112 14.03333708 26.9329112 14.03333708 29.140625 15.06640625 C31.96672671 16.4853943 33.79460138 18.74447869 36 21 C37.21959955 22.09409266 38.44968304 23.17656115 39.6875 24.25 C40.37585938 24.84941406 41.06421875 25.44882813 41.7734375 26.06640625 C43.29703901 27.38953388 44.82320799 28.70970922 46.3515625 30.02734375 C60.84445273 42.74888073 72.77821964 57.81193021 83.375 73.875 C83.95628662 74.7400415 83.95628662 74.7400415 84.54931641 75.62255859 C85.5859375 77.2421875 85.5859375 77.2421875 87 80 C86.505 81.485 86.505 81.485 86 83 C85.25169922 81.77990234 85.25169922 81.77990234 84.48828125 80.53515625 C75.5127882 66.12100535 65.29824732 52.71910004 53.47509766 40.52197266 C51.99736149 38.99727765 50.53605244 37.45789707 49.07421875 35.91796875 C34.9636011 21.24255142 18.43866066 9.6114624 0 1 C0 0.67 0 0.34 0 0 Z " fill="#425C41" transform="translate(489,161)"/>
<path d="M0 0 C2.00519854 3.00779782 2.55242252 4.80214727 3.296875 8.27734375 C3.52979248 9.33727539 3.76270996 10.39720703 4.00268555 11.48925781 C4.24929932 12.62717773 4.49591309 13.76509766 4.75 14.9375 C7.96473963 29.21004583 11.75093401 43.00225031 16.82421875 56.73046875 C17.07388901 57.40628998 17.32355927 58.08211121 17.58079529 58.77841187 C18.83504887 62.1625087 20.10350321 65.54042513 21.39331055 68.91113281 C21.85906494 70.14573242 22.32481934 71.38033203 22.8046875 72.65234375 C23.22733887 73.75570068 23.64999023 74.85905762 24.08544922 75.99584961 C24.95835129 78.86319076 25.1938188 81.02891651 25 84 C23 83 23 83 22.24145508 81.26025391 C21.88410278 80.12982666 21.88410278 80.12982666 21.51953125 78.9765625 C21.24616943 78.1304541 20.97280762 77.2843457 20.69116211 76.41259766 C20.25622437 75.03273682 20.25622437 75.03273682 19.8125 73.625 C17.7812476 67.32325197 15.69371626 61.07498158 13.31225586 54.89648438 C9.23627295 44.31235238 6.30194908 33.54863639 3.61816406 22.53613281 C3.07804699 20.32020225 2.5227756 18.10892975 1.9609375 15.8984375 C0.62693498 10.47515622 -0.3899846 5.58977927 0 0 Z " fill="#425C41" transform="translate(682,406)"/>
<path d="M0 0 C2.59372626 5.54199064 2.90750001 11.86410725 3.625 17.875 C3.82609375 19.45087891 3.82609375 19.45087891 4.03125 21.05859375 C4.72964622 26.75266091 5.15203198 32.26424806 5 38 C3.33198916 35.02446731 2.63224283 32.52594572 2.21875 29.1484375 C2.09886719 28.21386719 1.97898437 27.27929688 1.85546875 26.31640625 C1.73816406 25.34574219 1.62085938 24.37507813 1.5 23.375 C0.60875069 16.17644786 -0.473177 9.09352664 -2 2 C-4.93516816 3.30338299 -6.78911473 4.59730584 -8.84765625 7.0546875 C-9.62423584 7.96903564 -9.62423584 7.96903564 -10.41650391 8.90185547 C-10.95968262 9.55299316 -11.50286133 10.20413086 -12.0625 10.875 C-13.21620087 12.23022927 -14.3711701 13.5843797 -15.52734375 14.9375 C-16.10597168 15.61683594 -16.68459961 16.29617188 -17.28076172 16.99609375 C-19.85326159 19.9945429 -22.47348758 22.94635593 -25.125 25.875 C-25.99382813 26.84179688 -26.86265625 27.80859375 -27.7578125 28.8046875 C-30 31 -30 31 -33 32 C-31.53419622 28.56955869 -29.638693 26.48624472 -26.9375 23.9375 C-21.84138092 18.96427768 -17.44081079 13.55520293 -13 8 C-5.17207334 -1.72402445 -5.17207334 -1.72402445 0 0 Z " fill="#456044" transform="translate(677,367)"/>
<path d="M0 0 C22.77 0 45.54 0 69 0 C67.68 1.32 66.36 2.64 65 4 C64.01 3.67 63.02 3.34 62 3 C60.24208585 2.92183003 58.4812645 2.90291532 56.72167969 2.91821289 C55.1041983 2.92800926 55.1041983 2.92800926 53.45404053 2.93800354 C51.70561859 2.95515663 51.70561859 2.95515663 49.921875 2.97265625 C47.45703267 2.98530628 44.99218885 2.99766696 42.52734375 3.00976562 C38.63878728 3.03455695 34.7503084 3.06249735 30.86181641 3.09594727 C27.11099765 3.12621502 23.36027721 3.14394826 19.609375 3.16015625 C17.87309845 3.18034569 17.87309845 3.18034569 16.10174561 3.20094299 C10.32933641 3.21882091 5.44097679 2.98624063 0 1 C0 0.67 0 0.34 0 0 Z " fill="#425C41" transform="translate(594,859)"/>
<path d="M0 0 C0.33 0 0.66 0 1 0 C0.47100051 6.17774121 -0.54486746 11.64570896 -2.5625 17.5 C-2.95840332 18.65894775 -2.95840332 18.65894775 -3.36230469 19.84130859 C-9.37921799 36.94255871 -17.84367311 53.44962279 -30 67 C-30 62.91162807 -27.90403971 60.71127888 -25.625 57.5 C-13.38258341 39.5987883 -6.11333803 20.67978743 0 0 Z " fill="#445F43" transform="translate(719,620)"/>
<path d="M0 0 C2.32621009 2.32621009 2.72246008 3.84395858 3.65625 6.97265625 C3.95660156 7.95427734 4.25695312 8.93589844 4.56640625 9.94726562 C5.18987634 12.02767315 5.81226865 14.10840398 6.43359375 16.18945312 C6.73394531 17.16978516 7.03429687 18.15011719 7.34375 19.16015625 C7.61380859 20.06386963 7.88386719 20.96758301 8.16210938 21.89868164 C8.80080406 24.17755715 8.80080406 24.17755715 11 25 C11.34529174 26.99797015 11.67611672 28.99844792 12 31 C12.8290333 33.25486256 13.73022897 35.48401786 14.6875 37.6875 C14.94861572 38.29182861 15.20973145 38.89615723 15.47875977 39.51879883 C17.66033263 44.46851488 20.2185471 49.1498018 22.99609375 53.79296875 C24 56 24 56 23 59 C21.58087449 56.50136876 20.1646616 54.00115719 18.75 51.5 C18.35425781 50.80390625 17.95851563 50.1078125 17.55078125 49.390625 C16.35211667 47.26839919 15.17182053 45.13715505 14 43 C13.66186279 42.39220703 13.32372559 41.78441406 12.9753418 41.15820312 C9.65186602 34.8940603 7.5307908 28.21699915 5.3125 21.5 C4.90966797 20.31535156 4.50683594 19.13070312 4.09179688 17.91015625 C2.09475425 11.90899299 0.46128714 6.31728825 0 0 Z " fill="#466246" transform="translate(445,630)"/>
<path d="M0 0 C0.99 0.33 1.98 0.66 3 1 C5.65606301 1.15346953 8.29095095 1.25717898 10.94921875 1.31640625 C12.10814384 1.3475779 12.10814384 1.3475779 13.29048157 1.37937927 C15.7560648 1.44471038 18.22175361 1.50368315 20.6875 1.5625 C22.36003691 1.60570087 24.03256319 1.64931566 25.70507812 1.69335938 C29.8032775 1.8003749 33.90158296 1.90168857 38 2 C35.46457018 4.53542982 33.87262322 4.23727464 30.41497803 4.25212097 C29.64510559 4.24497574 28.87523315 4.23783051 28.08203125 4.23046875 C27.28033508 4.23037308 26.47863892 4.2302774 25.65264893 4.23017883 C23.03911528 4.22644791 20.4259557 4.20751895 17.8125 4.1875 C16.03116985 4.18066071 14.24983841 4.17415061 12.46850586 4.16796875 C-0.37247267 4.10411067 -13.1800351 3.76618787 -26 3 C-26 2.67 -26 2.34 -26 2 C-24.8718689 1.96241577 -24.8718689 1.96241577 -23.72094727 1.92407227 C-20.33460804 1.80849486 -16.94857387 1.68559655 -13.5625 1.5625 C-11.78649414 1.50352539 -11.78649414 1.50352539 -9.97460938 1.44335938 C-8.84990234 1.40146484 -7.72519531 1.35957031 -6.56640625 1.31640625 C-5.52427979 1.27974854 -4.48215332 1.24309082 -3.40844727 1.20532227 C-1.0500174 1.26484659 -1.0500174 1.26484659 0 0 Z " fill="#3F583D" transform="translate(529,728)"/>
<path d="M0 0 C1.32 0.33 2.64 0.66 4 1 C2.38050958 2.50594681 0.75424026 4.00460668 -0.875 5.5 C-1.77992188 6.3353125 -2.68484375 7.170625 -3.6171875 8.03125 C-6 10 -6 10 -8 10 C-8 10.66 -8 11.32 -8 12 C-10.33583828 13.94450953 -12.67855141 15.76595022 -15.125 17.5625 C-15.84187988 18.09391602 -16.55875977 18.62533203 -17.29736328 19.17285156 C-22.06600736 22.6724464 -26.91005827 26.03510472 -31.875 29.25 C-32.46297363 29.6322876 -33.05094727 30.0145752 -33.65673828 30.40844727 C-37.74483853 33 -37.74483853 33 -40 33 C-40 32.34 -40 31.68 -40 31 C-37.45377785 28.82719035 -34.73778709 27.25252422 -31.78125 25.70703125 C-27.01309561 23.09761779 -22.77706629 20.02883485 -18.5 16.6875 C-17.39688477 15.83418091 -17.39688477 15.83418091 -16.27148438 14.96362305 C-6.98562717 8.49056709 -6.98562717 8.49056709 0 0 Z " fill="#496448" transform="translate(640,400)"/>
<path d="M0 0 C7.45773086 0.54970989 14.08182317 2.82560335 21.125 5.25 C22.3210083 5.65532959 23.5170166 6.06065918 24.74926758 6.47827148 C32.86180763 9.2368771 40.95786013 12.04180068 49 15 C49 15.66 49 16.32 49 17 C42.63327095 15.8630841 36.81805544 13.87189979 30.81201172 11.53369141 C23.70924769 8.80716239 16.46653825 6.56418561 9.18676758 4.3605957 C8.2820874 4.08175537 7.37740723 3.80291504 6.4453125 3.515625 C5.23125732 3.14872559 5.23125732 3.14872559 3.99267578 2.77441406 C2 2 2 2 0 0 Z " fill="#435E43" transform="translate(667,750)"/>
<path d="M0 0 C5.20131737 5.20131737 3.10588647 19.02850367 3.125 26.125 C3.07029596 46.39455606 3.07029596 46.39455606 0 51 C0 34.17 0 17.34 0 0 Z " fill="#486347" transform="translate(604,324)"/>
<path d="M0 0 C0 0.66 0 1.32 0 2 C-2.25689896 3.90923045 -4.52143781 5.71755662 -6.875 7.5 C-8.16489701 8.48849533 -9.45399374 9.47803604 -10.7421875 10.46875 C-11.3182373 10.90638672 -11.89428711 11.34402344 -12.48779297 11.79492188 C-14.14077961 13.06590447 -14.14077961 13.06590447 -16 15 C-17.37676718 15.82437791 -18.77577324 16.6120358 -20.1875 17.375 C-23.13377382 18.97644238 -26.04984037 20.60781018 -28.9375 22.3125 C-32 24 -32 24 -34 24 C-34.33 24.66 -34.66 25.32 -35 26 C-35 25.01 -35 24.02 -35 23 C-32.7734023 21.48518353 -30.59944706 20.17222333 -28.25 18.875 C-19.69343959 13.95764693 -11.88586406 8.36245601 -4.375 1.9375 C-2 0 -2 0 0 0 Z " fill="#476146" transform="translate(663,713)"/>
<path d="M0 0 C4.09273454 3.69730125 7.01383942 8.11343867 10.125 12.625 C11.18833632 14.16008025 12.25336521 15.69398984 13.3203125 17.2265625 C13.78711426 17.90283691 14.25391602 18.57911133 14.73486328 19.27587891 C16.02685933 21.12803667 16.02685933 21.12803667 18 23 C17.67 23.99 17.34 24.98 17 26 C14.90939833 23.31808511 12.82889836 20.6284937 10.75 17.9375 C9.87021484 16.80924805 9.87021484 16.80924805 8.97265625 15.65820312 C0 4.01391327 0 4.01391327 0 0 Z " fill="#425D41" transform="translate(470,690)"/>
<path d="M0 0 C0.66 0 1.32 0 2 0 C-0.85325271 8.71827218 -3.93312545 17.35518532 -7 26 C-7.33 26 -7.66 26 -8 26 C-7.48065724 19.6215931 -5.8635997 14.39950581 -3.4375 8.5 C-3.10814453 7.67757813 -2.77878906 6.85515625 -2.43945312 6.0078125 C-1.63471991 4.00181087 -0.81854242 2.00040655 0 0 Z " fill="#465F44" transform="translate(321,485)"/>
<path d="M0 0 C0.99 0.33 1.98 0.66 3 1 C2.03900391 2.051875 2.03900391 2.051875 1.05859375 3.125 C-4.02237724 8.6981664 -9.06473217 14.29666069 -14 20 C-14 15.93065929 -12.41866292 14.76132673 -9.8125 11.6875 C-8.99523437 10.71554687 -8.17796875 9.74359375 -7.3359375 8.7421875 C-6.17964844 7.38480469 -6.17964844 7.38480469 -5 6 C-3.97757534 4.77215669 -2.95632353 3.54333305 -1.9375 2.3125 C-1.298125 1.549375 -0.65875 0.78625 0 0 Z " fill="#445E43" transform="translate(407,356)"/>
<path d="M0 0 C0.66 0.33 1.32 0.66 2 1 C0.88200014 2.33920838 -0.24461897 3.67122556 -1.375 5 C-2.31472656 6.11375 -2.31472656 6.11375 -3.2734375 7.25 C-4.12808594 8.11625 -4.12808594 8.11625 -5 9 C-5.66 9 -6.32 9 -7 9 C-7.4021875 9.86625 -7.4021875 9.86625 -7.8125 10.75 C-9.02929189 13.05550043 -10.30333879 15.02056192 -12 17 C-12.66 17 -13.32 17 -14 17 C-12.44363758 13.37409619 -10.2207077 10.83141085 -7.5625 7.9375 C-6.78003906 7.08027344 -5.99757813 6.22304688 -5.19140625 5.33984375 C-3.49079133 3.52403566 -1.77582096 1.74156074 0 0 Z " fill="#4B674B" transform="translate(496,439)"/>
<path d="M0 0 C2 1 2 1 2.8515625 2.890625 C5.41509434 10.71069182 5.41509434 10.71069182 5 15 C4.34 14.34 3.68 13.68 3 13 C1.02 13.99 1.02 13.99 -1 15 C-0.125 9.25 -0.125 9.25 1 7 C0.71758117 4.6599583 0.38749213 2.32495277 0 0 Z " fill="#4E694D" transform="translate(577,619)"/>
<path d="M0 0 C0.66 0.33 1.32 0.66 2 1 C0.37512094 3.7622944 -1.29681758 6.42776651 -3.125 9.0625 C-4.70902089 11.54413273 -5.56063658 13.14413779 -6 16 C-6.66 16 -7.32 16 -8 16 C-7.50506533 11.24583878 -6.27876594 8.44779417 -3.4375 4.625 C-2.79683594 3.75101563 -2.15617188 2.87703125 -1.49609375 1.9765625 C-1.00238281 1.32429687 -0.50867188 0.67203125 0 0 Z " fill="#486348" transform="translate(208,824)"/>
<path d="M0 0 C0.66 0.33 1.32 0.66 2 1 C0.54648985 2.98287496 -0.91247287 4.96129387 -2.375 6.9375 C-2.7875 7.50146484 -3.2 8.06542969 -3.625 8.64648438 C-6.7734375 12.88671875 -6.7734375 12.88671875 -9 14 C-7.65070536 10.16336928 -5.92248975 7.34827431 -3.375 4.1875 C-2.42753906 3.00220703 -2.42753906 3.00220703 -1.4609375 1.79296875 C-0.97882813 1.20128906 -0.49671875 0.60960937 0 0 Z " fill="#41593F" transform="translate(460,292)"/>
<path d="M0 0 C-4.32387438 3.65866294 -8.34923902 5 -14 5 C-14 4.34 -14 3.68 -14 3 C-4.58997722 -0.44419134 -4.58997722 -0.44419134 0 0 Z " fill="#476247" transform="translate(352,753)"/>
<path d="M0 0 C0.66 0.33 1.32 0.66 2 1 C-1.3 4.63 -4.6 8.26 -8 12 C-8 8.03869629 -6.65122875 7.17085599 -4 4.3125 C-3.2575 3.50425781 -2.515 2.69601562 -1.75 1.86328125 C-1.1725 1.24839844 -0.595 0.63351562 0 0 Z " fill="#40583D" transform="translate(437,322)"/>
<path d="M0 0 C4.38889325 0.66498383 7.9811485 2.18757677 12 4 C12 4.66 12 5.32 12 6 C7.24518354 5.42365861 4.02951788 3.44931479 0 1 C0 0.67 0 0.34 0 0 Z " fill="#425B42" transform="translate(734,774)"/>
<path d="M0 0 C1.23593891 3.70781672 0.5678132 4.67510253 -0.9375 8.1875 C-1.31777344 9.08855469 -1.69804688 9.98960937 -2.08984375 10.91796875 C-2.54037109 11.94857422 -2.54037109 11.94857422 -3 13 C-3.93045933 10.44855176 -4.08564091 9.25993522 -3.22265625 6.640625 C-2.83980469 5.85171875 -2.45695313 5.0628125 -2.0625 4.25 C-1.68222656 3.45078125 -1.30195312 2.6515625 -0.91015625 1.828125 C-0.60980469 1.22484375 -0.30945313 0.6215625 0 0 Z " fill="#455F44" transform="translate(579,701)"/>
<path d="M0 0 C1.4606285 2.64738916 2 3.89448334 2 7 C2.99 7.66 3.98 8.32 5 9 C3.125 9.625 3.125 9.625 1 10 C0.34 9.34 -0.32 8.68 -1 8 C-0.96712417 5.27130593 -0.43602229 2.7033382 0 0 Z " fill="#496548" transform="translate(594,425)"/>
<path d="M0 0 C4.12751449 0.60698743 7.3321148 2.03810791 11 4 C10.34 4.66 9.68 5.32 9 6 C6.03 4.35 3.06 2.7 0 1 C0 0.67 0 0.34 0 0 Z " fill="#435E43" transform="translate(489,161)"/>
<path d="M0 0 C3.63 0 7.26 0 11 0 C9.68 1.32 8.36 2.64 7 4 C6.01 3.67 5.02 3.34 4 3 C4 2.34 4 1.68 4 1 C2.68 0.67 1.36 0.34 0 0 Z " fill="#4F6C51" transform="translate(652,859)"/>
<path d="M0 0 C2.27795022 2.27795022 3.05219877 3.93787293 4 7 C3.55078125 9.1640625 3.55078125 9.1640625 3 11 C2.30034557 9.73581754 1.61565237 8.46334598 0.9375 7.1875 C0.55464844 6.47980469 0.17179688 5.77210938 -0.22265625 5.04296875 C-1 3 -1 3 0 0 Z " fill="#4B664A" transform="translate(528,532)"/>
<path d="M0 0 C0.33 0.66 0.66 1.32 1 2 C0.04956626 3.33897583 -0.91059147 4.67105427 -1.875 6 C-2.40867187 6.7425 -2.94234375 7.485 -3.4921875 8.25 C-3.98976563 8.8275 -4.48734375 9.405 -5 10 C-5.66 10 -6.32 10 -7 10 C-5.33248852 6.05860922 -2.77289351 3.2107188 0 0 Z " fill="#455F43" transform="translate(489,446)"/>
<path d="M0 0 C0.33 1.32 0.66 2.64 1 4 C-1.97 6.475 -1.97 6.475 -5 9 C-3.7508258 5.54074837 -2.32472205 2.85306797 0 0 Z " fill="#618365" transform="translate(470,280)"/>
<path d="M0 0 C0 0.66 0 1.32 0 2 C-1.65 2 -3.3 2 -5 2 C-2 0 -2 0 0 0 Z " fill="#607F62" transform="translate(605,862)"/>
<path d="M0 0 C0.99 0.33 1.98 0.66 3 1 C2.01 1 1.02 1 0 1 C0 0.67 0 0.34 0 0 Z " fill="#617F63" transform="translate(507,862)"/>
<path d="M0 0 C0.99 0.33 1.98 0.66 3 1 C2.01 1 1.02 1 0 1 C0 0.67 0 0.34 0 0 Z " fill="#617F64" transform="translate(411,862)"/>
<path d="M0 0 C0.99 0.495 0.99 0.495 2 1 C1.67 1.66 1.34 2.32 1 3 C0.67 2.01 0.34 1.02 0 0 Z " fill="#668568" transform="translate(537,556)"/>
<path d="M0 0 C0.99 0.33 1.98 0.66 3 1 C2.01 1 1.02 1 0 1 C0 0.67 0 0.34 0 0 Z " fill="#59795D" transform="translate(493,160)"/>
<path d="M0 0 C3 1 3 1 3 1 Z " fill="#618163" transform="translate(720,863)"/>
<path d="M0 0 C0.33 0.66 0.66 1.32 1 2 C0.34 1.67 -0.32 1.34 -1 1 C-0.67 0.67 -0.34 0.34 0 0 Z " fill="#5F7D62" transform="translate(225,809)"/>
<path d="M0 0 C3 1 3 1 3 1 Z " fill="#638265" transform="translate(725,768)"/>
<path d="M0 0 C0.66 0 1.32 0 2 0 C1.67 0.66 1.34 1.32 1 2 C0.67 1.34 0.34 0.68 0 0 Z " fill="#658668" transform="translate(689,754)"/>
<path d="M0 0 C3 1 3 1 3 1 Z " fill="#658767" transform="translate(344,752)"/>
<path d="M0 0 C3 1 3 1 3 1 Z " fill="#608063" transform="translate(344,697)"/>
<path d="M0 0 C0.66 0 1.32 0 2 0 C1.67 0.66 1.34 1.32 1 2 C0.67 1.34 0.34 0.68 0 0 Z " fill="#668769" transform="translate(579,638)"/>
<path d="M0 0 C0.66 0 1.32 0 2 0 C1.67 0.66 1.34 1.32 1 2 C0.67 1.34 0.34 0.68 0 0 Z " fill="#668568" transform="translate(521,525)"/>
<path d="M0 0 C2 1 2 1 2 1 Z " fill="#5F7D62" transform="translate(751,863)"/>
<path d="M0 0 C2 1 2 1 2 1 Z " fill="#607F63" transform="translate(712,863)"/>
<path d="M0 0 C2 1 2 1 2 1 Z " fill="#5F7E62" transform="translate(701,863)"/>
<path d="" fill="#608062" transform="translate(0,0)"/>
<path d="" fill="#628063" transform="translate(0,0)"/>
<path d="M0 0 C2 1 2 1 2 1 Z " fill="#5F7F63" transform="translate(656,863)"/>
<path d="M0 0 C2 1 2 1 2 1 Z " fill="#617E63" transform="translate(645,863)"/>
<path d="M0 0 C2 1 2 1 2 1 Z " fill="#607F63" transform="translate(624,863)"/>
<path d="M0 0 C2 1 2 1 2 1 Z " fill="#628063" transform="translate(592,863)"/>
<path d="M0 0 C2 1 2 1 2 1 Z " fill="#608063" transform="translate(588,863)"/>
<path d="M0 0 C2 1 2 1 2 1 Z " fill="#607E63" transform="translate(581,863)"/>
<path d="M0 0 C2 1 2 1 2 1 Z " fill="#607F62" transform="translate(552,863)"/>
<path d="M0 0 C2 1 2 1 2 1 Z " fill="#608064" transform="translate(504,863)"/>
<path d="M0 0 C2 1 2 1 2 1 Z " fill="#607E62" transform="translate(456,863)"/>
<path d="M0 0 C2 1 2 1 2 1 Z " fill="#608063" transform="translate(448,863)"/>
<path d="M0 0 C2 1 2 1 2 1 Z " fill="#617F63" transform="translate(437,863)"/>
<path d="" fill="#628164" transform="translate(0,0)"/>
<path d="M0 0 C2 1 2 1 2 1 Z " fill="#627F65" transform="translate(357,863)"/>
<path d="M0 0 C2 1 2 1 2 1 Z " fill="#627F62" transform="translate(325,863)"/>
<path d="M0 0 C2 1 2 1 2 1 Z " fill="#607F62" transform="translate(320,863)"/>
<path d="M0 0 C2 1 2 1 2 1 Z " fill="#607F62" transform="translate(691,862)"/>
<path d="M0 0 C2 1 2 1 2 1 Z " fill="#607F61" transform="translate(675,862)"/>
<path d="M0 0 C2 1 2 1 2 1 Z " fill="#618064" transform="translate(643,862)"/>
<path d="M0 0 C2 1 2 1 2 1 Z " fill="#618062" transform="translate(635,862)"/>
<path d="M0 0 C2 1 2 1 2 1 Z " fill="#628162" transform="translate(627,862)"/>
<path d="M0 0 C2 1 2 1 2 1 Z " fill="#618164" transform="translate(595,862)"/>
<path d="M0 0 C2 1 2 1 2 1 Z " fill="#618062" transform="translate(579,862)"/>
<path d="M0 0 C2 1 2 1 2 1 Z " fill="#628164" transform="translate(571,862)"/>
<path d="M0 0 C2 1 2 1 2 1 Z " fill="#618162" transform="translate(555,862)"/>
<path d="M0 0 C2 1 2 1 2 1 Z " fill="#5F7E61" transform="translate(523,862)"/>
<path d="M0 0 C2 1 2 1 2 1 Z " fill="#618062" transform="translate(515,862)"/>
<path d="M0 0 C2 1 2 1 2 1 Z " fill="#618062" transform="translate(499,862)"/>
<path d="M0 0 C2 1 2 1 2 1 Z " fill="#618063" transform="translate(491,862)"/>
<path d="M0 0 C2 1 2 1 2 1 Z " fill="#618164" transform="translate(475,862)"/>
<path d="M0 0 C2 1 2 1 2 1 Z " fill="#618063" transform="translate(467,862)"/>
<path d="M0 0 C2 1 2 1 2 1 Z " fill="#607F63" transform="translate(459,862)"/>
<path d="M0 0 C2 1 2 1 2 1 Z " fill="#628062" transform="translate(435,862)"/>
<path d="M0 0 C2 1 2 1 2 1 Z " fill="#618064" transform="translate(419,862)"/>
<path d="M0 0 C2 1 2 1 2 1 Z " fill="#618063" transform="translate(323,862)"/>
<path d="M0 0 C2 1 2 1 2 1 Z " fill="#58735A" transform="translate(215,862)"/>
<path d="M0 0 C2 1 2 1 2 1 Z " fill="#5F7F63" transform="translate(798,808)"/>
<path d="" fill="#5E7D60" transform="translate(0,0)"/>
<path d="M0 0 C2 1 2 1 2 1 Z " fill="#618063" transform="translate(774,792)"/>
<path d="M0 0 C2 1 2 1 2 1 Z " fill="#628165" transform="translate(300,768)"/>
<path d="M0 0 C2 1 2 1 2 1 Z " fill="#618265" transform="translate(315,762)"/>
<path d="M0 0 C2 1 2 1 2 1 Z " fill="#638366" transform="translate(321,760)"/>
<path d="M0 0 C2 1 2 1 2 1 Z " fill="#648567" transform="translate(662,746)"/>
<path d="M0 0 C2 1 2 1 2 1 Z " fill="#668668" transform="translate(368,745)"/>
<path d="M0 0 C2 1 2 1 2 1 Z " fill="#658666" transform="translate(638,739)"/>
<path d="M0 0 C2 1 2 1 2 1 Z " fill="#658669" transform="translate(561,728)"/>
<path d="M0 0 C2 1 2 1 2 1 Z " fill="#658668" transform="translate(541,728)"/>
<path d="M0 0 C2 1 2 1 2 1 Z " fill="#66886A" transform="translate(538,728)"/>
<path d="M0 0 C2 1 2 1 2 1 Z " fill="#668768" transform="translate(533,728)"/>
<path d="" fill="#668567" transform="translate(0,0)"/>
<path d="M0 0 C2 1 2 1 2 1 Z " fill="#617F5E" transform="translate(312,645)"/>
<path d="" fill="#658567" transform="translate(0,0)"/>
<path d="" fill="#5E7C60" transform="translate(0,0)"/>
<path d="" fill="#5F7C5F" transform="translate(0,0)"/>
<path d="" fill="#648465" transform="translate(0,0)"/>
<path d="" fill="#5F7D60" transform="translate(0,0)"/>
<path d="" fill="#668568" transform="translate(0,0)"/>
<path d="" fill="#658567" transform="translate(0,0)"/>
<path d="" fill="#678969" transform="translate(0,0)"/>
<path d="" fill="#668669" transform="translate(0,0)"/>
<path d="" fill="#658768" transform="translate(0,0)"/>
<path d="" fill="#678867" transform="translate(0,0)"/>
<path d="" fill="#5F7E62" transform="translate(0,0)"/>
<path d="M0 0 C2 1 2 1 2 1 Z " fill="#618062" transform="translate(356,417)"/>
<path d="" fill="#658669" transform="translate(0,0)"/>
<path d="" fill="#658668" transform="translate(0,0)"/>
<path d="" fill="#648567" transform="translate(0,0)"/>
<path d="" fill="#638365" transform="translate(0,0)"/>
<path d="M0 0 C2 1 2 1 2 1 Z " fill="#638265" transform="translate(464,281)"/>
<path d="" fill="#627F64" transform="translate(0,0)"/>
<path d="M0 0 C2 1 2 1 2 1 Z " fill="#618163" transform="translate(481,245)"/>
<path d="" fill="#5E7E62" transform="translate(0,0)"/>
<path d="" fill="#587558" transform="translate(0,0)"/>
<path d="" fill="#5E7E62" transform="translate(0,0)"/>
<path d="" fill="#5E7F5F" transform="translate(0,0)"/>
<path d="" fill="#5F7E62" transform="translate(0,0)"/>
<path d="" fill="#617F62" transform="translate(0,0)"/>
<path d="" fill="#5F7D61" transform="translate(0,0)"/>
<path d="" fill="#5E7C61" transform="translate(0,0)"/>
<path d="" fill="#608062" transform="translate(0,0)"/>
<path d="" fill="#618162" transform="translate(0,0)"/>
<path d="" fill="#618063" transform="translate(0,0)"/>
<path d="" fill="#607E63" transform="translate(0,0)"/>
<path d="" fill="#617F62" transform="translate(0,0)"/>
<path d="" fill="#617F63" transform="translate(0,0)"/>
<path d="" fill="#618164" transform="translate(0,0)"/>
<path d="" fill="#5F7E64" transform="translate(0,0)"/>
<path d="" fill="#607F62" transform="translate(0,0)"/>
<path d="" fill="#607F62" transform="translate(0,0)"/>
<path d="" fill="#617F62" transform="translate(0,0)"/>
<path d="" fill="#618065" transform="translate(0,0)"/>
<path d="" fill="#618163" transform="translate(0,0)"/>
<path d="" fill="#627F64" transform="translate(0,0)"/>
<path d="" fill="#618164" transform="translate(0,0)"/>
<path d="" fill="#607F63" transform="translate(0,0)"/>
<path d="" fill="#617F62" transform="translate(0,0)"/>
<path d="" fill="#628064" transform="translate(0,0)"/>
<path d="" fill="#618062" transform="translate(0,0)"/>
<path d="" fill="#618063" transform="translate(0,0)"/>
<path d="" fill="#628064" transform="translate(0,0)"/>
<path d="" fill="#627F63" transform="translate(0,0)"/>
<path d="" fill="#628064" transform="translate(0,0)"/>
<path d="" fill="#617F62" transform="translate(0,0)"/>
<path d="" fill="#628064" transform="translate(0,0)"/>
<path d="" fill="#5F7E64" transform="translate(0,0)"/>
<path d="" fill="#617F62" transform="translate(0,0)"/>
<path d="" fill="#5F7D63" transform="translate(0,0)"/>
<path d="" fill="#617F64" transform="translate(0,0)"/>
<path d="" fill="#637F64" transform="translate(0,0)"/>
<path d="" fill="#607E62" transform="translate(0,0)"/>
<path d="" fill="#607F63" transform="translate(0,0)"/>
<path d="" fill="#608063" transform="translate(0,0)"/>
<path d="" fill="#617E63" transform="translate(0,0)"/>
<path d="" fill="#618064" transform="translate(0,0)"/>
<path d="" fill="#628063" transform="translate(0,0)"/>
<path d="" fill="#618065" transform="translate(0,0)"/>
<path d="" fill="#628065" transform="translate(0,0)"/>
<path d="" fill="#618062" transform="translate(0,0)"/>
<path d="" fill="#618064" transform="translate(0,0)"/>
<path d="" fill="#618265" transform="translate(0,0)"/>
<path d="" fill="#607F64" transform="translate(0,0)"/>
<path d="" fill="#607E63" transform="translate(0,0)"/>
<path d="" fill="#617F62" transform="translate(0,0)"/>
<path d="" fill="#5F7E61" transform="translate(0,0)"/>
<path d="" fill="#617F63" transform="translate(0,0)"/>
<path d="" fill="#607E63" transform="translate(0,0)"/>
<path d="" fill="#627E63" transform="translate(0,0)"/>
<path d="" fill="#5A765A" transform="translate(0,0)"/>
<path d="" fill="#5B785E" transform="translate(0,0)"/>
<path d="" fill="#5C7C5E" transform="translate(0,0)"/>
<path d="" fill="#5F7C60" transform="translate(0,0)"/>
<path d="" fill="#5F7F61" transform="translate(0,0)"/>
<path d="" fill="#618163" transform="translate(0,0)"/>
<path d="" fill="#5F7E61" transform="translate(0,0)"/>
<path d="" fill="#617F62" transform="translate(0,0)"/>
<path d="" fill="#628163" transform="translate(0,0)"/>
<path d="" fill="#618063" transform="translate(0,0)"/>
<path d="" fill="#638264" transform="translate(0,0)"/>
<path d="" fill="#618063" transform="translate(0,0)"/>
<path d="" fill="#617F62" transform="translate(0,0)"/>
<path d="" fill="#627D63" transform="translate(0,0)"/>
<path d="" fill="#617F64" transform="translate(0,0)"/>
<path d="" fill="#628166" transform="translate(0,0)"/>
<path d="" fill="#608163" transform="translate(0,0)"/>
<path d="" fill="#628062" transform="translate(0,0)"/>
<path d="" fill="#638163" transform="translate(0,0)"/>
<path d="" fill="#607F62" transform="translate(0,0)"/>
<path d="" fill="#5E7C60" transform="translate(0,0)"/>
<path d="" fill="#5F7E63" transform="translate(0,0)"/>
<path d="" fill="#587559" transform="translate(0,0)"/>
<path d="" fill="#58765B" transform="translate(0,0)"/>
<path d="" fill="#547459" transform="translate(0,0)"/>
<path d="" fill="#587559" transform="translate(0,0)"/>
<path d="" fill="#587357" transform="translate(0,0)"/>
<path d="" fill="#557358" transform="translate(0,0)"/>
<path d="" fill="#5C785E" transform="translate(0,0)"/>
<path d="" fill="#61795E" transform="translate(0,0)"/>
<path d="" fill="#607D61" transform="translate(0,0)"/>
<path d="" fill="#638367" transform="translate(0,0)"/>
<path d="" fill="#5D7E62" transform="translate(0,0)"/>
<path d="" fill="#627F63" transform="translate(0,0)"/>
<path d="" fill="#608064" transform="translate(0,0)"/>
<path d="" fill="#5E7E61" transform="translate(0,0)"/>
<path d="" fill="#618063" transform="translate(0,0)"/>
<path d="" fill="#617F61" transform="translate(0,0)"/>
<path d="" fill="#618063" transform="translate(0,0)"/>
<path d="" fill="#617E61" transform="translate(0,0)"/>
<path d="" fill="#618365" transform="translate(0,0)"/>
<path d="" fill="#5F7D60" transform="translate(0,0)"/>
<path d="" fill="#678769" transform="translate(0,0)"/>
<path d="" fill="#607F63" transform="translate(0,0)"/>
<path d="" fill="#628263" transform="translate(0,0)"/>
<path d="" fill="#618164" transform="translate(0,0)"/>
<path d="" fill="#638464" transform="translate(0,0)"/>
<path d="" fill="#628265" transform="translate(0,0)"/>
<path d="" fill="#628464" transform="translate(0,0)"/>
<path d="" fill="#648466" transform="translate(0,0)"/>
<path d="" fill="#648566" transform="translate(0,0)"/>
<path d="" fill="#648568" transform="translate(0,0)"/>
<path d="" fill="#648468" transform="translate(0,0)"/>
<path d="" fill="#628465" transform="translate(0,0)"/>
<path d="" fill="#648566" transform="translate(0,0)"/>
<path d="" fill="#658869" transform="translate(0,0)"/>
<path d="" fill="#658667" transform="translate(0,0)"/>
<path d="" fill="#658567" transform="translate(0,0)"/>
<path d="" fill="#668867" transform="translate(0,0)"/>
<path d="" fill="#668769" transform="translate(0,0)"/>
<path d="" fill="#678768" transform="translate(0,0)"/>
<path d="" fill="#678769" transform="translate(0,0)"/>
<path d="" fill="#668768" transform="translate(0,0)"/>
<path d="" fill="#66896A" transform="translate(0,0)"/>
<path d="" fill="#67886B" transform="translate(0,0)"/>
<path d="" fill="#658768" transform="translate(0,0)"/>
<path d="" fill="#658866" transform="translate(0,0)"/>
<path d="" fill="#688767" transform="translate(0,0)"/>
<path d="" fill="#678667" transform="translate(0,0)"/>
<path d="" fill="#638466" transform="translate(0,0)"/>
<path d="" fill="#658769" transform="translate(0,0)"/>
<path d="" fill="#678466" transform="translate(0,0)"/>
<path d="" fill="#678567" transform="translate(0,0)"/>
<path d="" fill="#67866A" transform="translate(0,0)"/>
<path d="" fill="#648463" transform="translate(0,0)"/>
<path d="" fill="#638162" transform="translate(0,0)"/>
<path d="" fill="#658668" transform="translate(0,0)"/>
<path d="" fill="#628165" transform="translate(0,0)"/>
<path d="" fill="#658567" transform="translate(0,0)"/>
<path d="" fill="#668769" transform="translate(0,0)"/>
<path d="" fill="#648568" transform="translate(0,0)"/>
<path d="" fill="#618163" transform="translate(0,0)"/>
<path d="" fill="#66896C" transform="translate(0,0)"/>
<path d="" fill="#607D60" transform="translate(0,0)"/>
<path d="" fill="#607F62" transform="translate(0,0)"/>
<path d="" fill="#617E60" transform="translate(0,0)"/>
<path d="" fill="#658465" transform="translate(0,0)"/>
<path d="" fill="#628063" transform="translate(0,0)"/>
<path d="" fill="#638063" transform="translate(0,0)"/>
<path d="" fill="#638164" transform="translate(0,0)"/>
<path d="" fill="#5E7D5F" transform="translate(0,0)"/>
<path d="" fill="#618062" transform="translate(0,0)"/>
<path d="" fill="#607D61" transform="translate(0,0)"/>
<path d="" fill="#617F63" transform="translate(0,0)"/>
<path d="" fill="#607F60" transform="translate(0,0)"/>
<path d="" fill="#617E63" transform="translate(0,0)"/>
<path d="" fill="#618061" transform="translate(0,0)"/>
<path d="" fill="#5E7C5F" transform="translate(0,0)"/>
<path d="" fill="#607D60" transform="translate(0,0)"/>
<path d="" fill="#658567" transform="translate(0,0)"/>
<path d="" fill="#668668" transform="translate(0,0)"/>
<path d="" fill="#607F64" transform="translate(0,0)"/>
<path d="" fill="#678566" transform="translate(0,0)"/>
<path d="" fill="#648768" transform="translate(0,0)"/>
<path d="" fill="#638367" transform="translate(0,0)"/>
<path d="" fill="#638365" transform="translate(0,0)"/>
<path d="" fill="#607F62" transform="translate(0,0)"/>
<path d="" fill="#658669" transform="translate(0,0)"/>
<path d="" fill="#668567" transform="translate(0,0)"/>
<path d="" fill="#678767" transform="translate(0,0)"/>
<path d="" fill="#628667" transform="translate(0,0)"/>
<path d="" fill="#607F62" transform="translate(0,0)"/>
<path d="" fill="#678467" transform="translate(0,0)"/>
<path d="" fill="#66866A" transform="translate(0,0)"/>
<path d="" fill="#668667" transform="translate(0,0)"/>
<path d="" fill="#688869" transform="translate(0,0)"/>
<path d="" fill="#5F7D60" transform="translate(0,0)"/>
<path d="" fill="#668666" transform="translate(0,0)"/>
<path d="" fill="#628062" transform="translate(0,0)"/>
<path d="" fill="#688668" transform="translate(0,0)"/>
<path d="" fill="#607D5F" transform="translate(0,0)"/>
<path d="" fill="#658266" transform="translate(0,0)"/>
<path d="" fill="#5F7E64" transform="translate(0,0)"/>
<path d="" fill="#658668" transform="translate(0,0)"/>
<path d="" fill="#658667" transform="translate(0,0)"/>
<path d="" fill="#628063" transform="translate(0,0)"/>
<path d="" fill="#628063" transform="translate(0,0)"/>
<path d="" fill="#5E7C60" transform="translate(0,0)"/>
<path d="" fill="#648568" transform="translate(0,0)"/>
<path d="" fill="#668767" transform="translate(0,0)"/>
<path d="" fill="#628164" transform="translate(0,0)"/>
<path d="" fill="#618063" transform="translate(0,0)"/>
<path d="" fill="#658467" transform="translate(0,0)"/>
<path d="" fill="#668767" transform="translate(0,0)"/>
<path d="" fill="#617F64" transform="translate(0,0)"/>
<path d="" fill="#67866A" transform="translate(0,0)"/>
<path d="" fill="#5E7F63" transform="translate(0,0)"/>
<path d="" fill="#668568" transform="translate(0,0)"/>
<path d="" fill="#668467" transform="translate(0,0)"/>
<path d="" fill="#648163" transform="translate(0,0)"/>
<path d="" fill="#638164" transform="translate(0,0)"/>
<path d="" fill="#638167" transform="translate(0,0)"/>
<path d="" fill="#607F62" transform="translate(0,0)"/>
<path d="" fill="#607E62" transform="translate(0,0)"/>
<path d="" fill="#608061" transform="translate(0,0)"/>
<path d="" fill="#678868" transform="translate(0,0)"/>
<path d="" fill="#648463" transform="translate(0,0)"/>
<path d="" fill="#5F7E61" transform="translate(0,0)"/>
<path d="" fill="#658567" transform="translate(0,0)"/>
<path d="" fill="#607F63" transform="translate(0,0)"/>
<path d="" fill="#6A876A" transform="translate(0,0)"/>
<path d="" fill="#658466" transform="translate(0,0)"/>
<path d="" fill="#617F60" transform="translate(0,0)"/>
<path d="" fill="#5F7E5F" transform="translate(0,0)"/>
<path d="" fill="#658566" transform="translate(0,0)"/>
<path d="" fill="#5F7D5F" transform="translate(0,0)"/>
<path d="" fill="#668465" transform="translate(0,0)"/>
<path d="" fill="#638262" transform="translate(0,0)"/>
<path d="" fill="#638266" transform="translate(0,0)"/>
<path d="" fill="#628263" transform="translate(0,0)"/>
<path d="" fill="#648366" transform="translate(0,0)"/>
<path d="" fill="#5B7A5D" transform="translate(0,0)"/>
<path d="" fill="#5E7C60" transform="translate(0,0)"/>
<path d="" fill="#648465" transform="translate(0,0)"/>
<path d="" fill="#648165" transform="translate(0,0)"/>
<path d="" fill="#5C775B" transform="translate(0,0)"/>
<path d="" fill="#628165" transform="translate(0,0)"/>
<path d="" fill="#618062" transform="translate(0,0)"/>
<path d="" fill="#607F60" transform="translate(0,0)"/>
<path d="" fill="#638366" transform="translate(0,0)"/>
<path d="" fill="#647F63" transform="translate(0,0)"/>
<path d="" fill="#628166" transform="translate(0,0)"/>
<path d="" fill="#648065" transform="translate(0,0)"/>
<path d="" fill="#628264" transform="translate(0,0)"/>
<path d="" fill="#628266" transform="translate(0,0)"/>
<path d="" fill="#618063" transform="translate(0,0)"/>
<path d="" fill="#638165" transform="translate(0,0)"/>
<path d="" fill="#618266" transform="translate(0,0)"/>
<path d="" fill="#668665" transform="translate(0,0)"/>
<path d="" fill="#628363" transform="translate(0,0)"/>
<path d="" fill="#628164" transform="translate(0,0)"/>
<path d="" fill="#628163" transform="translate(0,0)"/>
<path d="" fill="#5F7E61" transform="translate(0,0)"/>
<path d="" fill="#658566" transform="translate(0,0)"/>
<path d="" fill="#607F64" transform="translate(0,0)"/>
<path d="" fill="#658366" transform="translate(0,0)"/>
<path d="" fill="#617E64" transform="translate(0,0)"/>
<path d="" fill="#5F7D61" transform="translate(0,0)"/>
<path d="" fill="#618164" transform="translate(0,0)"/>
<path d="" fill="#5F8063" transform="translate(0,0)"/>
<path d="" fill="#5F7E61" transform="translate(0,0)"/>
<path d="" fill="#607E63" transform="translate(0,0)"/>
<path d="" fill="#618060" transform="translate(0,0)"/>
<path d="" fill="#618065" transform="translate(0,0)"/>
<path d="" fill="#608063" transform="translate(0,0)"/>
<path d="" fill="#618061" transform="translate(0,0)"/>
<path d="" fill="#607F61" transform="translate(0,0)"/>
<path d="" fill="#608063" transform="translate(0,0)"/>
<path d="" fill="#5E7E60" transform="translate(0,0)"/>
<path d="" fill="#5F7D62" transform="translate(0,0)"/>
<path d="" fill="#5D795D" transform="translate(0,0)"/>
<path d="" fill="#587359" transform="translate(0,0)"/>
<path d="" fill="#5C7B5E" transform="translate(0,0)"/>
<path d="" fill="#5B795D" transform="translate(0,0)"/>
<path d="" fill="#58755A" transform="translate(0,0)"/>
</svg>
