<?xml version="1.0" encoding="UTF-8"?>
<svg version="1.1" xmlns="http://www.w3.org/2000/svg" width="1024" height="1024">
<path d="M0 0 C0.78084961 0.04809814 1.56169922 0.09619629 2.36621094 0.14575195 C8.68743646 0.53672172 15.00836137 0.92971545 21.32495117 1.39013672 C27.76552694 1.85333998 34.09331452 2.04486855 40.55004883 1.83544922 C43 2 43 2 46 4 C48.14247032 4.41273007 50.30328056 4.73304064 52.46875 5 C53.76296875 5.165 55.0571875 5.33 56.390625 5.5 C57.76035944 5.66713633 59.13015159 5.83380038 60.5 6 C68.59605089 7.00318927 76.65205198 8.00433322 84.65039062 9.6328125 C87.02143583 10.06967311 87.02143583 10.06967311 89.53686523 9.97192383 C92.09721834 10.00110815 93.85902205 10.45428337 96.25390625 11.32421875 C99.31098815 12.40397021 102.3656832 13.44162647 105.46484375 14.39453125 C127.27019465 21.23688344 127.27019465 21.23688344 133.76953125 31.40649414 C135.93616097 35.97318214 135.8004988 40.33989914 135.625 45.3125 C135.60679199 46.35414307 135.58858398 47.39578613 135.56982422 48.46899414 C135.27618981 57.79649667 133.76152929 66.72829179 131.53222656 75.77294922 C131.15509654 77.35101346 130.8113594 78.93722877 130.49121094 80.52783203 C130.24419434 81.75348877 130.24419434 81.75348877 129.9921875 83.00390625 C129.77731689 84.1168103 129.77731689 84.1168103 129.55810547 85.25219727 C129.37393066 85.82897217 129.18975586 86.40574707 129 87 C128.34 87.33 127.68 87.66 127 88 C126.2649243 89.97466531 126.2649243 89.97466531 125.6875 92.375 C124.01024504 98.23299885 121.69247533 103.54082071 119 109 C118.69852051 109.61762207 118.39704102 110.23524414 118.08642578 110.87158203 C98.24090178 151.16044582 64.9429384 180.09983418 27 203 C27.30679687 203.76570312 27.61359375 204.53140625 27.9296875 205.3203125 C30.4052509 211.51825591 32.28107914 216.86851977 30.21875 223.51953125 C28.0160875 228.00251421 24.34230648 229.79676806 20 232 C7.71033102 236.11711068 -5.39508667 235.56697172 -18.1875 235.6875 C-20.66414937 235.72012649 -23.14079311 235.75318189 -25.61743164 235.78662109 C-49.06125022 236.07261747 -72.50858113 236.10062985 -95.95386124 236.12204361 C-98.89342677 236.12495633 -101.83298866 236.12912102 -104.77255249 236.13339233 C-124.084192 236.15710086 -143.38622404 236.09301101 -162.69140625 235.5546875 C-163.41626661 235.53527225 -164.14112698 235.51585701 -164.8879528 235.49585342 C-172.30218327 235.29103671 -179.64003277 234.96658841 -187 234 C-187 233.34 -187 232.68 -187 232 C-187.928125 232.20625 -188.85625 232.4125 -189.8125 232.625 C-193 233 -193 233 -196 231 C-195.34 230.34 -194.68 229.68 -194 229 C-195.2065625 227.7934375 -195.2065625 227.7934375 -196.4375 226.5625 C-199.66548706 222.59668733 -200.4171812 219.06577167 -200 214 C-198.92210089 209.56863699 -197.54462473 205.28915107 -196 201 C-196.67160156 200.76023437 -197.34320313 200.52046875 -198.03515625 200.2734375 C-201.71304882 198.69373661 -205.0255844 196.70684681 -208.4375 194.625 C-209.08009766 194.23828125 -209.72269531 193.8515625 -210.38476562 193.453125 C-213.40596807 191.62506748 -216.36049743 189.75566761 -219.28515625 187.7734375 C-221.92852019 185.88267062 -221.92852019 185.88267062 -225 185 C-225 184.34 -225 183.68 -225 183 C-226.64087874 181.70925452 -228.34018552 180.49238973 -230.0625 179.3125 C-234.22019828 176.36702065 -237.84139132 173.38398811 -241.33984375 169.6953125 C-243.05845303 167.94030914 -244.86630113 166.38795724 -246.75 164.8125 C-256.26540371 156.56459215 -267.31360914 145.37278172 -273 134 C-273.66 134.33 -274.32 134.66 -275 135 C-275.66 132.69 -276.32 130.38 -277 128 C-277.66 128 -278.32 128 -279 128 C-279.66666667 126 -280.33333333 124 -281 122 C-281.70380642 120.62225091 -282.43343575 119.25757228 -283.1796875 117.90234375 C-283.61410156 117.09990234 -284.04851562 116.29746094 -284.49609375 115.47070312 C-285.40210172 113.80626639 -286.3134084 112.14470094 -287.23046875 110.48632812 C-289.96916277 105.40075913 -291.91159486 100.54213646 -293.32861328 94.93579102 C-293.81668488 92.80061494 -293.81668488 92.80061494 -296 92 C-296.33 91.34 -296.66 90.68 -297 90 C-297.66 89.01 -298.32 88.02 -299 87 C-298.67 86.01 -298.34 85.02 -298 84 C-298.30355849 81.78822709 -298.30355849 81.78822709 -298.9609375 79.40234375 C-299.18523437 78.51869141 -299.40953125 77.63503906 -299.640625 76.72460938 C-299.88296875 75.80486328 -300.1253125 74.88511719 -300.375 73.9375 C-300.60960937 73.01388672 -300.84421875 72.09027344 -301.0859375 71.13867188 C-302.21898268 66.45227306 -302.21898268 66.45227306 -304 62 C-304.29989442 57.6310553 -304.27822537 53.25301278 -304.3125 48.875 C-304.34150391 47.66328125 -304.37050781 46.4515625 -304.40039062 45.203125 C-304.45623157 37.31666475 -304.00536236 31.47271059 -298.54370117 25.3737793 C-291.33522802 18.62934831 -282.04059644 15.33754385 -272.625 13 C-271.64966309 12.75290283 -270.67432617 12.50580566 -269.66943359 12.2512207 C-251.74668364 7.85010538 -233.49525589 4.29063974 -215 4 C-214.67 3.34 -214.34 2.68 -214 2 C-213.4006665 2.01015137 -212.80133301 2.02030273 -212.18383789 2.03076172 C-206.87418282 2.08109994 -201.667512 1.86925166 -196.38085938 1.39013672 C-131.52130466 -4.45238787 -64.96338388 -4.04159443 0 0 Z M-272 41 C-272 41.66 -272 42.32 -272 43 C-266.51116133 44.38034851 -261.00695681 45.69409973 -255.5 47 C-254.37851562 47.27328125 -253.25703125 47.5465625 -252.1015625 47.828125 C-239.56710182 51.13394957 -239.56710182 51.13394957 -227 50 C-227 50.66 -227 51.32 -227 52 C-212.35023673 53.63284161 -197.70793391 55.12661702 -183 56.125 C-181.92669434 56.20024902 -180.85338867 56.27549805 -179.74755859 56.35302734 C-154.76834109 57.96237319 -129.77266531 58.17295777 -104.75297928 58.12917709 C-102.26988003 58.12492705 -99.78678178 58.12200623 -97.30368042 58.11929321 C4.80469228 61.03929962 4.80469228 61.03929962 104 42 C104 41.67 104 41.34 104 41 C99.45260525 40.03120047 94.90341997 39.07143 90.35253906 38.11914062 C88.81233366 37.79562716 87.27259807 37.46986689 85.73339844 37.14160156 C68.07486339 33.31175952 68.07486339 33.31175952 50.10546875 32.01416016 C47 32 47 32 46 31 C43.96994518 31 41.93935573 31.00357588 39.91015625 31.0625 C38 31 38 31 36 30 C33.06640083 29.71271297 30.14703585 29.47764941 27.20703125 29.28125 C26.30997971 29.21844849 25.41292816 29.15564697 24.48869324 29.09094238 C22.57292634 28.95782128 20.65701084 28.82682465 18.7409668 28.69775391 C15.89657268 28.50567727 13.05277947 28.30619551 10.20898438 28.10546875 C8.33336481 27.97610528 6.45771443 27.84718774 4.58203125 27.71875 C3.76644241 27.661427 2.95085358 27.604104 2.11054993 27.54504395 C-16.88862857 26.28038424 -35.86522398 25.83838249 -54.90234375 25.83203125 C-57.23987344 25.82880036 -59.57740294 25.8254351 -61.91493225 25.82194519 C-66.78826361 25.81600919 -71.6615774 25.81409928 -76.53491211 25.81469727 C-81.43957239 25.81477807 -86.34413836 25.80789897 -91.2487793 25.79418945 C-182.43459621 25.39882401 -182.43459621 25.39882401 -272 41 Z M-193 230 C-192.34 230.66 -191.68 231.32 -191 232 C-191 231.34 -191 230.68 -191 230 C-191.66 230 -192.32 230 -193 230 Z " fill="#356A4B" transform="translate(596,510)"/>
<path d="M0 0 C2.23989318 1.72890554 4.3851224 3.53494218 6.52734375 5.3828125 C7.1203125 5.82109375 7.71328125 6.259375 8.32421875 6.7109375 C17.37068338 13.59952983 26.06642332 26.81258845 28.21484375 37.9453125 C28.36953125 39.151875 28.36953125 39.151875 28.52734375 40.3828125 C29.18734375 40.7128125 29.84734375 41.0428125 30.52734375 41.3828125 C31.45900158 69.7589601 24.73361691 88.17983869 11.1171875 112.703125 C0.63479126 131.60853737 -4.73092065 149.76503426 1.34375 171.2734375 C3.35139961 176.61596951 6.19207236 181.32132935 9.35546875 186.05859375 C10.72137415 188.76763947 10.98861614 190.38955581 10.52734375 193.3828125 C6.82457345 195.85132603 5.26167149 195.63415485 1.00390625 195.05859375 C-3.45621624 193.84155717 -6.85529857 191.17454503 -10.47265625 188.3828125 C-11.98859375 187.2690625 -11.98859375 187.2690625 -13.53515625 186.1328125 C-14.17453125 185.5553125 -14.81390625 184.9778125 -15.47265625 184.3828125 C-15.47265625 183.7228125 -15.47265625 183.0628125 -15.47265625 182.3828125 C-16.13265625 182.3828125 -16.79265625 182.3828125 -17.47265625 182.3828125 C-22.72287774 176.39083786 -26.46828225 169.88854551 -29.3671875 162.5 C-30.33895506 160.04149885 -30.33895506 160.04149885 -33.47265625 159.3828125 C-33.19421875 158.40054688 -33.19421875 158.40054688 -32.91015625 157.3984375 C-32.34763784 153.52107847 -32.92187674 149.97340546 -33.47265625 146.1328125 C-34.64671513 137.07926436 -34.3218404 128.44842711 -33.47265625 119.3828125 C-32.81265625 119.3828125 -32.15265625 119.3828125 -31.47265625 119.3828125 C-31.37984375 118.0215625 -31.37984375 118.0215625 -31.28515625 116.6328125 C-29.51323651 104.66038185 -21.94286707 93.50939182 -16.18261719 83.03759766 C-7.4843136 67.18138097 -0.37025187 50.92678907 -4.47265625 32.3828125 C-4.80265625 31.7228125 -5.13265625 31.0628125 -5.47265625 30.3828125 C-5.51390625 29.3103125 -5.55515625 28.2378125 -5.59765625 27.1328125 C-6.53081043 18.88493359 -11.91182047 10.57188682 -16.47265625 3.8203125 C-18.47265625 0.3828125 -18.47265625 0.3828125 -18.28515625 -2.6171875 C-18.01703125 -3.2771875 -17.74890625 -3.9371875 -17.47265625 -4.6171875 C-11.42647263 -6.75942505 -5.07252173 -3.31757345 0 0 Z " fill="#3B7250" transform="translate(513.47265625,287.6171875)"/>
<path d="M0 0 C10.31834031 1.6449528 18.63571932 9.9679474 24.5625 18.0625 C33.1638901 32.2012657 34.34821217 45.64258189 30.515625 61.65234375 C27.59371459 72.10655601 22.41266151 81.11871019 16.92797852 90.41430664 C9.8791416 102.41503891 6.43512889 111.91630903 7.5625 126.0625 C8.49654716 129.64382071 9.84767525 132.79033441 11.5625 136.0625 C11.92085938 136.75472656 12.27921875 137.44695312 12.6484375 138.16015625 C14.07382835 140.76980039 15.45313274 142.95313274 17.5625 145.0625 C17.29388708 149.27076906 16.65797238 151.2673969 13.5625 154.0625 C1.20417521 149.83688723 -7.1685625 143.6081161 -13.28125 131.93359375 C-13.6628125 131.31613281 -14.044375 130.69867188 -14.4375 130.0625 C-15.0975 130.0625 -15.7575 130.0625 -16.4375 130.0625 C-16.4375 128.0825 -16.4375 126.1025 -16.4375 124.0625 C-17.0975 123.7325 -17.7575 123.4025 -18.4375 123.0625 C-22.95575278 100.73358628 -16.04612314 83.06279219 -4.1796875 64.5078125 C1.58204277 55.47188865 4.57688564 47.70713506 5.5625 37.0625 C4.9025 37.0625 4.2425 37.0625 3.5625 37.0625 C3.81 35.78375 4.0575 34.505 4.3125 33.1875 C5.29148167 23.97355492 0.01293988 16.80466041 -5.14453125 9.60546875 C-6.4375 7.0625 -6.4375 7.0625 -6.26171875 4.36328125 C-4.8990431 0.55941415 -4.07916121 0.07416657 0 0 Z " fill="#3C724F" transform="translate(428.4375,333.9375)"/>
<path d="M0 0 C8.10541503 -1.080722 14.17640896 3.14577007 20.49609375 7.86328125 C29.98438236 15.84752411 35.20361653 25.46717851 37.75 37.5625 C39.15520136 56.88401875 32.72692324 71.16580523 23.50976562 87.65234375 C16.11088944 101.02108827 9.9535018 113.39589027 14.0625 129 C15.78899946 134.21318616 18.67008557 138.66848392 21.671875 143.23828125 C23 146 23 146 22.86328125 148.7421875 C21.67729769 151.84399066 19.91364435 152.58053224 17 154 C17 153.34 17 152.68 17 152 C16.34 151.938125 15.68 151.87625 15 151.8125 C3.74763584 148.76498471 -3.00661639 139.53803795 -8.6171875 129.96484375 C-10.03372794 126.92768502 -10.47544345 124.28563146 -11 121 C-11.66 120.67 -12.32 120.34 -13 120 C-13.37756107 117.52453911 -13.6156223 115.17944094 -13.75 112.6875 C-13.78947754 111.96127441 -13.82895508 111.23504883 -13.86962891 110.48681641 C-14.44634414 96.48219678 -10.74948223 82.14750997 -2.234375 70.8671875 C-0.8901183 69.08183956 -0.8901183 69.08183956 -0.578125 67.0078125 C0 65 0 65 1.89453125 63.12890625 C4.41216413 60.58324777 5.38315178 58.25803317 6.6875 54.9375 C7.10386719 53.89464844 7.52023437 52.85179687 7.94921875 51.77734375 C11.68771928 41.89602823 11.49980137 29.23413222 7.359375 19.453125 C5.34960365 15.82629624 2.83718668 12.61532737 0.3515625 9.3046875 C-1.11641759 6.80148446 -1.3577973 5.70348721 -0.9375 2.875 C-0.628125 1.92625 -0.31875 0.9775 0 0 Z " fill="#3B714F" transform="translate(576,334)"/>
<path d="M0 0 C0 0.33 0 0.66 0 1 C-1.98 1 -3.96 1 -6 1 C-6 1.66 -6 2.32 -6 3 C-40.0244029 3.80495662 -74.04339993 4.13164141 -108.07668686 4.18167114 C-111.02433779 4.1874255 -113.97195016 4.19710892 -116.91958618 4.20800781 C-140.69514472 4.29104818 -164.28877813 3.83644719 -188 2 C-188 1.67 -188 1.34 -188 1 C-165.70266493 0.86908341 -143.40532697 0.73867054 -121.1079855 0.60884857 C-110.75371094 0.54855121 -100.39943737 0.48809233 -90.04516602 0.42724609 C-81.0147888 0.37418006 -71.98440983 0.32142433 -62.95402867 0.26903296 C-58.17763293 0.24131122 -53.40123818 0.21343972 -48.6248455 0.18519592 C-44.11792081 0.15855047 -39.61099386 0.13232374 -35.10406494 0.10640144 C-33.46071854 0.09687872 -31.81737296 0.08721038 -30.1740284 0.07737541 C-20.11585403 0.01728296 -10.05836949 -0.0121892 0 0 Z " fill="#406C3E" transform="translate(608,742)"/>
<path d="M0 0 C25.75568392 -0.13308844 51.49845047 0.05469357 77.25 0.5 C78.28764307 0.51793673 78.28764307 0.51793673 79.34624863 0.53623581 C87.89761335 0.68462341 96.44885831 0.83926717 105 1 C105 1.33 105 1.66 105 2 C96.18254405 2.18054615 87.3649502 2.34612085 78.54689884 2.49477577 C74.44817473 2.56429603 70.34964573 2.63816396 66.2512207 2.72363281 C44.05334538 3.182505 22.14111256 2.73041216 0 1 C0 0.67 0 0.34 0 0 Z " fill="#295A32" transform="translate(420,743)"/>
<path d="M0 0 C0 0.33 0 0.66 0 1 C-1.8097229 1.08302368 -1.8097229 1.08302368 -3.65600586 1.16772461 C-8.11587274 1.37357242 -12.57542712 1.58561167 -17.03491211 1.79956055 C-18.96810023 1.89143129 -20.90136981 1.98160393 -22.8347168 2.07006836 C-25.60748908 2.19723368 -28.37991477 2.33042648 -31.15234375 2.46484375 C-32.02213364 2.50343002 -32.89192352 2.5420163 -33.78807068 2.58177185 C-37.71419159 2.40767539 -37.71419159 2.40767539 -41 4 C-47.4122015 4.20356195 -53.6337104 3.74428438 -60 3 C-60 2.67 -60 2.34 -60 2 C-39.95139176 0.52364342 -20.11134499 -0.30947856 0 0 Z " fill="#5F8B57" transform="translate(464,509)"/>
<path d="M0 0 C0.66 0 1.32 0 2 0 C3.42648065 4.27944194 3.53976361 8.18110908 2.25 12.52734375 C-0.41748047 17.80395356 -6.29435636 20.35303172 -11.625 22.375 C-15.1608994 23.02979618 -18.41190874 23.1464527 -22 23 C-22 22.67 -22 22.34 -22 22 C-20.35 21.67 -18.7 21.34 -17 21 C-17 20.67 -17 20.34 -17 20 C-15.783125 19.731875 -14.56625 19.46375 -13.3125 19.1875 C-9.76336686 18.31435043 -7.08180304 16.99410785 -4 15 C-3.34 15 -2.68 15 -2 15 C-0.9458482 11.83754459 -0.68724328 9.13051782 -0.4375 5.8125 C-0.35371094 4.72582031 -0.26992188 3.63914062 -0.18359375 2.51953125 C-0.09271484 1.27236328 -0.09271484 1.27236328 0 0 Z " fill="#406C3F" transform="translate(624,721)"/>
<path d="M0 0 C1.03719328 3.21456356 0.94068337 5.40925583 0.1875 8.6875 C0.01605469 9.47511719 -0.15539062 10.26273438 -0.33203125 11.07421875 C-1 13 -1 13 -3 14 C-3.7350757 15.97466531 -3.7350757 15.97466531 -4.3125 18.375 C-6.10730107 24.73006094 -8.24710324 32.24710324 -13 37 C-13 35.68 -13 34.36 -13 33 C-12.34 33 -11.68 33 -11 33 C-10.9071875 32.04480469 -10.814375 31.08960938 -10.71875 30.10546875 C-10.02522908 25.25448528 -8.26060904 20.86250769 -6.5 16.3125 C-5.86275922 14.64262204 -5.2272765 12.97207188 -4.59375 11.30078125 C-4.31208984 10.57028564 -4.03042969 9.83979004 -3.74023438 9.0871582 C-3.02654508 7.07484627 -2.48082114 5.07896505 -2 3 C-1.34 3 -0.68 3 0 3 C0 2.01 0 1.02 0 0 Z " fill="#406D41" transform="translate(726,584)"/>
<path d="M0 0 C0 0.33 0 0.66 0 1 C-28.81099604 3.89186719 -28.81099604 3.89186719 -43 2 C-43 1.67 -43 1.34 -43 1 C-28.66606646 -0.11796696 -14.37107285 -0.10772918 0 0 Z " fill="#407046" transform="translate(638,564)"/>
<path d="M0 0 C0.33 0.66 0.66 1.32 1 2 C-0.27875 2.12375 -1.5575 2.2475 -2.875 2.375 C-6.34790936 2.69042399 -6.34790936 2.69042399 -9 5 C-10.87939453 5.22705078 -10.87939453 5.22705078 -13.1328125 5.1953125 C-13.93847656 5.18886719 -14.74414062 5.18242188 -15.57421875 5.17578125 C-16.41597656 5.15902344 -17.25773438 5.14226563 -18.125 5.125 C-19.39923828 5.11146484 -19.39923828 5.11146484 -20.69921875 5.09765625 C-22.79959884 5.07405647 -24.89983444 5.03818483 -27 5 C-25 2 -25 2 -22.4921875 1.34765625 C-18.03944748 0.90437453 -13.59437848 0.64279525 -9.125 0.4375 C-8.24585938 0.39431641 -7.36671875 0.35113281 -6.4609375 0.30664062 C-4.30744203 0.20130661 -2.15373936 0.10022351 0 0 Z " fill="#4B7C51" transform="translate(593,565)"/>
<path d="M0 0 C2.55832852 2.48726384 4.94085627 4.92346105 7.125 7.75 C8.87431597 10.25052455 8.87431597 10.25052455 12 11 C13.70993434 12.6222454 15.37347684 14.29413425 17 16 C17.763125 16.763125 18.52625 17.52625 19.3125 18.3125 C19.869375 18.869375 20.42625 19.42625 21 20 C16.83492783 19.45994624 14.45554561 18.16934899 11.1875 15.5625 C10.39730469 14.94503906 9.60710937 14.32757813 8.79296875 13.69140625 C8.20128906 13.13324219 7.60960937 12.57507813 7 12 C7 11.34 7 10.68 7 10 C6.34 10 5.68 10 5 10 C3.7109375 8.57421875 3.7109375 8.57421875 2.375 6.6875 C1.92898438 6.07261719 1.48296875 5.45773437 1.0234375 4.82421875 C0 3 0 3 0 0 Z " fill="#3C6B44" transform="translate(491,460)"/>
<path d="M0 0 C0.33 0 0.66 0 1 0 C1.08636719 0.72445312 1.17273438 1.44890625 1.26171875 2.1953125 C2.20184681 8.66408353 3.22422678 12.46301544 8 17 C8.66 17.33 9.32 17.66 10 18 C9.67 19.32 9.34 20.64 9 22 C7.02 21.67 5.04 21.34 3 21 C3.66 20.01 4.32 19.02 5 18 C4.195625 17.195625 3.39125 16.39125 2.5625 15.5625 C-0.62679235 11.76787454 -1.12979132 7.8671746 -1 3 C-0.67 2.01 -0.34 1.02 0 0 Z M6 19 C6.66 19.66 7.32 20.32 8 21 C8 20.34 8 19.68 8 19 C7.34 19 6.68 19 6 19 Z " fill="#49723E" transform="translate(397,721)"/>
<path d="M0 0 C0.99 1.0209375 0.99 1.0209375 2 2.0625 C2.9952292 3.04651535 3.99588169 4.02505704 5 5 C5.60457031 5.58910156 6.20914063 6.17820312 6.83203125 6.78515625 C11.32815866 10.96203201 15.12264635 13.21580336 21 15 C21 15.66 21 16.32 21 17 C12.68686122 16.37651459 7.02245974 11.32527917 1.25 5.74609375 C0 4 0 4 0 0 Z " fill="#3B6A42" transform="translate(573,469)"/>
<path d="M0 0 C0.66 0 1.32 0 2 0 C3.5859375 2.1953125 3.5859375 2.1953125 5.375 5.125 C7.33870476 8.32115544 9.2966075 11.46455718 11.5 14.5 C12.2425 15.7375 12.2425 15.7375 13 17 C12.67 17.99 12.34 18.98 12 20 C10.35 17.69 8.7 15.38 7 13 C6.01 13.495 6.01 13.495 5 14 C4.34 11.69 3.68 9.38 3 7 C2.34 7 1.68 7 1 7 C0.67 6.01 0.34 5.02 0 4 C-0.33 3.34 -0.66 2.68 -1 2 C-0.67 1.34 -0.34 0.68 0 0 Z " fill="#477243" transform="translate(316,631)"/>
<path d="M0 0 C1.64826111 2.96687001 2.44271087 5.65626525 3 9 C3.33 9 3.66 9 4 9 C4.08117951 11.41734542 4.14056926 13.83194949 4.1875 16.25 C4.22520508 17.27287109 4.22520508 17.27287109 4.26367188 18.31640625 C4.31137459 21.59199289 4.21085076 23.65348556 2.48828125 26.484375 C1.99714844 26.98453125 1.50601562 27.4846875 1 28 C1.01160156 26.91460937 1.02320313 25.82921875 1.03515625 24.7109375 C1.04454138 23.26562673 1.05364081 21.82031409 1.0625 20.375 C1.07087891 19.66214844 1.07925781 18.94929688 1.08789062 18.21484375 C1.16270007 10.89606937 1.16270007 10.89606937 -1 4 C-0.5625 1.875 -0.5625 1.875 0 0 Z " fill="#538250" transform="translate(509,314)"/>
<path d="M0 0 C0.33 0 0.66 0 1 0 C1.75166913 7.69118596 2.13690844 15.27227893 2 23 C1.67 23 1.34 23 1 23 C0.67 20.69 0.34 18.38 0 16 C-0.66 17.32 -1.32 18.64 -2 20 C-2.05425226 17.60385874 -2.09379027 15.20896147 -2.125 12.8125 C-2.14175781 12.13896484 -2.15851563 11.46542969 -2.17578125 10.77148438 C-2.21538674 6.71192193 -1.80020002 3.65001185 0 0 Z " fill="#467952" transform="translate(510,428)"/>
<path d="M0 0 C4 3 4 3 4.45410156 5.54370117 C4.4331543 6.53345947 4.41220703 7.52321777 4.390625 8.54296875 C4.37773438 9.61611328 4.36484375 10.68925781 4.3515625 11.79492188 C4.31804688 12.91447266 4.28453125 14.03402344 4.25 15.1875 C4.23195313 16.31865234 4.21390625 17.44980469 4.1953125 18.61523438 C4.14812652 21.41100376 4.08230595 24.20507972 4 27 C3.67 27 3.34 27 3 27 C3 22.05 3 17.1 3 12 C2.34 12 1.68 12 1 12 C0.67 8.04 0.34 4.08 0 0 Z " fill="#558455" transform="translate(540,326)"/>
<path d="M0 0 C0.33 0 0.66 0 1 0 C1.07431978 4.05671683 1.12868133 8.11316846 1.16479492 12.17041016 C1.17985422 13.54971218 1.20030613 14.92896653 1.22631836 16.30810547 C1.26282415 18.29373403 1.27814853 20.27971618 1.29296875 22.265625 C1.3086792 23.45961914 1.32438965 24.65361328 1.34057617 25.88378906 C1 29 1 29 -2 33 C-1.34 22.11 -0.68 11.22 0 0 Z " fill="#285D3B" transform="translate(729,546)"/>
<path d="M0 0 C0.66 0 1.32 0 2 0 C2.33 1.98 2.66 3.96 3 6 C2.34 6 1.68 6 1 6 C1 13.26 1 20.52 1 28 C1.66 28 2.32 28 3 28 C2.67 30.31 2.34 32.62 2 35 C1.67 35 1.34 35 1 35 C-0.68301121 23.10764808 -1.12056673 11.96280695 0 0 Z " fill="#568353" transform="translate(480,407)"/>
<path d="M0 0 C9.70618661 -0.16831537 19.32153574 0.35782702 29 1 C29 1.33 29 1.66 29 2 C22.4 2.33 15.8 2.66 9 3 C9 2.34 9 1.68 9 1 C6.03 1 3.06 1 0 1 C0 0.67 0 0.34 0 0 Z " fill="#558352" transform="translate(399,565)"/>
<path d="M0 0 C1.1953125 1.5859375 1.1953125 1.5859375 2 4 C0.8046875 7.1640625 0.8046875 7.1640625 -1.125 10.625 C-1.74632812 11.77226562 -2.36765625 12.91953125 -3.0078125 14.1015625 C-4.91896574 16.8821031 -5.8720838 17.92955757 -9 19 C-9 18.01 -9 17.02 -9 16 C-8.39671875 15.40703125 -7.7934375 14.8140625 -7.171875 14.203125 C-4.58150309 11.57548155 -3.58933 9.17273221 -2.25 5.75 C-1.82203125 4.67234375 -1.3940625 3.5946875 -0.953125 2.484375 C-0.63859375 1.66453125 -0.3240625 0.8446875 0 0 Z " fill="#46754A" transform="translate(585,383)"/>
<path d="M0 0 C8.4011194 10.6119403 8.4011194 10.6119403 9 17 C5.31993178 13.61831569 3.0214155 10.57478244 1 6 C0.34 6 -0.32 6 -1 6 C-0.67 4.02 -0.34 2.04 0 0 Z " fill="#417045" transform="translate(413,458)"/>
<path d="M0 0 C0 0.66 0 1.32 0 2 C0.86625 1.505 0.86625 1.505 1.75 1 C4 0 4 0 8 0 C8 0.99 8 1.98 8 3 C9.32 3.33 10.64 3.66 12 4 C5.07 3.67 -1.86 3.34 -9 3 C-9.33 2.34 -9.66 1.68 -10 1 C-6.56484998 0.37542727 -3.50935186 0 0 0 Z " fill="#58875A" transform="translate(652,540)"/>
<path d="M0 0 C1.03719328 3.21456356 0.94068337 5.40925583 0.1875 8.6875 C-0.06966797 9.86892578 -0.06966797 9.86892578 -0.33203125 11.07421875 C-1 13 -1 13 -3 14 C-3.65555119 16.52733235 -3.65555119 16.52733235 -4 19 C-4.33 19 -4.66 19 -5 19 C-4.52013969 13.43109483 -3.70084819 8.32932432 -2 3 C-1.34 3 -0.68 3 0 3 C0 2.01 0 1.02 0 0 Z " fill="#467446" transform="translate(726,584)"/>
<path d="M0 0 C4.45673159 0.49871064 6.57687178 2.02004362 9.8125 5.0625 C10.60269531 5.79597656 11.39289062 6.52945312 12.20703125 7.28515625 C13.09455078 8.13400391 13.09455078 8.13400391 14 9 C13.67 9.99 13.34 10.98 13 12 C10.95880212 10.38405168 8.95927063 8.7143618 7 7 C7 6.34 7 5.68 7 5 C6.401875 4.731875 5.80375 4.46375 5.1875 4.1875 C3.02775192 3.01506533 1.64209744 1.80630718 0 0 Z " fill="#3B6C43" transform="translate(512,289)"/>
<path d="M0 0 C0.33 0.66 0.66 1.32 1 2 C0.2578125 3.98828125 0.2578125 3.98828125 -0.875 6.3125 C-2.38688867 9.5448137 -3.53918892 12.42871416 -4 16 C-5.44977894 13.65887549 -6.04314411 12.4203071 -5.7578125 9.640625 C-5.54898437 8.85171875 -5.34015625 8.0628125 -5.125 7.25 C-4.92132813 6.45078125 -4.71765625 5.6515625 -4.5078125 4.828125 C-4.34023438 4.22484375 -4.17265625 3.6215625 -4 3 C-3.34 3 -2.68 3 -2 3 C-2 2.34 -2 1.68 -2 1 C-1.34 0.67 -0.68 0.34 0 0 Z " fill="#46774C" transform="translate(440,430)"/>
<path d="M0 0 C6.27 0 12.54 0 19 0 C19 0.33 19 0.66 19 1 C17.02 1 15.04 1 13 1 C13 1.66 13 2.32 13 3 C6.73 3 0.46 3 -6 3 C-6 2.67 -6 2.34 -6 2 C-4.02 2 -2.04 2 0 2 C0 1.34 0 0.68 0 0 Z " fill="#668E5B" transform="translate(381,512)"/>
<path d="M0 0 C0.66 0 1.32 0 2 0 C2.10477512 5.78591511 1.99250545 11.29309366 1 17 C0.67 17 0.34 17 0 17 C-0.89316269 11.06390334 -0.97040422 5.93024803 0 0 Z " fill="#517F4F" transform="translate(612,375)"/>
<path d="M0 0 C2.66130399 1.01755741 3.80516056 1.66684861 5.265625 4.1640625 C5.59046875 4.97617187 5.9153125 5.78828125 6.25 6.625 C6.75273437 7.85089844 6.75273437 7.85089844 7.265625 9.1015625 C7.62914062 10.04128906 7.62914062 10.04128906 8 11 C7.34 11.66 6.68 12.32 6 13 C4.99491199 11.21118264 3.99607264 9.41885304 3 7.625 C2.1646875 6.12839844 2.1646875 6.12839844 1.3125 4.6015625 C0 2 0 2 0 0 Z " fill="#457548" transform="translate(426,345)"/>
<path d="M0 0 C1.65 0 3.3 0 5 0 C3.68 0.33 2.36 0.66 1 1 C1.50712033 4.71888239 2.11608215 7.73454239 4 11 C0.83884224 9.63016497 0.0072908 9.0109362 -2 6 C-2 4.68 -2 3.36 -2 2 C-1.34 2 -0.68 2 0 2 C0 1.34 0 0.68 0 0 Z " fill="#3A6C42" transform="translate(577,335)"/>
<path d="M0 0 C1.98 0.66 3.96 1.32 6 2 C5.74438677 4.3431213 5.40729228 6.67843403 5 9 C4.01 9.495 4.01 9.495 3 10 C2.01 6.7 1.02 3.4 0 0 Z " fill="#487B4F" transform="translate(440,476)"/>
<path d="M0 0 C1.12377697 3.30435084 0.89554742 5.0506862 -0.4375 8.25 C-0.72496094 8.95640625 -1.01242187 9.6628125 -1.30859375 10.390625 C-1.53675781 10.92171875 -1.76492188 11.4528125 -2 12 C-2.66 12 -3.32 12 -4 12 C-4.33 12.66 -4.66 13.32 -5 14 C-4.46515599 8.65155992 -2.53309233 4.64203897 0 0 Z " fill="#366943" transform="translate(517,408)"/>
<path d="M0 0 C0.66 0 1.32 0 2 0 C0.43358249 4.30764815 -1.68336156 8.06171464 -4 12 C-4.9435441 9.46100862 -5.16906025 8.39090725 -4.07421875 5.859375 C-3.61660156 5.16328125 -3.15898437 4.4671875 -2.6875 3.75 C-2.23761719 3.04359375 -1.78773438 2.3371875 -1.32421875 1.609375 C-0.88722656 1.07828125 -0.45023437 0.5471875 0 0 Z " fill="#376840" transform="translate(421,404)"/>
<path d="M0 0 C0.66 0 1.32 0 2 0 C1.43026084 3.9881741 0.16380338 6.62446673 -2 10 C-2.68096422 11.32608822 -3.35330586 12.65686601 -4 14 C-4.125 7.25 -4.125 7.25 -3 5 C-2.34 5 -1.68 5 -1 5 C-0.67 3.35 -0.34 1.7 0 0 Z " fill="#2D5D3A" transform="translate(402,711)"/>
<path d="M0 0 C2.01074628 0.90807897 3.99238073 1.83297182 5.9375 2.875 C1.52835217 3.97728696 -2.54632401 3.95154536 -7.0625 3.875 C-2.65939922 -0.16117571 -2.65939922 -0.16117571 0 0 Z " fill="#42744B" transform="translate(339.0625,544.125)"/>
<path d="M0 0 C4.99275057 1.27721526 7.57611908 3.17330957 11 7 C7.08406554 6.21681311 3.63593365 4.60820142 0 3 C0 2.01 0 1.02 0 0 Z " fill="#437346" transform="translate(715,530)"/>
<path d="M0 0 C2.63861452 3.18453477 5.1832328 6.27084628 7 10 C6.57421875 12.15234375 6.57421875 12.15234375 6 14 C4.9923048 12.2335343 3.99408286 10.46166177 3 8.6875 C2.443125 7.70136719 1.88625 6.71523438 1.3125 5.69921875 C0 3 0 3 0 0 Z " fill="#366941" transform="translate(512,457)"/>
<path d="M0 0 C1 3 1 3 0.109375 5.2265625 C-0.33921875 6.01804687 -0.7878125 6.80953125 -1.25 7.625 C-1.68828125 8.42164063 -2.1265625 9.21828125 -2.578125 10.0390625 C-4 12 -4 12 -7 13 C-5.35821735 8.22390502 -2.73453298 4.20617096 0 0 Z " fill="#356740" transform="translate(446,418)"/>
<path d="M0 0 C0.33 1.32 0.66 2.64 1 4 C-0.65 5.32 -2.3 6.64 -4 8 C-4.33 7.34 -4.66 6.68 -5 6 C-4.67 5.34 -4.34 4.68 -4 4 C-4.99 3.67 -5.98 3.34 -7 3 C-5.5459375 2.814375 -5.5459375 2.814375 -4.0625 2.625 C-2.5465625 2.315625 -2.5465625 2.315625 -1 2 C-0.67 1.34 -0.34 0.68 0 0 Z " fill="#4D7F52" transform="translate(598,480)"/>
<path d="M0 0 C0.95465783 2.16967689 1.14401212 3.56328793 0.3984375 5.82421875 C-0.35870385 7.5684743 -1.17609198 9.28627131 -2 11 C-2.33 11 -2.66 11 -3 11 C-2.88590407 9.54077307 -2.75834456 8.08259402 -2.625 6.625 C-2.55539062 5.81289063 -2.48578125 5.00078125 -2.4140625 4.1640625 C-2 2 -2 2 0 0 Z " fill="#356741" transform="translate(486,395)"/>
<path d="M0 0 C0.33 0 0.66 0 1 0 C0.5317879 4.77576339 -0.24331998 8.04476345 -3 12 C-4.21386936 8.35839192 -3.6674695 7.66834531 -2.0625 4.3125 C-1.49208984 3.10013672 -1.49208984 3.10013672 -0.91015625 1.86328125 C-0.60980469 1.24839844 -0.30945313 0.63351562 0 0 Z " fill="#386A43" transform="translate(537,370)"/>
<path d="M0 0 C0.99 0 1.98 0 3 0 C5.25 2.75 5.25 2.75 7 6 C6.67 7.32 6.34 8.64 6 10 C4.02 6.7 2.04 3.4 0 0 Z " fill="#396A41" transform="translate(600,348)"/>
<path d="M0 0 C0.99 0 1.98 0 3 0 C3.28875 0.969375 3.5775 1.93875 3.875 2.9375 C4.64214682 6.10664203 4.64214682 6.10664203 7 7 C6.34 7 5.68 7 5 7 C4.67 7.99 4.34 8.98 4 10 C2.68 6.7 1.36 3.4 0 0 Z " fill="#4B784C" transform="translate(503,300)"/>
<path d="M0 0 C0 4.24645065 -1.81750806 6.38524772 -4 10 C-4.6875 8.3125 -4.6875 8.3125 -5 6 C-2.73846154 1.36923077 -2.73846154 1.36923077 0 0 Z " fill="#386940" transform="translate(497,374)"/>
<path d="M0 0 C4.40114397 0.50298788 6.71195019 2.08772731 10 5 C6.28111761 4.49287967 3.26545761 3.88391785 0 2 C0 1.34 0 0.68 0 0 Z " fill="#477546" transform="translate(504,284)"/>
<path d="M0 0 C0.99 0.33 1.98 0.66 3 1 C0.69 3.31 -1.62 5.62 -4 8 C-4.33 7.01 -4.66 6.02 -5 5 C-4.360625 4.731875 -3.72125 4.46375 -3.0625 4.1875 C-0.66868314 3.11332248 -0.66868314 3.11332248 0 0 Z " fill="#3E6C41" transform="translate(679,666)"/>
<path d="M0 0 C0.75 1.625 0.75 1.625 1 4 C-0.9375 7.25 -0.9375 7.25 -3 10 C-3.75 8.375 -3.75 8.375 -4 6 C-2.0625 2.75 -2.0625 2.75 0 0 Z " fill="#406D41" transform="translate(708,627)"/>
<path d="M0 0 C4.95 0.99 4.95 0.99 10 2 C5.82091936 4.08954032 5.19589427 4.16552619 1 3 C0.67 2.01 0.34 1.02 0 0 Z " fill="#4F7E4F" transform="translate(694,523)"/>
<path d="M0 0 C0.99 0.33 1.98 0.66 3 1 C3.33 3.64 3.66 6.28 4 9 C1.49701566 6.06171403 0.53069061 3.82097239 0 0 Z " fill="#4F794A" transform="translate(304,608)"/>
<path d="M0 0 C2 2 2 2 2 5 C1.34 5 0.68 5 0 5 C0 5.66 0 6.32 0 7 C-0.99 7.33 -1.98 7.66 -3 8 C-1.125 2.25 -1.125 2.25 0 0 Z " fill="#4B7A4E" transform="translate(488,388)"/>
<path d="M0 0 C3.36720387 1.39332574 4.9859524 2.9789286 7 6 C3.75728494 5.4409112 2.06942576 4.5867822 0 2 C0 1.34 0 0.68 0 0 Z " fill="#32613B" transform="translate(353,676)"/>
<path d="M0 0 C0.33 0.99 0.66 1.98 1 3 C-0.4375 5.6875 -0.4375 5.6875 -2 8 C-2.99 7.67 -3.98 7.34 -5 7 C-3.35 4.69 -1.7 2.38 0 0 Z " fill="#36643C" transform="translate(700,640)"/>
<path d="M0 0 C0.33 0.99 0.66 1.98 1 3 C1.66 3 2.32 3 3 3 C3.625 4.8125 3.625 4.8125 4 7 C3.01 8.485 3.01 8.485 2 10 C2 9.01 2 8.02 2 7 C1.34 6.67 0.68 6.34 0 6 C0 4.02 0 2.04 0 0 Z " fill="#56814E" transform="translate(410,451)"/>
<path d="M0 0 C0.99 0.33 1.98 0.66 3 1 C2.34 1 1.68 1 1 1 C0.67 1.66 0.34 2.32 0 3 C0 2.01 0 1.02 0 0 Z " fill="#6B9353" transform="translate(408,416)"/>
<path d="M0 0 C0.99 0.33 1.98 0.66 3 1 C2.01 1.33 1.02 1.66 0 2 C0 1.34 0 0.68 0 0 Z " fill="#688C4C" transform="translate(368,693)"/>
<path d="M0 0 C0.99 1.485 0.99 1.485 2 3 C1.34 3 0.68 3 0 3 C0 2.01 0 1.02 0 0 Z " fill="#688E4D" transform="translate(308,621)"/>
<path d="M0 0 C0.99 0.495 0.99 0.495 2 1 C1.34 1.66 0.68 2.32 0 3 C0 2.01 0 1.02 0 0 Z " fill="#698E4D" transform="translate(304,616)"/>
<path d="M0 0 C0.66 0.66 1.32 1.32 2 2 C1.01 1.67 0.02 1.34 -1 1 C-0.67 0.67 -0.34 0.34 0 0 Z " fill="#6C9258" transform="translate(369,512)"/>
<path d="M0 0 C4 1 4 1 4 1 Z " fill="#6D9459" transform="translate(376,512)"/>
<path d="M0 0 C1 4 1 4 1 4 Z " fill="#658F54" transform="translate(432,374)"/>
<path d="M0 0 C3 1 3 1 3 1 Z " fill="#678941" transform="translate(526,747)"/>
<path d="M0 0 C3 1 3 1 3 1 Z " fill="#688A42" transform="translate(486,747)"/>
<path d="M0 0 C0.66 0 1.32 0 2 0 C1.67 0.66 1.34 1.32 1 2 C0.67 1.34 0.34 0.68 0 0 Z " fill="#688A43" transform="translate(478,747)"/>
<path d="M0 0 C3 1 3 1 3 1 Z " fill="#5D8C57" transform="translate(625,541)"/>
<path d="M0 0 C3 1 3 1 3 1 Z " fill="#5E8C57" transform="translate(393,541)"/>
<path d="M0 0 C3 1 3 1 3 1 Z " fill="#719456" transform="translate(328,520)"/>
<path d="M0 0 C0.99 0.495 0.99 0.495 2 1 C1.01 1.495 1.01 1.495 0 2 C0 1.34 0 0.68 0 0 Z " fill="#608C56" transform="translate(482,451)"/>
<path d="" fill="#649159" transform="translate(0,0)"/>
<path d="" fill="#618E56" transform="translate(0,0)"/>
<path d="M0 0 C2 1 2 1 2 1 Z " fill="#688943" transform="translate(542,747)"/>
<path d="M0 0 C2 1 2 1 2 1 Z " fill="#688943" transform="translate(535,747)"/>
<path d="M0 0 C2 1 2 1 2 1 Z " fill="#678942" transform="translate(518,747)"/>
<path d="M0 0 C2 1 2 1 2 1 Z " fill="#698746" transform="translate(614,743)"/>
<path d="M0 0 C2 1 2 1 2 1 Z " fill="#678943" transform="translate(395,733)"/>
<path d="M0 0 C2 1 2 1 2 1 Z " fill="#60854A" transform="translate(393,709)"/>
<path d="" fill="#678D4D" transform="translate(0,0)"/>
<path d="" fill="#6A8F4D" transform="translate(0,0)"/>
<path d="" fill="#6B8D4E" transform="translate(0,0)"/>
<path d="" fill="#658D4D" transform="translate(0,0)"/>
<path d="M0 0 C2 1 2 1 2 1 Z " fill="#598752" transform="translate(412,564)"/>
<path d="M0 0 C2 1 2 1 2 1 Z " fill="#5E8B58" transform="translate(640,560)"/>
<path d="M0 0 C2 1 2 1 2 1 Z " fill="#5B8957" transform="translate(370,560)"/>
<path d="M0 0 C2 1 2 1 2 1 Z " fill="#5E8D59" transform="translate(337,554)"/>
<path d="M0 0 C2 1 2 1 2 1 Z " fill="#5F8D58" transform="translate(644,543)"/>
<path d="M0 0 C2 1 2 1 2 1 Z " fill="#5D8A57" transform="translate(635,542)"/>
<path d="M0 0 C2 1 2 1 2 1 Z " fill="#5E8D59" transform="translate(387,542)"/>
<path d="M0 0 C2 1 2 1 2 1 Z " fill="#618F59" transform="translate(409,540)"/>
<path d="" fill="#73944E" transform="translate(0,0)"/>
<path d="M0 0 C2 1 2 1 2 1 Z " fill="#6B9051" transform="translate(715,528)"/>
<path d="M0 0 C2 1 2 1 2 1 Z " fill="#729455" transform="translate(320,522)"/>
<path d="M0 0 C2 1 2 1 2 1 Z " fill="#6A9258" transform="translate(640,512)"/>
<path d="M0 0 C2 1 2 1 2 1 Z " fill="#628F54" transform="translate(580,508)"/>
<path d="M0 0 C2 1 2 1 2 1 Z " fill="#659158" transform="translate(428,508)"/>
<path d="M0 0 C2 1 2 1 2 1 Z " fill="#5F8E57" transform="translate(512,506)"/>
<path d="" fill="#628D51" transform="translate(0,0)"/>
<path d="" fill="#5F8C56" transform="translate(0,0)"/>
<path d="" fill="#689052" transform="translate(0,0)"/>
<path d="" fill="#6A9554" transform="translate(0,0)"/>
<path d="" fill="#608C57" transform="translate(0,0)"/>
<path d="" fill="#608E56" transform="translate(0,0)"/>
<path d="M0 0 C2 1 2 1 2 1 Z " fill="#628F59" transform="translate(496,368)"/>
<path d="" fill="#629158" transform="translate(0,0)"/>
<path d="" fill="#648D56" transform="translate(0,0)"/>
<path d="" fill="#688F50" transform="translate(0,0)"/>
<path d="" fill="#639159" transform="translate(0,0)"/>
<path d="" fill="#648D55" transform="translate(0,0)"/>
<path d="" fill="#668F58" transform="translate(0,0)"/>
<path d="" fill="#658D57" transform="translate(0,0)"/>
<path d="" fill="#6C8942" transform="translate(0,0)"/>
<path d="" fill="#678941" transform="translate(0,0)"/>
<path d="" fill="#678943" transform="translate(0,0)"/>
<path d="" fill="#678942" transform="translate(0,0)"/>
<path d="" fill="#688944" transform="translate(0,0)"/>
<path d="" fill="#698A42" transform="translate(0,0)"/>
<path d="" fill="#6A8C43" transform="translate(0,0)"/>
<path d="" fill="#6C8C46" transform="translate(0,0)"/>
<path d="" fill="#6A8B46" transform="translate(0,0)"/>
<path d="" fill="#668B48" transform="translate(0,0)"/>
<path d="" fill="#638948" transform="translate(0,0)"/>
<path d="" fill="#628A48" transform="translate(0,0)"/>
<path d="" fill="#608746" transform="translate(0,0)"/>
<path d="" fill="#61854B" transform="translate(0,0)"/>
<path d="" fill="#60844A" transform="translate(0,0)"/>
<path d="" fill="#688B49" transform="translate(0,0)"/>
<path d="" fill="#678B4D" transform="translate(0,0)"/>
<path d="" fill="#6D8D4E" transform="translate(0,0)"/>
<path d="" fill="#678B4A" transform="translate(0,0)"/>
<path d="" fill="#6B8D49" transform="translate(0,0)"/>
<path d="" fill="#6E8E4F" transform="translate(0,0)"/>
<path d="" fill="#739152" transform="translate(0,0)"/>
<path d="" fill="#678A4E" transform="translate(0,0)"/>
<path d="" fill="#688B49" transform="translate(0,0)"/>
<path d="" fill="#698F4B" transform="translate(0,0)"/>
<path d="" fill="#6D914E" transform="translate(0,0)"/>
<path d="" fill="#6C8F4D" transform="translate(0,0)"/>
<path d="" fill="#668B4A" transform="translate(0,0)"/>
<path d="" fill="#698E4D" transform="translate(0,0)"/>
<path d="" fill="#668C4C" transform="translate(0,0)"/>
<path d="" fill="#6C9150" transform="translate(0,0)"/>
<path d="" fill="#6B904F" transform="translate(0,0)"/>
<path d="" fill="#689050" transform="translate(0,0)"/>
<path d="" fill="#699050" transform="translate(0,0)"/>
<path d="" fill="#6A904F" transform="translate(0,0)"/>
<path d="" fill="#5E8A52" transform="translate(0,0)"/>
<path d="" fill="#5E8B55" transform="translate(0,0)"/>
<path d="" fill="#5B8A55" transform="translate(0,0)"/>
<path d="" fill="#5D8B57" transform="translate(0,0)"/>
<path d="" fill="#5C8C58" transform="translate(0,0)"/>
<path d="" fill="#6C904E" transform="translate(0,0)"/>
<path d="" fill="#578654" transform="translate(0,0)"/>
<path d="" fill="#5C8A58" transform="translate(0,0)"/>
<path d="" fill="#5B8959" transform="translate(0,0)"/>
<path d="" fill="#5A8C59" transform="translate(0,0)"/>
<path d="" fill="#5E8D59" transform="translate(0,0)"/>
<path d="" fill="#5E8858" transform="translate(0,0)"/>
<path d="" fill="#5E8C59" transform="translate(0,0)"/>
<path d="" fill="#628F5A" transform="translate(0,0)"/>
<path d="" fill="#5F8C5A" transform="translate(0,0)"/>
<path d="" fill="#5E8B56" transform="translate(0,0)"/>
<path d="" fill="#648D56" transform="translate(0,0)"/>
<path d="" fill="#628D5A" transform="translate(0,0)"/>
<path d="" fill="#62905A" transform="translate(0,0)"/>
<path d="" fill="#648D57" transform="translate(0,0)"/>
<path d="" fill="#618E5A" transform="translate(0,0)"/>
<path d="" fill="#608C58" transform="translate(0,0)"/>
<path d="" fill="#608D59" transform="translate(0,0)"/>
<path d="" fill="#608F56" transform="translate(0,0)"/>
<path d="" fill="#618E59" transform="translate(0,0)"/>
<path d="" fill="#6E934C" transform="translate(0,0)"/>
<path d="" fill="#70934D" transform="translate(0,0)"/>
<path d="" fill="#628F58" transform="translate(0,0)"/>
<path d="" fill="#658E5A" transform="translate(0,0)"/>
<path d="" fill="#5E8A58" transform="translate(0,0)"/>
<path d="" fill="#618B59" transform="translate(0,0)"/>
<path d="" fill="#5C8B58" transform="translate(0,0)"/>
<path d="" fill="#5F8C5A" transform="translate(0,0)"/>
<path d="" fill="#608D5A" transform="translate(0,0)"/>
<path d="" fill="#5D8E56" transform="translate(0,0)"/>
<path d="" fill="#5E8E58" transform="translate(0,0)"/>
<path d="" fill="#608E57" transform="translate(0,0)"/>
<path d="" fill="#5E8C56" transform="translate(0,0)"/>
<path d="" fill="#5E8D57" transform="translate(0,0)"/>
<path d="" fill="#72974F" transform="translate(0,0)"/>
<path d="" fill="#72954F" transform="translate(0,0)"/>
<path d="" fill="#73974E" transform="translate(0,0)"/>
<path d="" fill="#739452" transform="translate(0,0)"/>
<path d="" fill="#74944F" transform="translate(0,0)"/>
<path d="" fill="#6E9354" transform="translate(0,0)"/>
<path d="" fill="#6D9354" transform="translate(0,0)"/>
<path d="" fill="#6D9452" transform="translate(0,0)"/>
<path d="" fill="#719652" transform="translate(0,0)"/>
<path d="" fill="#6B9351" transform="translate(0,0)"/>
<path d="" fill="#6F9754" transform="translate(0,0)"/>
<path d="" fill="#648F57" transform="translate(0,0)"/>
<path d="" fill="#639057" transform="translate(0,0)"/>
<path d="" fill="#629058" transform="translate(0,0)"/>
<path d="" fill="#639159" transform="translate(0,0)"/>
<path d="" fill="#66915B" transform="translate(0,0)"/>
<path d="" fill="#608E58" transform="translate(0,0)"/>
<path d="" fill="#608B56" transform="translate(0,0)"/>
<path d="" fill="#659157" transform="translate(0,0)"/>
<path d="" fill="#648C53" transform="translate(0,0)"/>
<path d="" fill="#629057" transform="translate(0,0)"/>
<path d="" fill="#619057" transform="translate(0,0)"/>
<path d="" fill="#678F57" transform="translate(0,0)"/>
<path d="" fill="#5F8D52" transform="translate(0,0)"/>
<path d="" fill="#6A9256" transform="translate(0,0)"/>
<path d="" fill="#658B54" transform="translate(0,0)"/>
<path d="" fill="#658F54" transform="translate(0,0)"/>
<path d="" fill="#668D56" transform="translate(0,0)"/>
<path d="" fill="#689053" transform="translate(0,0)"/>
<path d="" fill="#658F51" transform="translate(0,0)"/>
<path d="" fill="#638D53" transform="translate(0,0)"/>
<path d="" fill="#628A52" transform="translate(0,0)"/>
<path d="" fill="#5F8D55" transform="translate(0,0)"/>
<path d="" fill="#618D54" transform="translate(0,0)"/>
<path d="" fill="#68914F" transform="translate(0,0)"/>
<path d="" fill="#618D55" transform="translate(0,0)"/>
<path d="" fill="#668D56" transform="translate(0,0)"/>
<path d="" fill="#659051" transform="translate(0,0)"/>
<path d="" fill="#619056" transform="translate(0,0)"/>
<path d="" fill="#678E50" transform="translate(0,0)"/>
<path d="" fill="#608C55" transform="translate(0,0)"/>
<path d="" fill="#638F56" transform="translate(0,0)"/>
<path d="" fill="#618D56" transform="translate(0,0)"/>
<path d="" fill="#5C8A53" transform="translate(0,0)"/>
<path d="" fill="#638D56" transform="translate(0,0)"/>
<path d="" fill="#618C53" transform="translate(0,0)"/>
<path d="" fill="#648C56" transform="translate(0,0)"/>
<path d="" fill="#648F55" transform="translate(0,0)"/>
<path d="" fill="#608955" transform="translate(0,0)"/>
<path d="" fill="#628B57" transform="translate(0,0)"/>
<path d="" fill="#618D54" transform="translate(0,0)"/>
<path d="" fill="#66935A" transform="translate(0,0)"/>
<path d="" fill="#649157" transform="translate(0,0)"/>
<path d="" fill="#64905A" transform="translate(0,0)"/>
<path d="" fill="#5C8D55" transform="translate(0,0)"/>
<path d="" fill="#5E8F51" transform="translate(0,0)"/>
<path d="" fill="#689051" transform="translate(0,0)"/>
<path d="" fill="#639055" transform="translate(0,0)"/>
<path d="" fill="#668F58" transform="translate(0,0)"/>
<path d="" fill="#6B9155" transform="translate(0,0)"/>
<path d="" fill="#608852" transform="translate(0,0)"/>
<path d="" fill="#618D55" transform="translate(0,0)"/>
<path d="" fill="#639058" transform="translate(0,0)"/>
<path d="" fill="#618E56" transform="translate(0,0)"/>
<path d="" fill="#618B55" transform="translate(0,0)"/>
<path d="" fill="#648F5B" transform="translate(0,0)"/>
<path d="" fill="#699254" transform="translate(0,0)"/>
<path d="" fill="#638E57" transform="translate(0,0)"/>
<path d="" fill="#669157" transform="translate(0,0)"/>
<path d="" fill="#618D55" transform="translate(0,0)"/>
<path d="" fill="#608D56" transform="translate(0,0)"/>
<path d="" fill="#6C9553" transform="translate(0,0)"/>
<path d="" fill="#658F55" transform="translate(0,0)"/>
<path d="" fill="#6D9453" transform="translate(0,0)"/>
<path d="" fill="#629058" transform="translate(0,0)"/>
<path d="" fill="#648B53" transform="translate(0,0)"/>
<path d="" fill="#5B8653" transform="translate(0,0)"/>
<path d="" fill="#638F57" transform="translate(0,0)"/>
<path d="" fill="#6B9152" transform="translate(0,0)"/>
<path d="" fill="#638E57" transform="translate(0,0)"/>
<path d="" fill="#678E51" transform="translate(0,0)"/>
<path d="" fill="#618B54" transform="translate(0,0)"/>
<path d="" fill="#6C9053" transform="translate(0,0)"/>
<path d="" fill="#638D56" transform="translate(0,0)"/>
<path d="" fill="#6B9053" transform="translate(0,0)"/>
<path d="" fill="#70965B" transform="translate(0,0)"/>
<path d="" fill="#6D9455" transform="translate(0,0)"/>
<path d="" fill="#6F944E" transform="translate(0,0)"/>
<path d="" fill="#6A9150" transform="translate(0,0)"/>
<path d="" fill="#74984F" transform="translate(0,0)"/>
<path d="" fill="#6D9251" transform="translate(0,0)"/>
<path d="" fill="#6C9050" transform="translate(0,0)"/>
<path d="" fill="#719552" transform="translate(0,0)"/>
<path d="" fill="#6F9354" transform="translate(0,0)"/>
<path d="" fill="#608D54" transform="translate(0,0)"/>
<path d="" fill="#689353" transform="translate(0,0)"/>
<path d="" fill="#658D55" transform="translate(0,0)"/>
<path d="" fill="#6C9253" transform="translate(0,0)"/>
<path d="" fill="#6F944E" transform="translate(0,0)"/>
</svg>
