<?xml version="1.0" encoding="UTF-8"?>
<svg version="1.1" xmlns="http://www.w3.org/2000/svg" width="1024" height="1024">
<path d="M0 0 C3.74839754 1.05337521 3.74839754 1.05337521 7.5390625 1.4140625 C11.0333855 2.01537199 12.10997928 2.77592439 14.78515625 4.97265625 C17.27388664 6.23663982 19.76675312 7.45920427 22.28515625 8.66015625 C33.77696836 14.29649225 43.51579082 21.13037762 52.78515625 29.97265625 C53.43742187 30.53855469 54.0896875 31.10445312 54.76171875 31.6875 C64.18356669 40.23695462 71.49300923 52.48113701 76.78515625 63.97265625 C76.78515625 64.63265625 76.78515625 65.29265625 76.78515625 65.97265625 C77.44515625 66.30265625 78.10515625 66.63265625 78.78515625 66.97265625 C90.17648778 92.884806 89.0885943 126.04410606 79.26171875 152.125 C77.83739146 155.76995935 76.31981854 159.372777 74.78515625 162.97265625 C74.11389338 164.63747708 73.44531382 166.30340067 72.78515625 167.97265625 C73.9246875 168.483125 75.06421875 168.99359375 76.23828125 169.51953125 C104.71592101 182.5018057 128.71714323 199.90464323 150.78515625 221.97265625 C151.46835937 222.62105469 152.1515625 223.26945313 152.85546875 223.9375 C180.97607723 250.93542259 198.65857119 288.21259616 209.78515625 324.97265625 C210.02492188 325.7601123 210.2646875 326.54756836 210.51171875 327.35888672 C217.00689438 349.23385718 217.97983545 372.67268831 217.84765625 395.34765625 C217.84262356 396.87369642 217.83806383 398.39973823 217.83398438 399.92578125 C217.82313644 403.60810779 217.80597279 407.29037094 217.78515625 410.97265625 C217.12515625 410.97265625 216.46515625 410.97265625 215.78515625 410.97265625 C215.83736328 412.87917969 215.83736328 412.87917969 215.890625 414.82421875 C215.88544336 420.13228986 215.09024513 425.14447928 214.09765625 430.34765625 C213.82646973 431.7872168 213.82646973 431.7872168 213.54980469 433.25585938 C202.36838518 490.97255633 171.82153293 540.50595305 126.78515625 577.97265625 C133.24640847 592.62552454 140.0606896 607.10324627 146.93139648 621.56738281 C147.29443375 622.33271835 147.65747101 623.09805389 148.0315094 623.88658142 C148.7142644 625.32559495 149.39813215 626.76408131 150.08335876 628.20191956 C157.12170506 643.03773319 157.12170506 643.03773319 155.78515625 649.97265625 C154.09358447 653.37025769 151.84005657 655.47512628 148.375 657.109375 C143.07540294 658.38381564 137.90468867 658.34129928 132.47265625 658.34765625 C131.38275391 658.37214844 130.29285156 658.39664063 129.16992188 658.421875 C119.68535259 658.45609473 112.85227043 656.44260367 105.92382812 649.85742188 C105.44494141 649.37982422 104.96605469 648.90222656 104.47265625 648.41015625 C100.61607392 644.64423471 100.61607392 644.64423471 96.4296875 641.2578125 C95.88699219 640.83371094 95.34429688 640.40960937 94.78515625 639.97265625 C94.78515625 639.31265625 94.78515625 638.65265625 94.78515625 637.97265625 C93.96724609 637.6478125 93.96724609 637.6478125 93.1328125 637.31640625 C89.99655801 635.52127889 87.69914277 633.05943165 85.22265625 630.47265625 C82.53604512 627.68893869 80.02675792 625.13372403 76.78515625 622.97265625 C76.78515625 622.31265625 76.78515625 621.65265625 76.78515625 620.97265625 C76.20765625 620.68390625 75.63015625 620.39515625 75.03515625 620.09765625 C72.95182292 619.05598958 70.86848958 618.01432292 68.78515625 616.97265625 C68.78515625 615.98265625 68.78515625 614.99265625 68.78515625 613.97265625 C64.87701179 614.65461434 61.28266936 615.76488302 57.54296875 617.08203125 C27.53491361 627.48170591 -2.29050878 633.78086726 -34.21484375 632.97265625 C-35.51035156 632.94429687 -36.80585938 632.9159375 -38.140625 632.88671875 C-56.17893888 632.2922318 -74.05115534 629.09334788 -91.49145508 624.54785156 C-95.84829468 623.42911456 -99.67046685 622.70836292 -104.21484375 622.97265625 C-104.54484375 622.31265625 -104.87484375 621.65265625 -105.21484375 620.97265625 C-107.71381039 619.79807496 -107.71381039 619.79807496 -110.65234375 618.78515625 C-111.64105469 618.42035156 -112.62976563 618.05554688 -113.6484375 617.6796875 C-116.17730635 616.67525801 -116.17730635 616.67525801 -118.21484375 617.97265625 C-118.95734375 617.29203125 -119.69984375 616.61140625 -120.46484375 615.91015625 C-122.90579457 613.77777244 -122.90579457 613.77777244 -125.05859375 614.03125 C-128.22721197 615.41465034 -130.08751848 617.6048609 -132.46484375 620.09765625 C-135.57267467 623.30822539 -138.66936517 626.46572111 -142.08984375 629.34765625 C-146.61293727 633.18286263 -150.70859501 637.44307258 -154.82373047 641.70654297 C-156.25130612 643.16484671 -157.72933256 644.57341412 -159.21484375 645.97265625 C-159.87484375 645.97265625 -160.53484375 645.97265625 -161.21484375 645.97265625 C-161.54484375 646.96265625 -161.87484375 647.95265625 -162.21484375 648.97265625 C-164.2890625 650.7265625 -164.2890625 650.7265625 -166.90234375 652.53515625 C-167.75183594 653.13457031 -168.60132813 653.73398437 -169.4765625 654.3515625 C-176.37516558 658.43561425 -182.82603998 658.30786752 -190.65234375 658.28515625 C-192.31233398 658.30932617 -192.31233398 658.30932617 -194.00585938 658.33398438 C-200.1762642 658.3376726 -204.82042542 658.07407932 -210.21484375 654.97265625 C-213.74733658 651.07785646 -214.55347667 648.2894844 -214.43994141 643.07104492 C-214.08079795 639.72306441 -212.84307092 637.01210641 -211.43359375 633.97265625 C-211.14440567 633.33896622 -210.85521759 632.70527618 -210.55726624 632.05238342 C-209.62440216 630.0186809 -208.67027271 627.99584184 -207.71484375 625.97265625 C-207.06524513 624.5687771 -206.41673019 623.16439602 -205.76928711 621.75952148 C-201.99140486 613.59679163 -198.07258808 605.51162629 -193.96875 597.5078125 C-190.79516477 591.11116521 -188.01011334 584.54153978 -185.21484375 577.97265625 C-186.05144531 577.28042969 -186.88804687 576.58820312 -187.75 575.875 C-210.50129766 556.83793016 -229.57885541 534.63372887 -244.20605469 508.75537109 C-245.18603216 507.02357161 -246.18841102 505.30450838 -247.19140625 503.5859375 C-266.96144837 468.91459498 -275.70428088 428.05637269 -275.52734375 388.41015625 C-275.52411102 387.09830353 -275.52411102 387.09830353 -275.52081299 385.75994873 C-275.46524171 371.65351642 -274.86748522 357.86267825 -272.21484375 343.97265625 C-272.01616699 342.93044922 -271.81749023 341.88824219 -271.61279297 340.81445312 C-263.31304832 298.86188615 -244.04388356 260.36967045 -215.56835938 228.49365234 C-214.33711321 227.11005501 -213.12634898 225.70829923 -211.91796875 224.3046875 C-191.04431705 200.34569677 -162.79804571 180.5307629 -133.21484375 168.97265625 C-132.55484375 168.97265625 -131.89484375 168.97265625 -131.21484375 168.97265625 C-131.6015625 167.96847656 -131.98828125 166.96429688 -132.38671875 165.9296875 C-145.08437736 132.71633972 -150.23088469 98.47198879 -135.55395508 64.84960938 C-129.39336343 51.50375482 -121.53182664 40.3830055 -111.21484375 29.97265625 C-110.51488281 29.22371094 -109.81492187 28.47476563 -109.09375 27.703125 C-99.76108403 17.88223103 -88.13582171 12.04882377 -76.21484375 5.97265625 C-75.1371875 5.410625 -74.05953125 4.84859375 -72.94921875 4.26953125 C-70.60927445 3.1597291 -68.70373345 2.56456565 -66.21484375 1.97265625 C-64.90394355 1.5788488 -63.59410006 1.18151207 -62.28515625 0.78125 C-42.09001573 -4.99445173 -20.35144692 -5.32784383 0 0 Z M-89.21484375 51.97265625 C-89.82972656 52.51277344 -90.44460938 53.05289063 -91.078125 53.609375 C-104.05422603 65.45193157 -112.20419417 84.49598064 -113.41821289 101.88574219 C-114.03151894 121.02580978 -113.13479814 142.45295494 -100.21484375 157.97265625 C-98.64863281 157.60914063 -98.64863281 157.60914063 -97.05078125 157.23828125 C-84.83522039 154.44374328 -72.55683673 152.13450351 -60.21484375 149.97265625 C-60.18799696 147.32675611 -60.16808018 144.68112529 -60.15234375 142.03515625 C-60.13977539 140.90303711 -60.13977539 140.90303711 -60.12695312 139.74804688 C-60.11831934 137.82271312 -60.16260042 135.89730044 -60.21484375 133.97265625 C-61.4033723 132.55490787 -61.4033723 132.55490787 -64.8125 132.875 C-66.30081242 132.88167405 -67.78910807 132.89363442 -69.27734375 132.91015625 C-70.03595703 132.91466797 -70.79457031 132.91917969 -71.57617188 132.92382812 C-73.45576246 132.93564945 -75.33531274 132.95358547 -77.21484375 132.97265625 C-77.21484375 133.63265625 -77.21484375 134.29265625 -77.21484375 134.97265625 C-77.87484375 134.97265625 -78.53484375 134.97265625 -79.21484375 134.97265625 C-79.53333879 98.58092257 -79.53333879 98.58092257 -74.21484375 91.97265625 C-60.23634092 78.80412274 -41.15835769 81.73430671 -23.21484375 81.97265625 C-21.61987061 81.98353271 -21.61987061 81.98353271 -19.99267578 81.99462891 C-16.79482181 82.02303929 -13.59945346 82.08684863 -10.40234375 82.16015625 C-9.43119629 82.1657959 -8.46004883 82.17143555 -7.45947266 82.17724609 C1.05336108 82.44341001 8.25157268 85.04331443 14.22265625 91.28515625 C20.91475512 99.21579282 20.15438657 108.73922598 19.97265625 118.47265625 C19.95758238 119.88149611 19.94389875 121.29035157 19.93164062 122.69921875 C19.8964559 126.12386527 19.84265457 129.54831169 19.78515625 132.97265625 C13.51515625 132.97265625 7.24515625 132.97265625 0.78515625 132.97265625 C1.44515625 133.30265625 2.10515625 133.63265625 2.78515625 133.97265625 C1.79515625 134.46765625 1.79515625 134.46765625 0.78515625 134.97265625 C0.78515625 139.92265625 0.78515625 144.87265625 0.78515625 149.97265625 C4.9985008 150.79113125 9.21192162 151.60919328 13.42553711 152.42626953 C14.85396739 152.70338212 16.2823541 152.98071943 17.71069336 153.25830078 C26.05980336 154.88068133 34.41176416 156.47935496 42.78515625 157.97265625 C50.85027401 142.89949927 56.00423352 128.73605422 55.91015625 111.41015625 C55.91402344 110.69408203 55.91789063 109.97800781 55.921875 109.24023438 C56.35211128 101.53859706 56.35211128 101.53859706 53.78515625 94.97265625 C53.66140625 93.79058594 53.53765625 92.60851562 53.41015625 91.390625 C52.89956602 86.97892905 51.60290007 83.31608995 49.78515625 79.28515625 C49.47537842 78.59454102 49.16560059 77.90392578 48.84643555 77.19238281 C38.83644152 55.6720098 21.5664339 40.73742337 -0.21484375 31.97265625 C-3.22817965 31.0996337 -6.11900322 30.50642186 -9.21484375 29.97265625 C-9.70984375 29.47765625 -9.70984375 29.47765625 -10.21484375 28.97265625 C-11.87568266 28.73910078 -13.54433891 28.55964745 -15.21484375 28.41015625 C-16.12234375 28.32636719 -17.02984375 28.24257812 -17.96484375 28.15625 C-19.58804661 28.02033081 -19.58804661 28.02033081 -21.21484375 27.97265625 C-22.20484375 27.47765625 -22.20484375 27.47765625 -23.21484375 26.97265625 C-48.41394205 24.90585323 -71.27688583 34.83742967 -89.21484375 51.97265625 Z M-56.21484375 200.97265625 C-57.86467234 201.13265776 -59.51776225 201.26020207 -61.171875 201.3671875 C-67.25735428 201.88422822 -72.9963482 203.14029099 -78.90234375 204.66015625 C-79.95252686 204.92852295 -81.00270996 205.19688965 -82.0847168 205.47338867 C-90.72618001 207.73957845 -99.02205353 210.41377018 -107.21484375 213.97265625 C-108.33318604 214.45774658 -108.33318604 214.45774658 -109.47412109 214.95263672 C-132.36550077 225.03725561 -153.01806744 238.72301609 -170.21484375 256.97265625 C-171.88151042 258.63932292 -173.54817708 260.30598958 -175.21484375 261.97265625 C-186.37524058 273.59518131 -194.67417818 286.83107773 -202.21484375 300.97265625 C-203.03082031 302.46345703 -203.03082031 302.46345703 -203.86328125 303.984375 C-226.18801404 346.33049513 -227.66224396 399.30358683 -214.42871094 444.66748047 C-205.03542127 474.77662994 -188.86834065 500.24784691 -167.21484375 522.97265625 C-166.48910156 523.75125 -165.76335937 524.52984375 -165.015625 525.33203125 C-132.73153952 558.98863793 -84.15448965 577.17786941 -38.33984375 579.66015625 C-37.45256592 579.70873779 -36.56528809 579.75731934 -35.65112305 579.80737305 C-33.50725307 579.90592004 -31.36079972 579.94503503 -29.21484375 579.97265625 C-28.88484375 579.64265625 -28.55484375 579.31265625 -28.21484375 578.97265625 C-27.55484375 579.30265625 -26.89484375 579.63265625 -26.21484375 579.97265625 C-24.61193578 579.72873547 -23.0096315 579.48034369 -21.41015625 579.21484375 C-18.96643777 578.94525203 -16.6711828 579.05273617 -14.21484375 579.16015625 C-7.89165017 579.22410764 -1.86110861 578.24191106 4.34765625 577.16015625 C5.78334961 576.912052 5.78334961 576.912052 7.24804688 576.65893555 C43.63588295 570.0494749 78.02288876 552.39286312 104.78515625 526.97265625 C105.3069043 526.48345703 105.82865234 525.99425781 106.36621094 525.49023438 C137.21388475 496.4047762 154.41646158 459.32862696 161.78515625 417.97265625 C161.9864917 416.85455566 161.9864917 416.85455566 162.19189453 415.71386719 C170.46170448 367.35118115 157.18979469 317.64867673 129.53125 277.71875 C103.21162171 241.87828226 64.16104094 215.31919755 20.78515625 204.97265625 C20.16511719 204.81410156 19.54507813 204.65554688 18.90625 204.4921875 C-3.18763012 199.08061097 -34.13638734 193.61317078 -56.21484375 200.97265625 Z " fill="#2B8555" transform="translate(541.21484375,174.02734375)"/>
<path d="M0 0 C3.83495733 3.30232436 5.91217548 7.1271917 6.51953125 12.1796875 C6.27700821 18.85484548 2.95952879 22.51778836 -1.75 26.9375 C-3.74630067 28.74952676 -5.76459021 30.52203251 -7.82421875 32.26171875 C-9.69261313 33.88756295 -11.4081943 35.59136002 -13.125 37.375 C-15.75 39.9375 -15.75 39.9375 -17.75 39.9375 C-18.08 40.9275 -18.41 41.9175 -18.75 42.9375 C-20.31640625 44.48046875 -20.31640625 44.48046875 -22.3125 46.125 C-25.26012642 48.62076212 -28.04574066 51.17969097 -30.75 53.9375 C-33.26955389 56.49619259 -35.83118782 58.91920611 -38.5625 61.25 C-41.95195561 64.16000413 -45.11452146 67.25909176 -48.25 70.4375 C-51.96142043 74.19966622 -55.7685842 77.76559836 -59.7890625 81.1953125 C-62.84049823 83.90634902 -65.66440352 86.8315703 -68.5 89.765625 C-70.63716894 91.82858668 -72.84674013 93.45371967 -75.25 95.1875 C-77.90418318 97.43415112 -78.66309053 98.48533587 -79.328125 101.9453125 C-79.44336301 104.20292985 -79.52371299 106.46258006 -79.5703125 108.72265625 C-80.03205498 116.98383157 -84.81303484 123.46009072 -90.75 128.9375 C-93.03396629 130.54774402 -95.22129618 131.69700378 -97.75 132.9375 C-98.68392578 133.45957031 -98.68392578 133.45957031 -99.63671875 133.9921875 C-106.64968595 137.12922643 -115.64532984 136.43622516 -122.75 133.9375 C-129.88674283 130.36326919 -136.72944243 124.87003761 -139.8125 117.34375 C-140.56436641 114.8857252 -141.19528572 112.44651538 -141.75 109.9375 C-141.96011719 109.24140625 -142.17023438 108.5453125 -142.38671875 107.828125 C-142.75 105.9375 -142.75 105.9375 -141.6875 102.9375 C-140.47399859 100.10708158 -140.47399859 100.10708158 -141.4296875 98.015625 C-143.00481574 95.53642908 -144.81529266 93.71839033 -146.9375 91.6875 C-149.81501117 88.8787192 -152.57989001 86.06083744 -155.1875 83 C-157.90619248 79.8271408 -160.77751675 76.87411618 -163.75 73.9375 C-167.25330234 70.47101916 -170.57382267 66.94083317 -173.7734375 63.1953125 C-175.85507761 60.81747064 -177.99966404 58.51002373 -180.15942383 56.20336914 C-182.71272025 53.4690101 -185.2356248 50.70763417 -187.75 47.9375 C-188.88501953 46.69033203 -188.88501953 46.69033203 -190.04296875 45.41796875 C-193.58580319 41.24692037 -195.88254506 37.72833855 -196.078125 32.14453125 C-195.45986307 27.98598377 -193.63097866 24.95297152 -190.75 21.9375 C-186.41589738 19.41584029 -182.7279288 18.04147282 -177.75 18.9375 C-171.4901044 22.07338698 -166.73394281 26.73196798 -161.921875 31.7265625 C-159.99701485 33.68604243 -158.03153177 35.47613011 -155.9375 37.25 C-152.3609785 40.31253039 -149.0563826 43.59054514 -145.75 46.9375 C-141.93219351 50.79720205 -138.10579064 54.54918471 -133.91015625 58.00390625 C-132.11031538 59.61497538 -130.54618034 61.23825515 -128.93359375 63.02734375 C-124.23609928 68.07847644 -119.94488569 72.49772031 -112.84057617 73.37744141 C-105.50282143 73.59473859 -100.85945155 71.33549098 -95.4375 66.5 C-93.70366016 64.85688012 -92.00629028 63.18623684 -90.32568359 61.48876953 C-88.10080053 59.2983594 -85.69519221 57.37580565 -83.25 55.4375 C-79.02207712 52.00542143 -74.87468204 48.49203161 -70.75 44.9375 C-65.76059233 40.63777287 -60.70778844 36.43264591 -55.59375 32.28125 C-52.27312625 29.54447219 -49.0097851 26.74618752 -45.75 23.9375 C-39.8263473 18.84086896 -33.85443485 13.81764708 -27.75 8.9375 C-26.92290527 8.27476074 -26.92290527 8.27476074 -26.07910156 7.59863281 C-24.33008649 6.20311107 -22.57278747 4.81876639 -20.8125 3.4375 C-20.26843506 3.00356934 -19.72437012 2.56963867 -19.16381836 2.12255859 C-12.90570744 -2.73759863 -7.3222097 -2.82903557 0 0 Z " fill="#2B8656" transform="translate(622.75,460.0625)"/>
<path d="M0 0 C0.7319458 -0.00241196 1.4638916 -0.00482391 2.21801758 -0.00730896 C3.75770514 -0.00633424 5.29742938 0.00696983 6.83691406 0.03198242 C9.18156046 0.06631927 11.52243681 0.05261982 13.8671875 0.03320312 C15.36980756 0.04010222 16.87241798 0.04977519 18.375 0.0625 C19.06891846 0.05754013 19.76283691 0.05258026 20.4777832 0.04747009 C25.47101129 0.16711917 28.32103831 1.53101062 32.1875 4.62890625 C35.66947331 9.38526173 34.63237646 16.04014573 34.1875 21.62890625 C32.96951162 25.34697605 32.13022247 26.90825547 29.06079102 29.25463867 C25.45919594 30.97724711 22.30925503 31.04319972 18.40234375 30.9921875 C17.29518761 30.99293526 17.29518761 30.99293526 16.16566467 30.99369812 C14.61163631 30.99136615 13.05760355 30.98168948 11.50366211 30.96508789 C9.12905035 30.94144657 6.75555937 30.94453932 4.38085938 30.95117188 C2.86718083 30.94559595 1.35350699 30.93848661 -0.16015625 30.9296875 C-0.86753433 30.93059891 -1.57491241 30.93151031 -2.3037262 30.93244934 C-5.96103695 30.87996798 -8.73495215 30.69198947 -11.8125 28.62890625 C-16.14273002 24.1394034 -15.79691153 18.56811294 -15.8125 12.62890625 C-15.07118367 7.43969195 -13.68890825 4.95334737 -9.58081055 1.67654419 C-6.54827294 -0.12008675 -3.41586069 -0.06526443 0 0 Z " fill="#2C8756" transform="translate(647.8125,547.37109375)"/>
<path d="M0 0 C5.87742295 6.66107934 4.10078434 18.45327444 3.8125 26.75 C3.79380859 27.85988281 3.77511719 28.96976562 3.75585938 30.11328125 C3.47977736 38.16325164 3.47977736 38.16325164 1.19921875 42.140625 C-4.65634494 47.09133249 -10.56765887 46.59162914 -18 46 C-21.73632492 44.77603149 -23.28878016 43.94554806 -25.62353516 40.84155273 C-27.3470888 37.28347526 -27.38797289 34.66955848 -27.3984375 30.72265625 C-27.40274277 29.68920326 -27.40274277 29.68920326 -27.40713501 28.63487244 C-27.40916863 27.18341242 -27.40368795 25.73192455 -27.39111328 24.28051758 C-27.37507227 22.07244812 -27.39097111 19.86621553 -27.41015625 17.65820312 C-27.40817321 16.2421835 -27.40432828 14.82616501 -27.3984375 13.41015625 C-27.39505371 12.13277588 -27.39166992 10.85539551 -27.38818359 9.53930664 C-26.96838333 5.71173157 -25.9844571 3.27753717 -24 0 C-17.01122433 -5.02812367 -7.07729546 -4.10483137 0 0 Z " fill="#2C8757" transform="translate(524,401)"/>
<path d="M0 0 C0.71353638 -0.00524185 1.42707275 -0.0104837 2.16223145 -0.0158844 C3.66494449 -0.02228369 5.16770777 -0.02099475 6.67041016 -0.01245117 C8.96217371 -0.0039307 11.25145043 -0.03274256 13.54296875 -0.06445312 C15.00781176 -0.0660652 16.47265915 -0.06548749 17.9375 -0.0625 C18.61784302 -0.07373398 19.29818604 -0.08496796 19.99914551 -0.09654236 C24.75307454 -0.02731146 27.10769602 1.11570998 30.46875 4.43359375 C34.04263675 9.48035504 33.02631579 16.57235337 32.46875 22.43359375 C31.33317198 25.69984392 29.69730302 27.61793111 26.77905273 29.55541992 C21.79265126 31.45081104 16.05750852 30.76499275 10.76977539 30.74926758 C8.54198215 30.74610897 6.31551972 30.76957715 4.08789062 30.79492188 C2.66406417 30.79719529 1.24023416 30.79789817 -0.18359375 30.796875 C-1.47257568 30.79985596 -2.76155762 30.80283691 -4.08959961 30.8059082 C-7.77129134 30.40762631 -9.62448845 29.68540324 -12.53125 27.43359375 C-16.08377631 21.4310493 -16.66547582 15.13755356 -15.02734375 8.34375 C-12.32235596 1.03255443 -7.15486528 -0.03087281 0 0 Z " fill="#2C8757" transform="translate(357.53125,547.56640625)"/>
<path d="M0 0 C2.47764605 1.96754245 3.43050576 4.24936712 3.9284668 7.34936523 C3.96625244 8.08356689 4.00403809 8.81776855 4.04296875 9.57421875 C4.10931519 10.80966431 4.10931519 10.80966431 4.17700195 12.07006836 C4.21140381 12.93897705 4.24580566 13.80788574 4.28125 14.703125 C4.31887451 15.59459229 4.35649902 16.48605957 4.39526367 17.40454102 C5.06578878 36.11675189 5.06578878 36.11675189 1.69921875 41.03125 C-2.33046041 45.30764421 -6.78011869 45.42477095 -12.40625 45.640625 C-17.76870055 45.5474807 -20.50904648 44.95771254 -24.40625 41.265625 C-27.82483508 36.15215465 -26.73951679 29.48244797 -26.72192383 23.56665039 C-26.71876522 21.33885715 -26.7422334 19.11239472 -26.76757812 16.88476562 C-26.76985154 15.46093917 -26.77055442 14.03710916 -26.76953125 12.61328125 C-26.77251221 11.32429932 -26.77549316 10.03531738 -26.77856445 8.70727539 C-26.38028256 5.02558366 -25.65805949 3.17238655 -23.40625 0.265625 C-15.75841491 -4.26064475 -7.81962707 -4.03800414 0 0 Z " fill="#2C8756" transform="translate(523.40625,680.734375)"/>
<path d="M0 0 C0.33 0 0.66 0 1 0 C1.82147238 4.99989592 2.1358223 9.83177018 2.09765625 14.90234375 C2.09553383 15.98619102 2.09553383 15.98619102 2.09336853 17.0919342 C2.08782225 19.37383365 2.0752802 21.65563079 2.0625 23.9375 C2.05747804 25.49544128 2.05291636 27.05338412 2.04882812 28.61132812 C2.0378705 32.40759081 2.02064372 36.20377813 2 40 C1.34 40 0.68 40 0 40 C0.03480469 41.27101563 0.06960938 42.54203125 0.10546875 43.8515625 C0.10028711 49.15963361 -0.69491112 54.17182303 -1.6875 59.375 C-1.86829102 60.33470703 -2.04908203 61.29441406 -2.23535156 62.28320312 C-13.41677107 119.99990008 -43.96362332 169.5332968 -89 207 C-82.53874778 221.65286829 -75.72446665 236.13059002 -68.85375977 250.59472656 C-68.4907225 251.3600621 -68.12768524 252.12539764 -67.75364685 252.91392517 C-67.07089185 254.3529387 -66.3870241 255.79142506 -65.70179749 257.22926331 C-58.66345119 272.06507694 -58.66345119 272.06507694 -60 279 C-61.69157178 282.39760144 -63.94509968 284.50247003 -67.41015625 286.13671875 C-72.70975331 287.41115939 -77.88046758 287.36864303 -83.3125 287.375 C-84.40240234 287.39949219 -85.49230469 287.42398437 -86.61523438 287.44921875 C-96.09980366 287.48343848 -102.93288582 285.46994742 -109.86132812 278.88476562 C-110.34021484 278.40716797 -110.81910156 277.92957031 -111.3125 277.4375 C-115.16908233 273.67157846 -115.16908233 273.67157846 -119.35546875 270.28515625 C-119.89816406 269.86105469 -120.44085937 269.43695312 -121 269 C-121 268.34 -121 267.68 -121 267 C-121.81791016 266.67515625 -121.81791016 266.67515625 -122.65234375 266.34375 C-125.78859824 264.54862264 -128.08601348 262.0867754 -130.5625 259.5 C-133.24911113 256.71628244 -135.75839833 254.16106778 -139 252 C-139 251.34 -139 250.68 -139 250 C-139.5775 249.71125 -140.155 249.4225 -140.75 249.125 C-142.83333333 248.08333333 -144.91666667 247.04166667 -147 246 C-147 245.01 -147 244.02 -147 243 C-150.97221268 243.69333335 -154.64452385 244.82715765 -158.453125 246.14453125 C-159.716961 246.57745714 -160.98096482 247.00989334 -162.24511719 247.44189453 C-163.22708069 247.77861176 -163.22708069 247.77861176 -164.22888184 248.12213135 C-195.63207267 258.84875729 -195.63207267 258.84875729 -209 258 C-209 257.67 -209 257.34 -209 257 C-208.09012329 256.82778931 -208.09012329 256.82778931 -207.16186523 256.65209961 C-188.47028138 253.06383438 -169.46909074 249.03164773 -152.20703125 240.75 C-149.54449954 239.84521046 -148.61685998 240.04106235 -146 241 C-144.11230469 242.56298828 -144.11230469 242.56298828 -142.171875 244.5703125 C-141.45386719 245.3025 -140.73585938 246.0346875 -139.99609375 246.7890625 C-139.25488281 247.55992187 -138.51367188 248.33078125 -137.75 249.125 C-132.90289288 254.11846737 -128.02929581 258.94363765 -122.74609375 263.4765625 C-120.58934416 265.35829033 -118.60284285 267.36975521 -116.625 269.4375 C-107.18171903 278.97880811 -100.46315619 284.24346166 -86.8515625 284.32226562 C-85.58054687 284.31904297 -84.30953125 284.31582031 -83 284.3125 C-81.09347656 284.33666992 -81.09347656 284.33666992 -79.1484375 284.36132812 C-77.92382812 284.36197266 -76.69921875 284.36261719 -75.4375 284.36328125 C-74.32246094 284.36626221 -73.20742188 284.36924316 -72.05859375 284.37231445 C-68.63421915 283.95547447 -66.75410379 283.04285524 -64 281 C-62.20128461 277.40256922 -62.41871368 273.87096131 -63 270 C-64.72996841 265.18090975 -66.98088942 260.64309634 -69.25 256.0625 C-69.8870321 254.74438668 -70.5221801 253.42536127 -71.15551758 252.10546875 C-72.45406717 249.4018837 -73.76005776 246.70208681 -75.07080078 244.00439453 C-78.03550375 237.87899817 -80.8560693 231.68787434 -83.6875 225.5 C-84.64851433 223.40568734 -85.61066679 221.31189637 -86.57421875 219.21875 C-86.99493652 218.3009375 -87.4156543 217.383125 -87.84912109 216.4375 C-88.80747097 214.40776619 -89.8246836 212.4405076 -90.89453125 210.46875 C-92 208 -92 208 -91 205 C-89.41473291 203.5844408 -87.76527685 202.24007397 -86.0859375 200.9375 C-70.7142792 188.64811481 -57.24411779 174.12598601 -46 158 C-45.24565674 156.94014893 -45.24565674 156.94014893 -44.47607422 155.85888672 C-14.76293207 113.95573754 -1.87770633 65.68999286 -0.4375 14.8125 C-0.39418434 13.36913147 -0.35056654 11.92577197 -0.30664062 10.48242188 C-0.20095142 6.98837827 -0.09932418 3.49423102 0 0 Z " fill="#1C5A31" transform="translate(757,545)"/>
<path d="M0 0 C0.66 0.33 1.32 0.66 2 1 C10.11024868 28.62917252 5.04965945 57.08065598 -6 83 C-6.67126287 84.66482083 -7.33984243 86.33074442 -8 88 C-6.29070313 88.76570313 -6.29070313 88.76570313 -4.546875 89.546875 C23.93076476 102.52914945 47.93198698 119.93198698 70 142 C70.68320312 142.64839844 71.36640625 143.29679688 72.0703125 143.96484375 C101.98021735 172.68062692 130.20437125 222.38241644 133.23046875 264.18359375 C133.24637336 266.47703858 133.19762109 268.71637857 133 271 C132.67 271 132.34 271 132 271 C131.8548999 270.29206299 131.7097998 269.58412598 131.56030273 268.85473633 C127.10922328 247.38655765 121.58066727 226.78133994 112 207 C111.42838135 205.81784912 111.42838135 205.81784912 110.84521484 204.61181641 C101.50820892 185.55902882 90.30096538 167.71776346 76 152 C75.03605317 150.91572465 74.07252144 149.83108014 73.109375 148.74609375 C57.98286609 131.86856628 40.72381831 117.25154181 21 106 C20.31292969 105.6071582 19.62585938 105.21431641 18.91796875 104.80957031 C9.10017301 99.21720943 -0.83564385 93.9351054 -11 89 C-9.58065203 84.56622729 -7.91249966 80.29740852 -6.125 76 C-0.11774844 61.21263635 2.18719384 47.52051002 2.18530273 31.62573242 C2.18749208 29.5699398 2.20571824 27.51468283 2.22460938 25.45898438 C2.2519868 18.81008094 2.03845314 12.50977108 0.4309082 6.03100586 C0 4 0 4 0 0 Z " fill="#1C5A31" transform="translate(622,254)"/>
<path d="M0 0 C1.96918155 2.95377232 2.50742861 4.62417272 3.2265625 8.0234375 C3.44932861 9.0338208 3.67209473 10.0442041 3.90161133 11.08520508 C4.14032959 12.1708374 4.37904785 13.25646973 4.625 14.375 C7.40165639 26.40775416 11.19358245 37.64037292 16 49 C16.35465332 49.84933105 16.70930664 50.69866211 17.07470703 51.57373047 C27.47153651 76.27263127 41.83289934 97.91067192 59.91015625 117.6875 C61.68356841 119.64985514 63.38150245 121.64661409 65.0625 123.6875 C67.73629799 126.83141632 70.69817197 129.49064323 73.83984375 132.16015625 C76.98932426 134.84262518 80.04607358 137.62694445 83.1171875 140.3984375 C84.91539089 142.05722691 84.91539089 142.05722691 87 143 C86.49154323 148.95895557 84.65558916 153.46471532 82.02734375 158.80078125 C81.42533897 160.05365181 81.42533897 160.05365181 80.81117249 161.33183289 C79.52890077 163.99648865 78.233883 166.65468512 76.9375 169.3125 C73.60227074 176.1975354 70.28980637 183.09315166 67 190 C66.59871887 190.83577576 66.19743774 191.67155151 65.78399658 192.53265381 C64.63223344 194.94531191 63.50264189 197.36715217 62.37890625 199.79296875 C62.03568832 200.50455643 61.6924704 201.2161441 61.33885193 201.94929504 C59.10024585 206.862709 58.47618679 210.5946935 59 216 C61.53453657 219.21954645 63.11297305 220.70432435 67 222 C71.18218307 222.31403143 75.36994307 222.32418113 79.5625 222.375 C80.70525391 222.41238281 81.84800781 222.44976563 83.02539062 222.48828125 C92.85114231 222.58940391 99.30027078 219.95439912 107 214 C105.55767936 217.57478396 103.83879097 219.11081448 100.625 221.1875 C99.46871094 221.95126953 99.46871094 221.95126953 98.2890625 222.73046875 C92.52672969 225.92630179 86.09964182 225.22067059 79.6875 225.25 C78.57181641 225.270625 77.45613281 225.29125 76.30664062 225.3125 C70.09349413 225.34196365 65.42876235 225.13711267 60 222 C56.46750717 218.10520021 55.66136708 215.31682815 55.77490234 210.09838867 C56.1340458 206.75040816 57.37177283 204.03945016 58.78125 201 C59.21503212 200.04946495 59.21503212 200.04946495 59.65757751 199.07972717 C60.59044159 197.04602465 61.54457104 195.02318559 62.5 193 C63.14959862 191.59612085 63.79811356 190.19173977 64.44555664 188.78686523 C68.22343889 180.62413538 72.14225567 172.53897004 76.24609375 164.53515625 C79.41967898 158.13850896 82.20473041 151.56888353 85 145 C84.16339844 144.30777344 83.32679688 143.61554688 82.46484375 142.90234375 C59.71354609 123.86527391 40.63598834 101.66107262 26.00878906 75.78271484 C25.02881159 74.05091536 24.02643273 72.33185213 23.0234375 70.61328125 C13.99538416 54.78050114 7.66120876 37.47527772 2.875 19.9375 C2.57972412 18.86201904 2.28444824 17.78653809 1.98022461 16.6784668 C0.49591978 10.951739 -0.32659495 5.91420861 0 0 Z " fill="#1D5A32" transform="translate(271,607)"/>
<path d="M0 0 C28.71741399 3.77376274 55.05193542 22.24872296 77 40 C77.95648437 40.72445312 78.91296875 41.44890625 79.8984375 42.1953125 C80.59195313 42.79085937 81.28546875 43.38640625 82 44 C82 44.66 82 45.32 82 46 C82.87398437 46.38671875 82.87398437 46.38671875 83.765625 46.78125 C107.76513916 59.87189409 125.90992391 101.50720211 133.375 126.375 C140.20246967 150.1524846 144.5709401 177.38531656 140 202 C139.67 202 139.34 202 139 202 C138.21226737 197.8803505 137.90952074 194.06867407 138.0078125 189.87890625 C138.8706574 137.18373538 122.13371426 89.90977744 85.59765625 51.47265625 C62.38422882 27.67247552 31.94101327 10.8258063 0 2 C0 1.34 0 0.68 0 0 Z " fill="#1D5C33" transform="translate(566,379)"/>
<path d="M0 0 C5.25957106 3.2815348 9.48387305 7.30959486 13.76953125 11.7578125 C15.6943914 13.71729243 17.65987448 15.50738011 19.75390625 17.28125 C23.89376113 20.82615567 27.68110927 24.68026977 31.5078125 28.5546875 C34.91702826 31.98986175 38.43036981 35.22914142 42.1171875 38.3671875 C45.20886374 41.08150711 48.07414407 44.02084608 50.94140625 46.96875 C46.73560142 46.96875 45.71852601 45.2137242 42.69140625 42.34375 C42.17271973 41.85592041 41.6540332 41.36809082 41.11962891 40.86547852 C39.98955913 39.80226592 38.86223346 38.73613101 37.73730469 37.66748047 C35.89271819 35.92269623 34.0328408 34.19572927 32.16796875 32.47265625 C26.52002042 27.2478558 20.91571367 22.0012489 15.50390625 16.53125 C6.38926635 6.61090234 6.38926635 6.61090234 -5.49609375 1.53125 C-9.74204602 2.05268274 -11.79676952 3.23792041 -15.05859375 5.96875 C-17.12838375 9.3831995 -17.59017444 12.25219076 -17.05859375 16.265625 C-14.2943348 23.73776248 -7.31723278 29.78817399 -1.6953125 35.23828125 C0.94140625 37.96875 0.94140625 37.96875 0.94140625 39.96875 C2.42640625 40.46375 2.42640625 40.46375 3.94140625 40.96875 C5.51953125 42.5703125 5.51953125 42.5703125 7.19140625 44.59375 C9.51516606 47.33734877 11.87021449 49.95546796 14.44140625 52.46875 C16.83418116 54.81908101 19.07331737 57.232974 21.25390625 59.78125 C24.85481213 63.97005888 28.75394374 67.81700085 32.70703125 71.671875 C33.81304687 72.80882812 33.81304687 72.80882812 34.94140625 73.96875 C35.53308594 74.55140625 36.12476563 75.1340625 36.734375 75.734375 C38.59683846 79.182042 38.17510716 82.66356756 38.00390625 86.46875 C37.69839478 92.96823832 37.69839478 92.96823832 39.94140625 98.96875 C39.44640625 100.45375 39.44640625 100.45375 38.94140625 101.96875 C35.24959302 97.5073757 33.71240649 92.67726692 32.94140625 86.96875 C33.5859375 84.63671875 33.5859375 84.63671875 34.44140625 82.46875 C35.2294257 80.29345105 35.2294257 80.29345105 34.94140625 77.96875 C31.75548507 73.75511231 27.87412579 70.47377325 23.94140625 66.96875 C22.72525062 65.64025871 21.53303215 64.28897088 20.37890625 62.90625 C17.70543799 59.77117571 14.87258816 56.86466958 11.94140625 53.96875 C8.43810391 50.50226916 5.11758358 46.97208317 1.91796875 43.2265625 C-0.16367136 40.84872064 -2.30825779 38.54127373 -4.46801758 36.23461914 C-7.021314 33.5002601 -9.54421855 30.73888417 -12.05859375 27.96875 C-12.81527344 27.13730469 -13.57195312 26.30585938 -14.3515625 25.44921875 C-17.89439694 21.27817037 -20.19113881 17.75958855 -20.38671875 12.17578125 C-19.76845682 8.01723377 -17.93957241 4.98422152 -15.05859375 1.96875 C-10.08815886 -0.92313939 -5.39967236 -2.70495921 0 0 Z " fill="#1E5D33" transform="translate(447.05859375,480.03125)"/>
<path d="M0 0 C0.66 0 1.32 0 2 0 C1.7834375 1.29808594 1.566875 2.59617188 1.34375 3.93359375 C-2.84610845 30.58616307 -4.30865753 62.86958761 10.78125 86.828125 C12 89 12 89 11.85058594 90.98950195 C10.67205478 93.7751518 9.35785461 94.14953405 6.609375 95.33984375 C5.68229736 95.75637207 4.75521973 96.17290039 3.80004883 96.60205078 C2.79353271 97.04274902 1.7870166 97.48344727 0.75 97.9375 C-15.61324452 105.42756439 -30.99753625 114.66181047 -45 126 C-45.99386719 126.79148437 -46.98773438 127.58296875 -48.01171875 128.3984375 C-57.66815755 136.24120765 -66.31536661 145.11183275 -75 154 C-75 149.91892764 -72.9147672 148.30962075 -70.25 145.5 C-69.75193848 144.96882568 -69.25387695 144.43765137 -68.74072266 143.89038086 C-47.7751812 121.80672091 -21.44622675 103.11389237 7 92 C7.66 92 8.32 92 9 92 C8.61328125 90.99582031 8.2265625 89.99164063 7.828125 88.95703125 C-3.54472656 59.20898984 -7.93106997 31.37021427 0 0 Z " fill="#1F6036" transform="translate(401,251)"/>
<path d="M0 0 C0.66 0 1.32 0 2 0 C2.12004395 0.54712646 2.24008789 1.09425293 2.36376953 1.65795898 C10.77234845 39.5361153 27.22176627 70.86225594 54 99 C54.65226562 99.70511719 55.30453125 100.41023437 55.9765625 101.13671875 C64.14561575 109.70553418 73.83883129 116.77249153 83.75 123.1875 C84.34635254 123.57413818 84.94270508 123.96077637 85.55712891 124.35913086 C88.54566001 126.37798531 88.54566001 126.37798531 92 127 C92.42861328 127.44005371 92.85722656 127.88010742 93.29882812 128.33349609 C95.41400506 130.4055681 97.54296491 131.39998152 100.21875 132.6640625 C101.23324219 133.14617187 102.24773437 133.62828125 103.29296875 134.125 C104.88044922 134.8675 104.88044922 134.8675 106.5 135.625 C107.55832031 136.12773438 108.61664063 136.63046875 109.70703125 137.1484375 C115.2600377 139.80331144 115.2600377 139.80331144 121 142 C121 142.66 121 143.32 121 144 C110.78854566 142.27122988 101.46008761 136.8887121 92.5625 131.8125 C91.55968994 131.24152588 90.55687988 130.67055176 89.52368164 130.08227539 C81.79688372 125.60807597 74.8223465 120.77966904 68 115 C66.8563864 114.06788342 65.71181616 113.1369396 64.56640625 112.20703125 C40.73942946 92.61523412 23.49277323 68.04573586 11 40 C10.70319336 39.33709961 10.40638672 38.67419922 10.10058594 37.99121094 C6.77667297 30.4604093 4.25831242 22.87427431 2.125 14.9375 C1.9094043 14.13957031 1.69380859 13.34164062 1.47167969 12.51953125 C0.38004426 8.24712727 -0.24199504 4.44843816 0 0 Z " fill="#1D5D32" transform="translate(321,598)"/>
<path d="M0 0 C19.22022571 0.07991778 37.35062436 11.73572001 50.80859375 24.70703125 C67.11040824 42.05097086 75.51689404 63.62507907 75.234375 87.421875 C74.96193629 95.36451135 73.4246991 103.19807636 72 111 C71.34 111 70.68 111 70 111 C69.79375 112.258125 69.5875 113.51625 69.375 114.8125 C67.99172114 121.03725487 65.27671353 128.2033631 60.3203125 132.43359375 C56.61590726 133.33786776 53.32263484 132.14124419 49.75 131.125 C48.63238281 130.82529297 48.63238281 130.82529297 47.4921875 130.51953125 C45.65799482 130.02571014 43.82849171 129.51452906 42 129 C42 128.67 42 128.34 42 128 C48.41481258 127.57234583 53.88595404 129.14256832 60 131 C60 129.68 60 128.36 60 127 C60.99258741 125.99264195 61.99419632 124.99416244 63 124 C71.18477906 107.5664983 75.96114734 85.88344203 70 68 C69.87625 66.77667969 69.7525 65.55335938 69.625 64.29296875 C69.10811201 59.93818743 67.79486521 56.29330431 66 52.3125 C65.5364209 51.27766479 65.5364209 51.27766479 65.06347656 50.22192383 C56.55656838 31.91605229 42.55570511 17.84111942 24.375 9.1875 C23.7655957 8.89713867 23.15619141 8.60677734 22.52832031 8.30761719 C18.08333905 6.28456554 13.74001511 5.07251997 9 4 C8.67 4.66 8.34 5.32 8 6 C7.67 4.68 7.34 3.36 7 2 C4.69 1.67 2.38 1.34 0 1 C0 0.67 0 0.34 0 0 Z " fill="#1E5F35" transform="translate(524,201)"/>
<path d="M0 0 C0.7319458 -0.00241196 1.4638916 -0.00482391 2.21801758 -0.00730896 C3.75770514 -0.00633424 5.29742938 0.00696983 6.83691406 0.03198242 C9.18156046 0.06631927 11.52243681 0.05261982 13.8671875 0.03320312 C15.36980756 0.04010222 16.87241798 0.04977519 18.375 0.0625 C19.06891846 0.05754013 19.76283691 0.05258026 20.4777832 0.04747009 C25.47101129 0.16711917 28.32103831 1.53101062 32.1875 4.62890625 C35.66947331 9.38526173 34.63237646 16.04014573 34.1875 21.62890625 C32.96951162 25.34697605 32.13022247 26.90825547 29.06079102 29.25463867 C25.45919594 30.97724711 22.30925503 31.04319972 18.40234375 30.9921875 C17.29518761 30.99293526 17.29518761 30.99293526 16.16566467 30.99369812 C14.61163631 30.99136615 13.05760355 30.98168948 11.50366211 30.96508789 C9.12905035 30.94144657 6.75555937 30.94453932 4.38085938 30.95117188 C2.86718083 30.94559595 1.35350699 30.93848661 -0.16015625 30.9296875 C-0.86753433 30.93059891 -1.57491241 30.93151031 -2.3037262 30.93244934 C-5.96103695 30.87996798 -8.73495215 30.69198947 -11.8125 28.62890625 C-16.14273002 24.1394034 -15.79691153 18.56811294 -15.8125 12.62890625 C-15.07118367 7.43969195 -13.68890825 4.95334737 -9.58081055 1.67654419 C-6.54827294 -0.12008675 -3.41586069 -0.06526443 0 0 Z M-12.8125 7.62890625 C-13.29250643 10.5387589 -13.47336891 12.74696312 -13.375 15.62890625 C-13.38595703 16.32757812 -13.39691406 17.02625 -13.40820312 17.74609375 C-13.3608329 21.09358995 -12.93796078 23.40723948 -11.28491211 26.32788086 C-7.92923019 29.45094812 -5.0481941 29.33446351 -0.6875 29.2578125 C0.4883667 29.26143044 0.4883667 29.26143044 1.68798828 29.26512146 C3.34217396 29.26414378 4.99639266 29.25076876 6.65039062 29.22583008 C9.17951821 29.19151455 11.70515163 29.20517274 14.234375 29.22460938 C15.84376484 29.21771067 17.45314568 29.20803806 19.0625 29.1953125 C19.8167627 29.20027237 20.57102539 29.20523224 21.34814453 29.21034241 C24.88168574 29.13125317 26.82345558 28.9124891 29.6496582 26.7109375 C33.40373361 21.6284236 32.80733961 14.67854085 32.1875 8.62890625 C30.37946596 5.55524839 29.32710536 4.19870893 26.1875 2.62890625 C21.38943035 2.34580258 16.59054532 2.31521118 11.78491211 2.27880859 C10.18352717 2.262261 8.58221573 2.23498616 6.98120117 2.19677734 C4.66806884 2.14187894 2.35666564 2.12011707 0.04296875 2.10546875 C-1.02447319 2.07146469 -1.02447319 2.07146469 -2.11347961 2.03677368 C-7.38916483 2.05908635 -9.65689383 3.46079808 -12.8125 7.62890625 Z " fill="#206138" transform="translate(647.8125,547.37109375)"/>
<path d="M0 0 C2.47764605 1.96754245 3.43050576 4.24936712 3.9284668 7.34936523 C3.96625244 8.08356689 4.00403809 8.81776855 4.04296875 9.57421875 C4.10931519 10.80966431 4.10931519 10.80966431 4.17700195 12.07006836 C4.21140381 12.93897705 4.24580566 13.80788574 4.28125 14.703125 C4.31887451 15.59459229 4.35649902 16.48605957 4.39526367 17.40454102 C5.06578878 36.11675189 5.06578878 36.11675189 1.69921875 41.03125 C-2.33046041 45.30764421 -6.78011869 45.42477095 -12.40625 45.640625 C-17.76870055 45.5474807 -20.50904648 44.95771254 -24.40625 41.265625 C-26.88160637 37.60843754 -26.63588999 34.20026372 -26.6015625 29.875 C-26.5987326 29.17038635 -26.59590271 28.46577271 -26.59298706 27.73980713 C-26.58182801 25.4982374 -26.55673193 23.25707314 -26.53125 21.015625 C-26.52121464 19.49219329 -26.51208976 17.96875529 -26.50390625 16.4453125 C-26.48190291 12.71861914 -26.44740272 8.99216167 -26.40625 5.265625 C-25.74625 5.265625 -25.08625 5.265625 -24.40625 5.265625 C-24.40214111 6.20881592 -24.39803223 7.15200684 -24.39379883 8.1237793 C-24.36676141 11.63756176 -24.31762159 15.14961182 -24.25366211 18.6628418 C-24.23052549 20.18063668 -24.21609652 21.69859113 -24.21069336 23.21655273 C-24.20137078 25.4044893 -24.16031849 27.58993187 -24.11328125 29.77734375 C-24.0975708 31.09178467 -24.08186035 32.40622559 -24.06567383 33.76049805 C-23.25039573 38.0940588 -21.84530602 39.58640826 -18.40625 42.265625 C-15.23474303 42.94073668 -15.23474303 42.94073668 -11.90625 42.703125 C-10.8028125 42.68121094 -9.699375 42.65929687 -8.5625 42.63671875 C-5.46697106 42.27276423 -3.17686173 41.67602699 -0.40625 40.265625 C1.0785057 37.29611361 0.79759382 34.25071441 0.83203125 30.9921875 C0.840103 30.27203461 0.84817474 29.55188171 0.85649109 28.80990601 C0.87032614 27.28507898 0.8810509 25.76022106 0.88891602 24.23535156 C0.9061341 21.90630299 0.95002204 19.5786725 0.99414062 17.25 C1.00426744 15.7682396 1.01278358 14.28646714 1.01953125 12.8046875 C1.03703934 12.10977203 1.05454742 11.41485657 1.07258606 10.69888306 C1.05766554 7.36382651 0.80101185 5.54998769 -1.18481445 2.82543945 C-4.55824448 0.45673471 -7.94246028 0.72381474 -11.90625 0.828125 C-12.66550781 0.82103516 -13.42476563 0.81394531 -14.20703125 0.80664062 C-18.52444966 0.85578812 -21.29551323 1.14661499 -24.40625 4.265625 C-24.34375 2.453125 -24.34375 2.453125 -23.40625 0.265625 C-15.7756811 -4.28024583 -7.79880769 -4.02725315 0 0 Z " fill="#1E6036" transform="translate(523.40625,680.734375)"/>
<path d="M0 0 C0.83337891 0.36738281 0.83337891 0.36738281 1.68359375 0.7421875 C0.83152344 1.28488281 -0.02054688 1.82757813 -0.8984375 2.38671875 C-4.51342545 4.79847602 -7.74036962 7.56860494 -11.00390625 10.4296875 C-15.22874699 14.09418094 -19.47071089 17.72056474 -23.81640625 21.2421875 C-28.06789384 24.69221646 -32.23366171 28.22874693 -36.37890625 31.8046875 C-40.30453652 35.19001597 -44.24758043 38.52855003 -48.31640625 41.7421875 C-52.25718479 44.85636371 -56.07820521 48.08541707 -59.87890625 51.3671875 C-65.36575223 56.10126731 -70.9125002 60.757033 -76.50390625 65.3671875 C-77.23488525 65.97127441 -77.96586426 66.57536133 -78.71899414 67.19775391 C-79.40469482 67.76155762 -80.09039551 68.32536133 -80.796875 68.90625 C-81.40426514 69.40592285 -82.01165527 69.9055957 -82.63745117 70.42041016 C-86.90404374 73.77933588 -90.36323657 74.3083616 -95.62890625 74.6796875 C-96.37591797 74.76025391 -97.12292969 74.84082031 -97.89257812 74.92382812 C-102.1283304 75.2250537 -104.52777204 75.01802655 -107.859375 72.24609375 C-108.67019531 71.41980469 -109.48101562 70.59351563 -110.31640625 69.7421875 C-108.83140625 69.2471875 -108.83140625 69.2471875 -107.31640625 68.7421875 C-106.80013672 69.45568359 -106.80013672 69.45568359 -106.2734375 70.18359375 C-102.46950183 73.21307545 -97.33530383 72.8295718 -92.66015625 72.609375 C-85.42578335 71.65866316 -80.80754818 66.25822949 -75.89208984 61.29345703 C-73.66720678 59.1030469 -71.26159846 57.18049315 -68.81640625 55.2421875 C-64.58848337 51.81010893 -60.44108829 48.29671911 -56.31640625 44.7421875 C-51.32699858 40.44246037 -46.27419469 36.23733341 -41.16015625 32.0859375 C-37.83953815 29.34916434 -34.57603065 26.55105493 -31.31640625 23.7421875 C-26.26727489 19.3935453 -21.17657959 15.10865491 -15.98828125 10.92578125 C-14.07798695 9.36459044 -12.19533894 7.76932412 -10.33203125 6.15234375 C-9.3575 5.31574219 -8.38296875 4.47914063 -7.37890625 3.6171875 C-6.50363281 2.85148437 -5.62835937 2.08578125 -4.7265625 1.296875 C-2.31640625 -0.2578125 -2.31640625 -0.2578125 0 0 Z " fill="#1D5E33" transform="translate(608.31640625,460.2578125)"/>
<path d="M0 0 C0.33 0.66 0.66 1.32 1 2 C-0.21236328 2.05607422 -0.21236328 2.05607422 -1.44921875 2.11328125 C-2.51785156 2.17902344 -3.58648438 2.24476563 -4.6875 2.3125 C-5.74324219 2.37050781 -6.79898437 2.42851562 -7.88671875 2.48828125 C-11.26507231 3.04356897 -13.24919046 3.9926525 -16 6 C-17.48033819 8.96067638 -17.20379329 11.98961921 -17.23828125 15.23828125 C-17.246353 15.95606247 -17.25442474 16.67384369 -17.26274109 17.41337585 C-17.27657786 18.93400663 -17.28730185 20.45466841 -17.29516602 21.9753418 C-17.31235842 24.29341042 -17.35624181 26.61004469 -17.40039062 28.92773438 C-17.41051977 30.40623953 -17.41903519 31.88475679 -17.42578125 33.36328125 C-17.44328934 34.05303543 -17.46079742 34.74278961 -17.47883606 35.45344543 C-17.46306399 38.97843546 -17.04944647 40.92013818 -15.17822266 43.94238281 C-13.08950008 46.2965903 -13.08950008 46.2965903 -9.72265625 46.55859375 C-8.51480469 46.51863281 -7.30695313 46.47867188 -6.0625 46.4375 C-4.85722656 46.41558594 -3.65195312 46.39367187 -2.41015625 46.37109375 C0.81196216 46.02046231 3.13281229 45.48375644 6 44 C7.50869057 40.98261886 7.18351891 37.85395827 7.203125 34.54296875 C7.21167511 33.43300285 7.21167511 33.43300285 7.22039795 32.3006134 C7.22985018 30.73289419 7.23638282 29.16515509 7.24023438 27.59741211 C7.24992032 25.20716293 7.28093195 22.81778095 7.3125 20.42773438 C7.31903223 18.90365093 7.32428184 17.37956135 7.328125 15.85546875 C7.3404718 15.14384079 7.3528186 14.43221283 7.36553955 13.69902039 C7.3458602 9.28017974 6.62533638 6.56499885 4 3 C5.875 3.25 5.875 3.25 8 4 C12.49670563 11.40444805 11.10041931 21.46377996 10.8125 29.75 C10.79380859 30.85988281 10.77511719 31.96976562 10.75585938 33.11328125 C10.47977736 41.16325164 10.47977736 41.16325164 8.19921875 45.140625 C2.34365506 50.09133249 -3.56765887 49.59162914 -11 49 C-14.73632492 47.77603149 -16.28878016 46.94554806 -18.62353516 43.84155273 C-20.3470888 40.28347526 -20.38797289 37.66955848 -20.3984375 33.72265625 C-20.40274277 32.68920326 -20.40274277 32.68920326 -20.40713501 31.63487244 C-20.40916863 30.18341242 -20.40368795 28.73192455 -20.39111328 27.28051758 C-20.37507227 25.07244812 -20.39097111 22.86621553 -20.41015625 20.65820312 C-20.40817321 19.2421835 -20.40432828 17.82616501 -20.3984375 16.41015625 C-20.39505371 15.13277588 -20.39166992 13.85539551 -20.38818359 12.53930664 C-19.96838333 8.71173157 -18.9844571 6.27753717 -17 3 C-12.07551367 -0.54295623 -5.81399222 -0.36337451 0 0 Z " fill="#1F5F35" transform="translate(517,398)"/>
<path d="M0 0 C3.79124747 -0.14714061 7.58174654 -0.23467827 11.375 -0.3125 C12.96634766 -0.3753418 12.96634766 -0.3753418 14.58984375 -0.43945312 C23.08771641 -0.5697886 29.76079526 1.12843713 36.14794922 6.96166992 C43.51051331 14.5763491 44.37976424 22.13341811 44.26367188 32.3671875 C44.23861548 33.74479779 44.21322077 35.12240196 44.1875 36.5 C44.17242613 37.90883986 44.1587425 39.31769532 44.14648438 40.7265625 C44.11129724 44.15144396 44.06206079 47.57551763 44 51 C40.81175432 52.59412284 37.37103338 52.10174735 33.875 52.0625 C32.74384766 52.05573242 32.74384766 52.05573242 31.58984375 52.04882812 C29.72652873 52.03703499 27.86325445 52.01909942 26 52 C24.5192152 54.9615696 24.64685963 57.83506295 24.4375 61.125 C24.35371094 62.40632813 24.26992188 63.68765625 24.18359375 65.0078125 C24.12300781 65.99523437 24.06242188 66.98265625 24 68 C25.65 68.33 27.3 68.66 29 69 C29 69.33 29 69.66 29 70 C26.69 70 24.38 70 22 70 C22 63.4 22 56.8 22 50 C28.6 50 35.2 50 42 50 C41.94852421 46.0518066 41.88500806 42.10638754 41.79248047 38.15917969 C41.75091573 36.16884998 41.72875456 34.17814514 41.70703125 32.1875 C41.49913068 23.95463743 41.21887713 15.30387282 35.13378906 9.09619141 C27.68005507 2.81946796 18.88837165 1.55518563 9.4375 1.3125 C8.06754883 1.26125977 8.06754883 1.26125977 6.66992188 1.20898438 C4.44673771 1.12750642 2.22389803 1.05804262 0 1 C0 0.67 0 0.34 0 0 Z " fill="#1C5B32" transform="translate(518,256)"/>
<path d="M0 0 C1.41569064 -0.08167446 2.83276805 -0.13949698 4.25 -0.1875 C5.43335938 -0.23970703 5.43335938 -0.23970703 6.640625 -0.29296875 C9.60448924 0.07506075 10.66521646 1.15232958 13 3 C15.48873039 4.26398357 17.98159687 5.48654802 20.5 6.6875 C31.99181211 12.323836 41.73063457 19.15772137 51 28 C51.97839844 28.84884766 51.97839844 28.84884766 52.9765625 29.71484375 C62.39841044 38.26429837 69.70785298 50.50848076 75 62 C75 62.66 75 63.32 75 64 C75.66 64.33 76.32 64.66 77 65 C78.41644354 69.09194801 79.26260116 72.66708088 79 77 C77 76 77 76 76.17578125 73.734375 C75.89089844 72.74953125 75.60601563 71.7646875 75.3125 70.75 C66.59202762 43.6588266 46.30896694 23.58263528 22 10 C14.90117176 6.38306985 7.52109231 3.60401455 0 1 C0 0.67 0 0.34 0 0 Z " fill="#1C5C33" transform="translate(543,176)"/>
<path d="M0 0 C2.97 0.495 2.97 0.495 6 1 C4.00390661 2.99609339 2.76949681 3.65967646 0.21875 4.734375 C-0.53567383 5.05768799 -1.29009766 5.38100098 -2.06738281 5.71411133 C-3.27152832 6.22687622 -3.27152832 6.22687622 -4.5 6.75 C-33.20629334 19.31393424 -53.79407402 40.77609429 -65.5 69.9375 C-66.00950224 71.28812016 -66.51388192 72.64078825 -67 74 C-68.30157722 71.02819074 -67.93216781 69.78915699 -66.91796875 66.63671875 C-66.35817291 65.3129821 -65.78010036 63.99687959 -65.1875 62.6875 C-64.71642822 61.6344165 -64.71642822 61.6344165 -64.23583984 60.56005859 C-58.71809963 48.68162701 -51.12223533 38.36399068 -42 29 C-41.27039063 28.22011719 -40.54078125 27.44023437 -39.7890625 26.63671875 C-28.5297225 14.88354805 -14.39139871 8.15044338 0 1 C0 0.67 0 0.34 0 0 Z " fill="#1D5B31" transform="translate(471,176)"/>
<path d="M0 0 C0 0.66 0 1.32 0 2 C-1.81757813 2.49306641 -1.81757813 2.49306641 -3.671875 2.99609375 C-34.47008671 11.6266688 -64.83966322 27.51884844 -87 51 C-87.99 50.67 -88.98 50.34 -90 50 C-74.85412311 33.77227476 -55.07458829 21.19545657 -35 12 C-34.34290039 11.69223633 -33.68580078 11.38447266 -33.00878906 11.06738281 C-9.31279389 0 -9.31279389 0 0 0 Z " fill="#1E5D33" transform="translate(461,378)"/>
<path d="M0 0 C0.33 0 0.66 0 1 0 C0.55539601 5.48101974 0.04651706 10.9333236 -0.75390625 16.375 C-3.42641166 34.71840085 -3.89523463 52.91195328 -2.21826172 71.37988281 C-1.97131281 74.34437469 -1.89836697 77.27588953 -1.9375 80.25 C-1.94652344 81.16265625 -1.95554687 82.0753125 -1.96484375 83.015625 C-1.97644531 83.67046875 -1.98804688 84.3253125 -2 85 C-12.97802508 68.53296238 -6.44938025 29.2103504 -3.0703125 10.9296875 C-2.30691278 7.17735998 -1.34331594 3.59427779 0 0 Z " fill="#22693E" transform="translate(323,512)"/>
<path d="M0 0 C0.66 0.33 1.32 0.66 2 1 C1.2265625 1.94359375 0.453125 2.8871875 -0.34375 3.859375 C-17.50232071 24.93935203 -33.67965076 49.5541442 -41.24609375 75.9453125 C-42 78 -42 78 -44 79 C-43.44455353 73.8069101 -42.22004391 69.32406831 -40.1875 64.5 C-39.88618164 63.78078369 -39.58486328 63.06156738 -39.27441406 62.32055664 C-32.1975337 45.87772663 -23.64264131 30.38682847 -13 16 C-12.15080857 14.83220071 -11.30184528 13.6642355 -10.453125 12.49609375 C-7.19860233 8.06259378 -3.98451564 3.81515144 0 0 Z " fill="#1C5930" transform="translate(323,406)"/>
<path d="M0 0 C0.66 0 1.32 0 2 0 C0.45939525 3.39723098 -1.55482342 6.16368808 -3.8125 9.125 C-10.19327119 17.32482719 -10.19327119 17.32482719 -13 27 C-13.66 27 -14.32 27 -15 27 C-15.28875 28.27875 -15.5775 29.5575 -15.875 30.875 C-16.03742188 31.59429687 -16.19984375 32.31359375 -16.3671875 33.0546875 C-16.68042969 34.51261719 -16.68042969 34.51261719 -17 36 C-17.16322754 36.66660645 -17.32645508 37.33321289 -17.49462891 38.02001953 C-19.24152214 45.6863217 -19.43837023 53.28654967 -19.625 61.125 C-19.66328301 62.4765848 -19.70234027 63.82814791 -19.7421875 65.1796875 C-19.83571054 68.45299391 -19.92146198 71.72630557 -20 75 C-20.33 75 -20.66 75 -21 75 C-25.66611275 54.07028684 -21.05260325 30.41729969 -9.68359375 12.43359375 C-6.69657514 8.11593111 -3.60954057 3.82091007 0 0 Z " fill="#1E5D34" transform="translate(448,227)"/>
<path d="M0 0 C2.29517854 0.91807141 3.71157892 1.57143065 5.109375 3.6484375 C7.1732034 9.09766862 7.15404561 16.68063169 5.2421875 22.1796875 C3.35341394 25.16900628 1.24458233 26.76669527 -2 28 C-6.56009309 28.37813111 -11.12526691 28.32927556 -15.69897461 28.31567383 C-17.92676785 28.31251522 -20.15323028 28.3359834 -22.38085938 28.36132812 C-23.80468583 28.36360154 -25.22851584 28.36430442 -26.65234375 28.36328125 C-27.94132568 28.36626221 -29.23030762 28.36924316 -30.55834961 28.37231445 C-34.22047528 27.97614919 -36.12164454 27.26418086 -39 25 C-39.8125 22.3125 -39.8125 22.3125 -40 20 C-39.33629395 20.813479 -38.67258789 21.62695801 -37.98876953 22.46508789 C-34.33311358 25.56561687 -31.75529137 25.68473814 -27.1796875 25.55859375 C-26.43921173 25.55626236 -25.69873596 25.55393097 -24.93582153 25.55152893 C-23.37750657 25.54182144 -21.81922532 25.52010306 -20.26123047 25.48706055 C-17.87544598 25.43750926 -15.49172222 25.42556952 -13.10546875 25.41992188 C-11.58851971 25.40583991 -10.07158856 25.38963694 -8.5546875 25.37109375 C-7.48587845 25.3630497 -7.48587845 25.3630497 -6.39547729 25.35484314 C-2.73250456 25.26669347 -1.12917027 25.08611352 2 23 C3.15448176 19.53655473 3.20405092 16.71162274 3.25 13.0625 C3.28867187 11.22365234 3.28867187 11.22365234 3.328125 9.34765625 C2.9785827 5.78149254 2.3093154 4.61924984 0 2 C0 1.34 0 0.68 0 0 Z " fill="#1B562E" transform="translate(384,550)"/>
<path d="M0 0 C0 0.66 0 1.32 0 2 C-0.66 2 -1.32 2 -2 2 C-2.2578125 2.58007812 -2.515625 3.16015625 -2.78125 3.7578125 C-4.10378606 6.19093974 -5.59500053 7.86850466 -7.5 9.875 C-20.08805256 23.82884488 -28.82468818 40.20345027 -37 57 C-37.99812515 59.00093633 -38.99765602 61.00117371 -40 63 C-41.71390503 57.85828492 -38.26056129 53.53611249 -35.93994141 48.87646484 C-35.62976074 48.25723145 -35.31958008 47.63799805 -35 47 C-34.69884277 46.38979004 -34.39768555 45.77958008 -34.08740234 45.15087891 C-27.33905873 31.57176369 -18.69166239 19.63802109 -9 8 C-8.34644531 7.21109375 -7.69289063 6.4221875 -7.01953125 5.609375 C-2.26333042 0 -2.26333042 0 0 0 Z " fill="#1B5A30" transform="translate(371,430)"/>
<path d="M0 0 C0.33 0 0.66 0 1 0 C1.49016581 11.21935074 1.70034152 18.99267609 -6.125 27.6875 C-13.28174783 34.34175277 -21.27551211 37.2229109 -31 37 C-39.97421537 36.3532097 -46.83114116 32.47826869 -53 26 C-52.67 25.34 -52.34 24.68 -52 24 C-51.071875 24.9075 -50.14375 25.815 -49.1875 26.75 C-42.72797751 32.24580341 -34.85209617 34.73068035 -26.40625 34.31640625 C-17.38668708 33.13039229 -10.21488068 29.14550403 -4.625 21.9375 C-1.74854801 16.73775986 -0.70972514 12.65676502 -0.375 6.6875 C-0.30023437 5.43324219 -0.22546875 4.17898438 -0.1484375 2.88671875 C-0.09945312 1.93410156 -0.05046875 0.98148438 0 0 Z " fill="#1B562D" transform="translate(541,559)"/>
<path d="M0 0 C0.495 0.99 0.495 0.99 1 2 C0.44127197 2.0093457 -0.11745605 2.01869141 -0.69311523 2.02832031 C-3.27540323 2.08268988 -5.85600598 2.16619709 -8.4375 2.25 C-9.75524414 2.27126953 -9.75524414 2.27126953 -11.09960938 2.29296875 C-19.85598338 2.61608218 -27.08664021 5.56807445 -34 11 C-40.09913271 18.62391589 -39.38914808 29.82005294 -39.625 39.0625 C-39.66367187 40.30966797 -39.70234375 41.55683594 -39.7421875 42.84179688 C-39.83575358 45.89439017 -39.92149672 48.94698847 -40 52 C-40.33 52 -40.66 52 -41 52 C-43.64119558 19.16790721 -43.64119558 19.16790721 -37 11 C-26.35440753 -0.38615543 -14.65393127 -0.20384139 0 0 Z " fill="#1B542E" transform="translate(503,255)"/>
<path d="M0 0 C1.08809212 0.00636726 1.08809212 0.00636726 2.19816589 0.01286316 C4.50098766 0.02957332 6.80291428 0.06720915 9.10546875 0.10546875 C10.67251335 0.12052559 12.23957175 0.13421225 13.80664062 0.14648438 C17.63575832 0.17945144 21.46421209 0.23117883 25.29296875 0.29296875 C25.29296875 0.95296875 25.29296875 1.61296875 25.29296875 2.29296875 C23.8248877 2.31484253 23.8248877 2.31484253 22.32714844 2.3371582 C18.68892249 2.39521981 15.05131039 2.47245135 11.41357422 2.55541992 C9.84043353 2.58863247 8.26717474 2.61667592 6.69384766 2.6394043 C4.42950203 2.67301903 2.1662351 2.72533499 -0.09765625 2.78125 C-0.79884583 2.78763992 -1.5000354 2.79402985 -2.22247314 2.8006134 C-5.25754321 2.8915859 -7.44006008 3.14883444 -10.13085938 4.6015625 C-12.6319503 7.2855089 -12.64286345 10.47553423 -12.95703125 13.98046875 C-13.034375 14.68236328 -13.11171875 15.38425781 -13.19140625 16.10742188 C-13.37936174 17.83426293 -13.54535602 19.56346928 -13.70703125 21.29296875 C-14.36703125 20.96296875 -15.02703125 20.63296875 -15.70703125 20.29296875 C-16.05657152 13.85883853 -16.03822619 8.92153951 -12.70703125 3.29296875 C-8.63260567 0.09493433 -4.99720728 -0.11116795 0 0 Z " fill="#216238" transform="translate(357.70703125,547.70703125)"/>
<path d="M0 0 C2.80921524 8.42764571 -6.24537947 21.44666426 -10.03710938 29.09082031 C-14.32839205 37.63920731 -18.61183024 45.79020069 -25 53 C-25.33 52.34 -25.66 51.68 -26 51 C-24.46166077 48.33170301 -22.86390145 45.7674627 -21.1875 43.1875 C-12.60699287 29.5866897 -5.88224209 14.95327859 0 0 Z " fill="#1D5E33" transform="translate(696,622)"/>
<path d="M0 0 C1.32 0.33 2.64 0.66 4 1 C-6.73334164 12.44889775 -20.54699481 21.20248238 -34.25 28.6875 C-35.19782349 29.2144043 -35.19782349 29.2144043 -36.16479492 29.75195312 C-37.73547261 30.58392984 -39.36532134 31.30211796 -41 32 C-41.99 31.67 -42.98 31.34 -44 31 C-43.43716309 30.68885254 -42.87432617 30.37770508 -42.29443359 30.05712891 C-30.70142134 23.61919159 -19.58912017 16.98453819 -9 9 C-8.1440625 8.39027344 -7.288125 7.78054688 -6.40625 7.15234375 C-5.6740625 6.62769531 -4.941875 6.10304688 -4.1875 5.5625 C-3.28064453 4.91474609 -3.28064453 4.91474609 -2.35546875 4.25390625 C-0.71042882 2.93405632 -0.71042882 2.93405632 0 0 Z " fill="#1D5E33" transform="translate(640,704)"/>
<path d="M0 0 C0 0.66 0 1.32 0 2 C-0.97646484 2.804375 -0.97646484 2.804375 -1.97265625 3.625 C-4.78098446 6.91491051 -4.55320319 9.87947348 -4.4375 14 C-4.44458984 14.7115625 -4.45167969 15.423125 -4.45898438 16.15625 C-4.42327327 19.10104295 -4.2285244 21.52543732 -2.94238281 24.19628906 C-0.08403798 26.85056905 2.80155101 26.60292148 6.51171875 26.609375 C7.60405571 26.63417938 7.60405571 26.63417938 8.71846008 26.65948486 C11.04155865 26.70802197 13.3640025 26.72934669 15.6875 26.75 C17.26370492 26.77815518 18.83987926 26.80808199 20.41601562 26.83984375 C24.27728983 26.91378144 28.13819939 26.96332032 32 27 C32 27.33 32 27.66 32 28 C27.5163955 28.19272034 23.0325155 28.3713676 18.54785156 28.53710938 C17.0229599 28.59543502 15.49820906 28.65757438 13.97363281 28.72363281 C11.77955776 28.81803239 9.58533851 28.89861231 7.390625 28.9765625 C6.37165131 29.02485703 6.37165131 29.02485703 5.33209229 29.0741272 C1.67740377 29.18925224 -0.93076538 29.07486641 -4 27 C-8.32373447 22.51723161 -8 16.93372893 -8 11 C-7.56442269 7.16828088 -6.48082607 4.58600678 -4 1.5625 C-2 0 -2 0 0 0 Z " fill="#23693D" transform="translate(640,549)"/>
<path d="M0 0 C3.4637316 0.62625504 6.68191857 1.50220072 10 2.671875 C10.96035156 3.00445313 11.92070312 3.33703125 12.91015625 3.6796875 C14.43962891 4.20949219 14.43962891 4.20949219 16 4.75 C27.19405363 8.56833976 38.44786286 11.49703695 50 14 C50 14.33 50 14.66 50 15 C44.20682151 15.20736209 39.43034486 14.58418312 33.875 13 C29.178418 11.67601117 24.92081696 10.75472563 20 11 C19.67 10.34 19.34 9.68 19 9 C16.50103336 7.82541871 16.50103336 7.82541871 13.5625 6.8125 C12.57378906 6.44769531 11.58507812 6.08289063 10.56640625 5.70703125 C8.0375374 4.70260176 8.0375374 4.70260176 6 6 C3.97945196 4.35830472 1.97956942 2.69088222 0 1 C0 0.67 0 0.34 0 0 Z " fill="#1F5F36" transform="translate(417,786)"/>
<path d="M0 0 C9.26682838 0.78532444 9.26682838 0.78532444 13 4 C15.87345268 7.88922735 17.36437288 11.63178461 17.1875 16.5 C16.02386608 23.5060459 10.51024882 28.03456707 5 32 C4.34 31.67 3.68 31.34 3 31 C3.9520721 29.99403703 4.91187346 28.99538437 5.875 28 C6.40867187 27.443125 6.94234375 26.88625 7.4921875 26.3125 C9 25 9 25 11 25 C11.309375 24.38125 11.61875 23.7625 11.9375 23.125 C12.625 21.75 13.3125 20.375 14 19 C14.12206081 14.07397426 13.76035495 10.14053243 11 6 C7.14318949 3.42879299 3.53953118 2.66263309 -1 2 C-0.67 1.34 -0.34 0.68 0 0 Z " fill="#1D5C33" transform="translate(612,458)"/>
<path d="M0 0 C2 1 2 1 2.82421875 3.44921875 C3.10910156 4.51785156 3.39398438 5.58648437 3.6875 6.6875 C5.90362642 14.28805525 9.28230376 21.03454104 13 28 C13.56847656 27.855625 14.13695312 27.71125 14.72265625 27.5625 C19.62262205 26.38454495 23.9645312 25.78572473 29 26 C25.55080374 28.29946417 22.8618978 28.80769035 18.8125 29.625 C16.90404297 30.01558594 16.90404297 30.01558594 14.95703125 30.4140625 C13.98121094 30.60742188 13.00539063 30.80078125 12 31 C8.06112228 25.18945698 5.10361105 19.23115312 2.625 12.6875 C2.23127197 11.6655957 2.23127197 11.6655957 1.82958984 10.62304688 C0.49053688 6.96961463 -0.31659681 3.89715602 0 0 Z " fill="#1C5B31" transform="translate(428,303)"/>
<path d="M0 0 C-1.28519565 2.86697492 -2.57129254 4.97607712 -5 7 C-5.66 7 -6.32 7 -7 7 C-7.33 7.99 -7.66 8.98 -8 10 C-9.56640625 11.54296875 -9.56640625 11.54296875 -11.5625 13.1875 C-14.51012642 15.68326212 -17.29574066 18.24219097 -20 21 C-30.26503759 31.3862782 -30.26503759 31.3862782 -36 34 C-29.9517488 26.74209856 -23.46902383 20.21008212 -16.2890625 14.07421875 C-12.71995494 10.84009569 -9.37495097 7.3812874 -6.03613281 3.91113281 C-2.21473918 0 -2.21473918 0 0 0 Z " fill="#1A542C" transform="translate(612,493)"/>
<path d="M0 0 C4.62 0 9.24 0 14 0 C14 0.66 14 1.32 14 2 C20.6 2 27.2 2 34 2 C34 2.33 34 2.66 34 3 C26.63132647 3.1932575 19.2623959 3.37074572 11.89306641 3.53710938 C9.38451477 3.59562166 6.87604561 3.65778607 4.36767578 3.72363281 C0.76870743 3.81748185 -2.83035017 3.89832767 -6.4296875 3.9765625 C-7.55680145 4.00875885 -8.68391541 4.0409552 -9.84518433 4.0741272 C-10.88611237 4.09429901 -11.92704041 4.11447083 -12.99951172 4.13525391 C-13.91884491 4.15746002 -14.8381781 4.17966614 -15.78536987 4.20254517 C-18 4 -18 4 -20 2 C-13.4 2 -6.8 2 0 2 C0 1.34 0 0.68 0 0 Z " fill="#277848" transform="translate(504,255)"/>
<path d="M0 0 C0.33 0 0.66 0 1 0 C1.04898437 1.16273438 1.09796875 2.32546875 1.1484375 3.5234375 C1.52990382 11.88926701 2.05464558 20.18431071 3.0625 28.5 C3.85354128 35.02963468 4.26115571 41.41307272 4 48 C1.57049019 44.35573529 1.30263871 41.18271427 0.875 36.9375 C0.79008301 36.12563232 0.70516602 35.31376465 0.61767578 34.47729492 C-0.44143434 23.01780865 -0.17495503 11.49454561 0 0 Z " fill="#17532B" transform="translate(317,549)"/>
<path d="M0 0 C0.66 0.33 1.32 0.66 2 1 C4.37123246 1.23029956 6.74741943 1.41119942 9.125 1.5625 C10.40632812 1.64628906 11.68765625 1.73007812 13.0078125 1.81640625 C14.48894531 1.90728516 14.48894531 1.90728516 16 2 C16 2.33 16 2.66 16 3 C2.04831529 4.56572013 -11.14528607 3.85835684 -25 2 C-25 1.67 -25 1.34 -25 1 C-21.20834926 0.9710663 -17.41672673 0.95322399 -13.625 0.9375 C-12.54476563 0.92912109 -11.46453125 0.92074219 -10.3515625 0.91210938 C-8.8046875 0.90727539 -8.8046875 0.90727539 -7.2265625 0.90234375 C-6.27346191 0.89710693 -5.32036133 0.89187012 -4.33837891 0.88647461 C-2 1 -2 1 0 2 C0 1.34 0 0.68 0 0 Z " fill="#1B5C33" transform="translate(512,752)"/>
<path d="M0 0 C-3.33748712 7.97696098 -11.79723042 13.94750251 -18.23828125 19.4609375 C-20.61152916 21.53424056 -22.80687262 23.73833739 -25 26 C-25.66 25.67 -26.32 25.34 -27 25 C-23.48259521 21.43326807 -19.95875538 17.87307049 -16.42871094 14.31884766 C-15.22801105 13.10807151 -14.0291098 11.89550899 -12.83203125 10.68115234 C-11.11404252 8.93898662 -9.38975125 7.20328456 -7.6640625 5.46875 C-7.12754059 4.92190552 -6.59101868 4.37506104 -6.03823853 3.81164551 C-2.22774341 0 -2.22774341 0 0 0 Z " fill="#1C562F" transform="translate(415,786)"/>
<path d="M0 0 C0.33 0 0.66 0 1 0 C1.56422452 7.11549817 0.65715146 13.64021209 -0.875 20.5625 C-1.04870117 21.36026855 -1.22240234 22.15803711 -1.40136719 22.97998047 C-2.73953234 28.73953234 -2.73953234 28.73953234 -5 31 C-4.55789474 24.07876592 -3.63218732 17.27424822 -2.5 10.4375 C-2.36940186 9.63973145 -2.23880371 8.84196289 -2.10424805 8.02001953 C-1.12660095 2.25320191 -1.12660095 2.25320191 0 0 Z " fill="#1A562E" transform="translate(704,583)"/>
<path d="M0 0 C0.66 0.33 1.32 0.66 2 1 C-11.90485459 17.81577742 -11.90485459 17.81577742 -18 23 C-18.66 23 -19.32 23 -20 23 C-18.38519529 18.8743709 -15.37701743 16.1931535 -12.25 13.1875 C-7.92854834 8.95903833 -3.83313387 4.6849414 0 0 Z " fill="#216439" transform="translate(665,680)"/>
<path d="M0 0 C3.0752343 1.38240967 5.2970163 2.99635764 7.75 5.30078125 C8.4409375 5.94853516 9.131875 6.59628906 9.84375 7.26367188 C10.5553125 7.93978516 11.266875 8.61589844 12 9.3125 C12.7115625 9.97701172 13.423125 10.64152344 14.15625 11.32617188 C17.73211613 14.69856055 21.05884073 18.04015796 24 22 C20.54894544 20.49508808 18.13275903 18.48416021 15.375 15.9375 C12.64407662 13.42602582 9.91355869 10.92412895 7.125 8.4765625 C6.2175 7.67992187 5.31 6.88328125 4.375 6.0625 C3.53710938 5.33160156 2.69921875 4.60070312 1.8359375 3.84765625 C0 2 0 2 0 0 Z " fill="#1C5B31" transform="translate(474,506)"/>
<path d="M0 0 C0.66 0 1.32 0 2 0 C1 3 0 6 -1 9 C5.27 11.97 11.54 14.94 18 18 C13.87874049 19.03031488 13.46008646 19.11114278 9.92578125 17.453125 C8.80139648 16.9271875 8.80139648 16.9271875 7.65429688 16.390625 C6.88150391 16.01421875 6.10871094 15.6378125 5.3125 15.25 C4.52810547 14.8890625 3.74371094 14.528125 2.93554688 14.15625 C-1.37934817 12.0976311 -1.37934817 12.0976311 -3 11 C-4 8 -4 8 -3.22265625 5.95703125 C-2.83980469 5.24933594 -2.45695313 4.54164063 -2.0625 3.8125 C-1.68222656 3.09707031 -1.30195312 2.38164062 -0.91015625 1.64453125 C-0.60980469 1.10183594 -0.30945313 0.55914062 0 0 Z " fill="#1F6339" transform="translate(615,333)"/>
<path d="M0 0 C0.66 0.33 1.32 0.66 2 1 C-1.48614262 4.58419039 -5.01154655 8.06117525 -8.8125 11.3125 C-13.80434154 15.60803358 -18.38864644 20.30360098 -23 25 C-23.66 24.67 -24.32 24.34 -25 24 C-21.96253792 20.93330561 -18.91929104 17.87241424 -15.875 14.8125 C-14.59109375 13.51602539 -14.59109375 13.51602539 -13.28125 12.19335938 C-9.00720232 7.90287305 -4.74959765 3.76074699 0 0 Z " fill="#308F5F" transform="translate(353,378)"/>
<path d="M0 0 C1.98 0.99 1.98 0.99 4 2 C3.67 2.66 3.34 3.32 3 4 C2.76970044 6.37123246 2.58880058 8.74741943 2.4375 11.125 C2.35371094 12.40632813 2.26992188 13.68765625 2.18359375 15.0078125 C2.12300781 15.99523437 2.06242188 16.98265625 2 18 C3.65 18.33 5.3 18.66 7 19 C7 19.33 7 19.66 7 20 C4.69 20 2.38 20 0 20 C0 13.4 0 6.8 0 0 Z " fill="#206338" transform="translate(540,306)"/>
<path d="M0 0 C0.66 1.32 1.32 2.64 2 4 C-3.80168804 9.95436404 -3.80168804 9.95436404 -7.98095703 10.11352539 C-9.85050049 10.10567017 -9.85050049 10.10567017 -11.7578125 10.09765625 C-12.75238968 10.09553383 -12.75238968 10.09553383 -13.76705933 10.09336853 C-15.88641863 10.08776754 -18.00567259 10.075215 -20.125 10.0625 C-21.56119639 10.05748512 -22.99739444 10.05292219 -24.43359375 10.04882812 C-27.95576345 10.03779782 -31.47787145 10.02053259 -35 10 C-35 9.67 -35 9.34 -35 9 C-34.17798096 8.97494385 -33.35596191 8.9498877 -32.5090332 8.92407227 C-28.77670626 8.80787345 -25.04461683 8.68525495 -21.3125 8.5625 C-20.01892578 8.52318359 -18.72535156 8.48386719 -17.39257812 8.44335938 C-16.14541016 8.40146484 -14.89824219 8.35957031 -13.61328125 8.31640625 C-11.89298706 8.26141968 -11.89298706 8.26141968 -10.13793945 8.20532227 C-7.33006722 8.02159702 -4.73774186 7.6300618 -2 7 C-1.34 4.69 -0.68 2.38 0 0 Z " fill="#14441F" transform="translate(679,568)"/>
<path d="M0 0 C2.74106351 2.74106351 2.32818924 4.55221066 2.5 8.375 C2.6897369 12.57767232 3.10503365 15.29174689 5 19 C4.67 19.99 4.34 20.98 4 22 C0.28706885 17.53402366 -1.11851611 12.68957783 -2 7 C-1.69607264 4.3199133 -1.05979722 2.51004605 0 0 Z " fill="#246B41" transform="translate(482,560)"/>
<path d="M0 0 C5.13769514 -0.1466009 9.77688863 0.36084896 14.8125 1.375 C15.81313477 1.56449219 15.81313477 1.56449219 16.83398438 1.7578125 C21.74993086 2.74993086 21.74993086 2.74993086 24 5 C15.45956114 5.59932904 8.1066924 3.39248893 0 1 C0 0.67 0 0.34 0 0 Z " fill="#1C5C33" transform="translate(462,748)"/>
<path d="M0 0 C2.475 0.495 2.475 0.495 5 1 C1.71785756 3.86485293 -1.20960511 4.76371719 -5.4375 5.6875 C-6.54996094 5.93886719 -7.66242187 6.19023438 -8.80859375 6.44921875 C-11.62798964 6.93579748 -14.14999053 7.11186953 -17 7 C-16.67 6.34 -16.34 5.68 -16 5 C-13.1640625 4.1484375 -13.1640625 4.1484375 -9.625 3.375 C-8.46226562 3.11460937 -7.29953125 2.85421875 -6.1015625 2.5859375 C-3 2 -3 2 0 2 C0 1.34 0 0.68 0 0 Z " fill="#1D5E33" transform="translate(568,744)"/>
<path d="M0 0 C0 3 0 3 -2.375 5.6875 C-5 8 -5 8 -7 8 C-7.25523437 8.59296875 -7.51046875 9.1859375 -7.7734375 9.796875 C-9.11816498 12.21224538 -10.49214367 13.51211706 -12.625 15.25 C-13.25664062 15.77078125 -13.88828125 16.2915625 -14.5390625 16.828125 C-15.02117187 17.21484375 -15.50328125 17.6015625 -16 18 C-14.34743943 13.95171554 -11.50201407 11.02530061 -8.5625 7.875 C-8.07201172 7.33746094 -7.58152344 6.79992187 -7.07617188 6.24609375 C-4.82654616 3.81127617 -2.77132268 1.84754845 0 0 Z " fill="#2F8D5C" transform="translate(438,199)"/>
<path d="M0 0 C-1.59856312 4.18009363 -4.68807789 6.77036124 -7.9375 9.6875 C-8.74477539 10.43483398 -8.74477539 10.43483398 -9.56835938 11.19726562 C-12.02683465 13.4314164 -13.81422018 14.93807339 -17 16 C-17 15.34 -17 14.68 -17 14 C-15.49609375 12.51953125 -15.49609375 12.51953125 -13.4375 10.8125 C-9.89003826 7.81322507 -6.63477128 4.66004868 -3.4453125 1.28515625 C-2 0 -2 0 0 0 Z " fill="#1C5B31" transform="translate(573,530)"/>
<path d="M0 0 C2 1 2 1 2.6328125 2.6796875 C4.01479115 8.84375098 4.21206472 14.69696525 4 21 C3.67 21 3.34 21 3 21 C2.49576443 18.25071558 1.99646574 15.50068857 1.5 12.75 C1.35691406 11.97269531 1.21382812 11.19539063 1.06640625 10.39453125 C0.93105469 9.64042969 0.79570313 8.88632812 0.65625 8.109375 C0.46772461 7.07248535 0.46772461 7.07248535 0.27539062 6.01464844 C0 4 0 4 0 0 Z " fill="#18522A" transform="translate(622,254)"/>
<path d="M0 0 C6.09781001 -0.22084624 11.21642935 -0.01167675 17 2 C17 2.33 17 2.66 17 3 C10.9981863 3.21824777 5.80766296 2.5056904 0 1 C0 0.67 0 0.34 0 0 Z " fill="#1C5C32" transform="translate(548,326)"/>
<path d="M0 0 C5.05255964 0.63156995 9.29593201 2.13459373 14 4 C14 4.66 14 5.32 14 6 C8.93001981 5.34580901 4.58009223 3.1453591 0 1 C0 0.67 0 0.34 0 0 Z " fill="#1B5D33" transform="translate(428,736)"/>
<path d="M0 0 C0 0.66 0 1.32 0 2 C-0.60328125 2.12117188 -1.2065625 2.24234375 -1.828125 2.3671875 C-2.62734375 2.53476562 -3.4265625 2.70234375 -4.25 2.875 C-5.03890625 3.03742188 -5.8278125 3.19984375 -6.640625 3.3671875 C-8.96831144 3.99150075 -10.89031952 4.84838542 -13 6 C-13 5.01 -13 4.02 -13 3 C-8.37802694 0.78145293 -5.23175837 -0.38281159 0 0 Z " fill="#21653A" transform="translate(445,479)"/>
<path d="M0 0 C1.81618856 1.11903546 3.62785526 2.24541284 5.4375 3.375 C6.44683594 4.00148437 7.45617187 4.62796875 8.49609375 5.2734375 C11 7 11 7 12 9 C7.2292071 8.56629155 3.36635741 6.35665609 0 3 C0 2.01 0 1.02 0 0 Z " fill="#22653B" transform="translate(576,190)"/>
<path d="M0 0 C-1.44781793 3.44428265 -3.27694609 5.36130962 -6.125 7.75 C-7.21167969 8.67039062 -7.21167969 8.67039062 -8.3203125 9.609375 C-8.87460937 10.06828125 -9.42890625 10.5271875 -10 11 C-10.66 10.67 -11.32 10.34 -12 10 C-10.38113585 8.32737283 -8.7547271 6.66204463 -7.125 5 C-6.22007812 4.071875 -5.31515625 3.14375 -4.3828125 2.1875 C-2 0 -2 0 0 0 Z " fill="#1B572C" transform="translate(555,547)"/>
<path d="M0 0 C0.47050781 0.40992188 0.94101562 0.81984375 1.42578125 1.2421875 C2.04839844 1.78101563 2.67101562 2.31984375 3.3125 2.875 C4.23482422 3.67550781 4.23482422 3.67550781 5.17578125 4.4921875 C7.13498212 6.1640447 7.13498212 6.1640447 10 8 C7 9 7 9 4.4375 7.75 C2 6 2 6 0 3 C0 2.01 0 1.02 0 0 Z " fill="#1B522C" transform="translate(328,822)"/>
<path d="M0 0 C1.21065165 3.63195496 0.62784815 5.06531629 -0.4375 8.6875 C-0.86869141 10.17830078 -0.86869141 10.17830078 -1.30859375 11.69921875 C-1.53675781 12.45847656 -1.76492188 13.21773438 -2 14 C-2.66 13.34 -3.32 12.68 -4 12 C-3.72832465 7.20040219 -2.74562195 3.93937062 0 0 Z " fill="#23673C" transform="translate(466,266)"/>
<path d="M0 0 C4.24822374 0.47202486 6.19989709 2.96655518 9 6 C8.67 6.99 8.34 7.98 8 9 C3.125 5.375 3.125 5.375 2 2 C1.34 1.34 0.68 0.68 0 0 Z " fill="#22653A" transform="translate(608,786)"/>
<path d="M0 0 C0.66 0 1.32 0 2 0 C2.598125 0.94875 3.19625 1.8975 3.8125 2.875 C6.10464788 6.14949697 7.24180292 6.95605637 11 8 C8.61118335 8.8531488 7.37691245 9.12563748 4.9375 8.3125 C2.67684328 6.78108738 1.41337964 5.3320764 0 3 C0 2.01 0 1.02 0 0 Z " fill="#1D582F" transform="translate(633,569)"/>
<path d="M0 0 C0.66 0.33 1.32 0.66 2 1 C-0.85276137 3.93200474 -3.65079784 6.64315404 -7 9 C-7 6 -7 6 -5.46875 4.39453125 C-4.49421875 3.61142578 -4.49421875 3.61142578 -3.5 2.8125 C-2.8503125 2.28269531 -2.200625 1.75289062 -1.53125 1.20703125 C-1.0259375 0.80871094 -0.520625 0.41039062 0 0 Z " fill="#21663A" transform="translate(443,192)"/>
<path d="M0 0 C0.66 0.33 1.32 0.66 2 1 C-0.64 3.64 -3.28 6.28 -6 9 C-6.99 8.67 -7.98 8.34 -9 8 C-6.03 5.36 -3.06 2.72 0 0 Z " fill="#308F5D" transform="translate(543,515)"/>
<path d="M0 0 C0.99 0.33 1.98 0.66 3 1 C0.03 3.97 -2.94 6.94 -6 10 C-6 6.41087588 -5.33563446 5.89142971 -3 3.3125 C-2.443125 2.68988281 -1.88625 2.06726563 -1.3125 1.42578125 C-0.879375 0.95527344 -0.44625 0.48476563 0 0 Z " fill="#1C592F" transform="translate(332,395)"/>
<path d="M0 0 C2.6875 -0.3125 2.6875 -0.3125 6 0 C8.875 2.375 8.875 2.375 11 5 C11 5.66 11 6.32 11 7 C10.34 7 9.68 7 9 7 C7.33333333 5.33333333 5.66666667 3.66666667 4 2 C1.83379456 0.70480005 1.83379456 0.70480005 0 0 Z " fill="#19532B" transform="translate(670,549)"/>
<path d="M0 0 C0.59425781 0.21011719 1.18851562 0.42023438 1.80078125 0.63671875 C0.86105469 1.25160156 0.86105469 1.25160156 -0.09765625 1.87890625 C-0.91492188 2.41773438 -1.7321875 2.9565625 -2.57421875 3.51171875 C-3.79238281 4.31222656 -3.79238281 4.31222656 -5.03515625 5.12890625 C-7.27515971 6.5953693 -7.27515971 6.5953693 -9.19921875 8.63671875 C-8.94580684 5.21565799 -7.89139691 4.32889691 -5.38671875 1.82421875 C-2.19921875 -0.36328125 -2.19921875 -0.36328125 0 0 Z " fill="#1C5A31" transform="translate(476.19921875,259.36328125)"/>
<path d="M0 0 C0.33 0 0.66 0 1 0 C2.42857143 8.57142857 2.42857143 8.57142857 0 12 C-0.33 11.67 -0.66 11.34 -1 11 C-0.91015699 9.14227838 -0.75388139 7.28752015 -0.5625 5.4375 C-0.46066406 4.42558594 -0.35882812 3.41367187 -0.25390625 2.37109375 C-0.17011719 1.58863281 -0.08632813 0.80617188 0 0 Z " fill="#24693F" transform="translate(702,592)"/>
<path d="M0 0 C2.3828125 0.0234375 2.3828125 0.0234375 5.125 0.375 C6.03507813 0.48585937 6.94515625 0.59671875 7.8828125 0.7109375 C8.93082031 0.85402344 8.93082031 0.85402344 10 1 C9.34 1.66 8.68 2.32 8 3 C5.6171875 2.9765625 5.6171875 2.9765625 2.875 2.625 C1.96492188 2.51414062 1.05484375 2.40328125 0.1171875 2.2890625 C-0.58148438 2.19367188 -1.28015625 2.09828125 -2 2 C-1.34 1.34 -0.68 0.68 0 0 Z " fill="#1E6139" transform="translate(507,255)"/>
<path d="M0 0 C0.66 0.33 1.32 0.66 2 1 C-0.31 3.64 -2.62 6.28 -5 9 C-5.33 8.34 -5.66 7.68 -6 7 C-4.02 4.69 -2.04 2.38 0 0 Z " fill="#1B5A2F" transform="translate(665,680)"/>
<path d="M0 0 C0.66 0.33 1.32 0.66 2 1 C1.0479279 2.00596297 0.08812654 3.00461563 -0.875 4 C-1.40867187 4.556875 -1.94234375 5.11375 -2.4921875 5.6875 C-4 7 -4 7 -6 7 C-4.60667426 3.63279613 -3.0210714 2.0140476 0 0 Z " fill="#1F5F36" transform="translate(592,511)"/>
<path d="M0 0 C3.81684226 1.55500981 6.19195732 4.03595495 9 7 C8.67 7.66 8.34 8.32 8 9 C6.66079162 7.88200014 5.32877444 6.75538103 4 5.625 C2.88625 4.68527344 2.88625 4.68527344 1.75 3.7265625 C1.1725 3.15679687 0.595 2.58703125 0 2 C0 1.34 0 0.68 0 0 Z " fill="#1A582D" transform="translate(455,488)"/>
<path d="M0 0 C-1.45255699 3.82946843 -3.42895561 5.12050295 -7 7 C-3.86206897 0 -3.86206897 0 0 0 Z " fill="#1E5931" transform="translate(386,814)"/>
<path d="M0 0 C5.75 1.75 5.75 1.75 8 4 C5 5 5 5 1.8125 3.5625 C0.884375 3.046875 -0.04375 2.53125 -1 2 C-0.67 1.34 -0.34 0.68 0 0 Z " fill="#236A3F" transform="translate(422,732)"/>
<path d="M0 0 C0.763125 0.804375 1.52625 1.60875 2.3125 2.4375 C4.79430898 5.16799024 4.79430898 5.16799024 8 6 C8 6.66 8 7.32 8 8 C2.25 6.375 2.25 6.375 0 3 C0 2.01 0 1.02 0 0 Z " fill="#1C562E" transform="translate(344,570)"/>
<path d="M0 0 C0 0.66 0 1.32 0 2 C-1.65532623 3.01866229 -3.32260138 4.01810813 -5 5 C-5.33 5.66 -5.66 6.32 -6 7 C-6.66 7 -7.32 7 -8 7 C-6.53112033 2.34854772 -6.53112033 2.34854772 -4 0.6875 C-2 0 -2 0 0 0 Z " fill="#1D5A31" transform="translate(506,399)"/>
<path d="M0 0 C2.50298434 2.93828597 3.46930939 5.17902761 4 9 C0.06153846 5.67692308 0.06153846 5.67692308 -0.25 2.25 C-0.1675 1.5075 -0.085 0.765 0 0 Z " fill="#1C562D" transform="translate(483,573)"/>
<path d="M0 0 C2.475 0.495 2.475 0.495 5 1 C3.68 1.33 2.36 1.66 1 2 C0.67 1.34 0.34 0.68 0 0 Z " fill="#338558" transform="translate(415,788)"/>
<path d="M0 0 C1.65 0 3.3 0 5 0 C5 0.33 5 0.66 5 1 C3.35 1 1.7 1 0 1 C0 0.67 0 0.34 0 0 Z " fill="#308559" transform="translate(509,727)"/>
<path d="M0 0 C0.99 0.33 1.98 0.66 3 1 C2.01 1.33 1.02 1.66 0 2 C0 1.34 0 0.68 0 0 Z " fill="#32895B" transform="translate(680,472)"/>
<path d="M0 0 C1 4 1 4 1 4 Z " fill="#328256" transform="translate(264,571)"/>
<path d="M0 0 C4 1 4 1 4 1 Z " fill="#358C5E" transform="translate(569,383)"/>
<path d="M0 0 C4 1 4 1 4 1 Z " fill="#338C5D" transform="translate(574,328)"/>
<path d="M0 0 C3 1 3 1 3 1 Z " fill="#2E7F53" transform="translate(493,807)"/>
<path d="M0 0 C3 1 3 1 3 1 Z " fill="#318355" transform="translate(464,803)"/>
<path d="" fill="#307F54" transform="translate(0,0)"/>
<path d="M0 0 C0.33 0.66 0.66 1.32 1 2 C0.34 1.67 -0.32 1.34 -1 1 C-0.67 0.67 -0.34 0.34 0 0 Z " fill="#308457" transform="translate(483,580)"/>
<path d="M0 0 C0.33 0.66 0.66 1.32 1 2 C0.34 1.67 -0.32 1.34 -1 1 C-0.67 0.67 -0.34 0.34 0 0 Z " fill="#318457" transform="translate(481,576)"/>
<path d="" fill="#308256" transform="translate(0,0)"/>
<path d="" fill="#308458" transform="translate(0,0)"/>
<path d="" fill="#318256" transform="translate(0,0)"/>
<path d="M0 0 C0.66 0 1.32 0 2 0 C1.67 0.66 1.34 1.32 1 2 C0.67 1.34 0.34 0.68 0 0 Z " fill="#348A5C" transform="translate(560,380)"/>
<path d="M0 0 C3 1 3 1 3 1 Z " fill="#34895C" transform="translate(400,344)"/>
<path d="" fill="#338658" transform="translate(0,0)"/>
<path d="" fill="#328759" transform="translate(0,0)"/>
<path d="M0 0 C0.66 0 1.32 0 2 0 C1.67 0.66 1.34 1.32 1 2 C0.67 1.34 0.34 0.68 0 0 Z " fill="#33885B" transform="translate(588,254)"/>
<path d="M0 0 C3 1 3 1 3 1 Z " fill="#338C5E" transform="translate(538,207)"/>
<path d="M0 0 C2 1 2 1 2 1 Z " fill="#328256" transform="translate(532,807)"/>
<path d="M0 0 C2 1 2 1 2 1 Z " fill="#317F55" transform="translate(483,806)"/>
<path d="M0 0 C2 1 2 1 2 1 Z " fill="#318154" transform="translate(469,804)"/>
<path d="M0 0 C2 1 2 1 2 1 Z " fill="#308154" transform="translate(447,799)"/>
<path d="M0 0 C2 1 2 1 2 1 Z " fill="#328356" transform="translate(579,798)"/>
<path d="M0 0 C2 1 2 1 2 1 Z " fill="#318256" transform="translate(443,798)"/>
<path d="M0 0 C2 1 2 1 2 1 Z " fill="#2F8455" transform="translate(441,797)"/>
<path d="M0 0 C2 1 2 1 2 1 Z " fill="#328C5B" transform="translate(470,747)"/>
<path d="M0 0 C2 1 2 1 2 1 Z " fill="#318659" transform="translate(588,736)"/>
<path d="M0 0 C2 1 2 1 2 1 Z " fill="#318A59" transform="translate(434,736)"/>
<path d="M0 0 C2 1 2 1 2 1 Z " fill="#328859" transform="translate(600,730)"/>
<path d="" fill="#318255" transform="translate(0,0)"/>
<path d="M0 0 C2 1 2 1 2 1 Z " fill="#2F7D52" transform="translate(292,678)"/>
<path d="" fill="#2F7C50" transform="translate(0,0)"/>
<path d="" fill="#2F7D52" transform="translate(0,0)"/>
<path d="" fill="#33895A" transform="translate(0,0)"/>
<path d="" fill="#2D7D52" transform="translate(0,0)"/>
<path d="" fill="#317F54" transform="translate(0,0)"/>
<path d="" fill="#308155" transform="translate(0,0)"/>
<path d="" fill="#308158" transform="translate(0,0)"/>
<path d="" fill="#2F8055" transform="translate(0,0)"/>
<path d="" fill="#2F8558" transform="translate(0,0)"/>
<path d="M0 0 C2 1 2 1 2 1 Z " fill="#358D5C" transform="translate(505,531)"/>
<path d="M0 0 C2 1 2 1 2 1 Z " fill="#348859" transform="translate(449,525)"/>
<path d="" fill="#318158" transform="translate(0,0)"/>
<path d="" fill="#358C5C" transform="translate(0,0)"/>
<path d="" fill="#328556" transform="translate(0,0)"/>
<path d="" fill="#2C8052" transform="translate(0,0)"/>
<path d="" fill="#338A59" transform="translate(0,0)"/>
<path d="" fill="#328558" transform="translate(0,0)"/>
<path d="" fill="#2F8257" transform="translate(0,0)"/>
<path d="M0 0 C2 1 2 1 2 1 Z " fill="#34895A" transform="translate(682,475)"/>
<path d="M0 0 C2 1 2 1 2 1 Z " fill="#328659" transform="translate(613,456)"/>
<path d="" fill="#338456" transform="translate(0,0)"/>
<path d="" fill="#348B5B" transform="translate(0,0)"/>
<path d="M0 0 C2 1 2 1 2 1 Z " fill="#2D8153" transform="translate(718,426)"/>
<path d="M0 0 C2 1 2 1 2 1 Z " fill="#348B5D" transform="translate(457,381)"/>
<path d="" fill="#318557" transform="translate(0,0)"/>
<path d="M0 0 C2 1 2 1 2 1 Z " fill="#33895B" transform="translate(661,368)"/>
<path d="M0 0 C2 1 2 1 2 1 Z " fill="#32865A" transform="translate(621,344)"/>
<path d="M0 0 C2 1 2 1 2 1 Z " fill="#328C5C" transform="translate(579,329)"/>
<path d="M0 0 C2 1 2 1 2 1 Z " fill="#338D5C" transform="translate(472,323)"/>
<path d="" fill="#358B5D" transform="translate(0,0)"/>
<path d="" fill="#318859" transform="translate(0,0)"/>
<path d="" fill="#308156" transform="translate(0,0)"/>
<path d="" fill="#318357" transform="translate(0,0)"/>
<path d="M0 0 C2 1 2 1 2 1 Z " fill="#328C5E" transform="translate(465,264)"/>
<path d="M0 0 C2 1 2 1 2 1 Z " fill="#328A5A" transform="translate(472,258)"/>
<path d="" fill="#348A5A" transform="translate(0,0)"/>
<path d="" fill="#338A5B" transform="translate(0,0)"/>
<path d="" fill="#2F8054" transform="translate(0,0)"/>
<path d="" fill="#338D5E" transform="translate(0,0)"/>
<path d="" fill="#2E7B4F" transform="translate(0,0)"/>
<path d="" fill="#2F7950" transform="translate(0,0)"/>
<path d="" fill="#2F7B51" transform="translate(0,0)"/>
<path d="" fill="#2E7B51" transform="translate(0,0)"/>
<path d="" fill="#2D754C" transform="translate(0,0)"/>
<path d="" fill="#318054" transform="translate(0,0)"/>
<path d="" fill="#2D7C51" transform="translate(0,0)"/>
<path d="" fill="#308053" transform="translate(0,0)"/>
<path d="" fill="#2E7E53" transform="translate(0,0)"/>
<path d="" fill="#2D7B52" transform="translate(0,0)"/>
<path d="" fill="#2F7F55" transform="translate(0,0)"/>
<path d="" fill="#328358" transform="translate(0,0)"/>
<path d="" fill="#2D8555" transform="translate(0,0)"/>
<path d="" fill="#318255" transform="translate(0,0)"/>
<path d="" fill="#318357" transform="translate(0,0)"/>
<path d="" fill="#317F54" transform="translate(0,0)"/>
<path d="" fill="#308255" transform="translate(0,0)"/>
<path d="" fill="#348659" transform="translate(0,0)"/>
<path d="" fill="#318156" transform="translate(0,0)"/>
<path d="" fill="#337F55" transform="translate(0,0)"/>
<path d="" fill="#307F54" transform="translate(0,0)"/>
<path d="" fill="#328456" transform="translate(0,0)"/>
<path d="" fill="#318253" transform="translate(0,0)"/>
<path d="" fill="#328355" transform="translate(0,0)"/>
<path d="" fill="#328659" transform="translate(0,0)"/>
<path d="" fill="#318558" transform="translate(0,0)"/>
<path d="" fill="#33895B" transform="translate(0,0)"/>
<path d="" fill="#328856" transform="translate(0,0)"/>
<path d="" fill="#338556" transform="translate(0,0)"/>
<path d="" fill="#348859" transform="translate(0,0)"/>
<path d="" fill="#32895B" transform="translate(0,0)"/>
<path d="" fill="#348B5D" transform="translate(0,0)"/>
<path d="" fill="#328B5B" transform="translate(0,0)"/>
<path d="" fill="#338558" transform="translate(0,0)"/>
<path d="" fill="#34895A" transform="translate(0,0)"/>
<path d="" fill="#34895B" transform="translate(0,0)"/>
<path d="" fill="#348B5B" transform="translate(0,0)"/>
<path d="" fill="#328155" transform="translate(0,0)"/>
<path d="" fill="#338859" transform="translate(0,0)"/>
<path d="" fill="#328959" transform="translate(0,0)"/>
<path d="" fill="#31895B" transform="translate(0,0)"/>
<path d="" fill="#358456" transform="translate(0,0)"/>
<path d="" fill="#338858" transform="translate(0,0)"/>
<path d="" fill="#348758" transform="translate(0,0)"/>
<path d="" fill="#30845B" transform="translate(0,0)"/>
<path d="" fill="#33885D" transform="translate(0,0)"/>
<path d="" fill="#33865A" transform="translate(0,0)"/>
<path d="" fill="#328858" transform="translate(0,0)"/>
<path d="" fill="#328856" transform="translate(0,0)"/>
<path d="" fill="#348757" transform="translate(0,0)"/>
<path d="" fill="#328154" transform="translate(0,0)"/>
<path d="" fill="#328153" transform="translate(0,0)"/>
<path d="" fill="#2F7E54" transform="translate(0,0)"/>
<path d="" fill="#328157" transform="translate(0,0)"/>
<path d="" fill="#34885A" transform="translate(0,0)"/>
<path d="" fill="#338057" transform="translate(0,0)"/>
<path d="" fill="#337E52" transform="translate(0,0)"/>
<path d="" fill="#318256" transform="translate(0,0)"/>
<path d="" fill="#33895A" transform="translate(0,0)"/>
<path d="" fill="#2F8254" transform="translate(0,0)"/>
<path d="" fill="#348A5A" transform="translate(0,0)"/>
<path d="" fill="#35895A" transform="translate(0,0)"/>
<path d="" fill="#328055" transform="translate(0,0)"/>
<path d="" fill="#358D5C" transform="translate(0,0)"/>
<path d="" fill="#348154" transform="translate(0,0)"/>
<path d="" fill="#34895A" transform="translate(0,0)"/>
<path d="" fill="#348859" transform="translate(0,0)"/>
<path d="" fill="#338859" transform="translate(0,0)"/>
<path d="" fill="#34875A" transform="translate(0,0)"/>
<path d="" fill="#32895B" transform="translate(0,0)"/>
<path d="" fill="#318257" transform="translate(0,0)"/>
<path d="" fill="#338B5B" transform="translate(0,0)"/>
<path d="" fill="#33875B" transform="translate(0,0)"/>
<path d="" fill="#307E55" transform="translate(0,0)"/>
<path d="" fill="#318054" transform="translate(0,0)"/>
<path d="" fill="#338456" transform="translate(0,0)"/>
<path d="" fill="#328154" transform="translate(0,0)"/>
<path d="" fill="#2F7F55" transform="translate(0,0)"/>
<path d="" fill="#307C52" transform="translate(0,0)"/>
<path d="" fill="#2F7F54" transform="translate(0,0)"/>
<path d="" fill="#2F7E53" transform="translate(0,0)"/>
<path d="" fill="#2F7C53" transform="translate(0,0)"/>
<path d="" fill="#2F7D53" transform="translate(0,0)"/>
<path d="" fill="#368B5A" transform="translate(0,0)"/>
<path d="" fill="#33895B" transform="translate(0,0)"/>
<path d="" fill="#34885B" transform="translate(0,0)"/>
<path d="" fill="#358A5B" transform="translate(0,0)"/>
<path d="" fill="#348457" transform="translate(0,0)"/>
<path d="" fill="#307D51" transform="translate(0,0)"/>
<path d="" fill="#318355" transform="translate(0,0)"/>
<path d="" fill="#328457" transform="translate(0,0)"/>
<path d="" fill="#31865B" transform="translate(0,0)"/>
<path d="" fill="#348659" transform="translate(0,0)"/>
<path d="" fill="#368A5C" transform="translate(0,0)"/>
<path d="" fill="#358A58" transform="translate(0,0)"/>
<path d="" fill="#32875A" transform="translate(0,0)"/>
<path d="" fill="#348558" transform="translate(0,0)"/>
<path d="" fill="#318559" transform="translate(0,0)"/>
<path d="" fill="#318354" transform="translate(0,0)"/>
<path d="" fill="#2F8154" transform="translate(0,0)"/>
<path d="" fill="#33885A" transform="translate(0,0)"/>
<path d="" fill="#328758" transform="translate(0,0)"/>
<path d="" fill="#308358" transform="translate(0,0)"/>
<path d="" fill="#318658" transform="translate(0,0)"/>
<path d="" fill="#328658" transform="translate(0,0)"/>
<path d="" fill="#34885B" transform="translate(0,0)"/>
<path d="" fill="#348958" transform="translate(0,0)"/>
<path d="" fill="#348959" transform="translate(0,0)"/>
<path d="" fill="#368C5E" transform="translate(0,0)"/>
<path d="" fill="#35885C" transform="translate(0,0)"/>
<path d="" fill="#358A5C" transform="translate(0,0)"/>
<path d="" fill="#34895A" transform="translate(0,0)"/>
<path d="" fill="#358A5F" transform="translate(0,0)"/>
<path d="" fill="#33885C" transform="translate(0,0)"/>
<path d="" fill="#358D5E" transform="translate(0,0)"/>
<path d="" fill="#33895C" transform="translate(0,0)"/>
<path d="" fill="#348859" transform="translate(0,0)"/>
<path d="" fill="#34895C" transform="translate(0,0)"/>
<path d="" fill="#318A5B" transform="translate(0,0)"/>
<path d="" fill="#33885A" transform="translate(0,0)"/>
<path d="" fill="#358A5C" transform="translate(0,0)"/>
<path d="" fill="#358858" transform="translate(0,0)"/>
<path d="" fill="#368A5B" transform="translate(0,0)"/>
<path d="" fill="#33895B" transform="translate(0,0)"/>
<path d="" fill="#368A5B" transform="translate(0,0)"/>
<path d="" fill="#34895B" transform="translate(0,0)"/>
<path d="" fill="#34875B" transform="translate(0,0)"/>
<path d="" fill="#338C5C" transform="translate(0,0)"/>
<path d="" fill="#358C5B" transform="translate(0,0)"/>
<path d="" fill="#358A5C" transform="translate(0,0)"/>
<path d="" fill="#328F5D" transform="translate(0,0)"/>
<path d="" fill="#348B5A" transform="translate(0,0)"/>
<path d="" fill="#368B5B" transform="translate(0,0)"/>
<path d="" fill="#328258" transform="translate(0,0)"/>
<path d="" fill="#318A5B" transform="translate(0,0)"/>
<path d="" fill="#338155" transform="translate(0,0)"/>
<path d="" fill="#338557" transform="translate(0,0)"/>
<path d="" fill="#35875B" transform="translate(0,0)"/>
<path d="" fill="#34895C" transform="translate(0,0)"/>
<path d="" fill="#338A5B" transform="translate(0,0)"/>
<path d="" fill="#338759" transform="translate(0,0)"/>
<path d="" fill="#358B5D" transform="translate(0,0)"/>
<path d="" fill="#318357" transform="translate(0,0)"/>
<path d="" fill="#308457" transform="translate(0,0)"/>
<path d="" fill="#348A5D" transform="translate(0,0)"/>
<path d="" fill="#358B5D" transform="translate(0,0)"/>
<path d="" fill="#33895B" transform="translate(0,0)"/>
<path d="" fill="#308255" transform="translate(0,0)"/>
<path d="" fill="#388B61" transform="translate(0,0)"/>
<path d="" fill="#34895A" transform="translate(0,0)"/>
<path d="" fill="#328253" transform="translate(0,0)"/>
<path d="" fill="#308158" transform="translate(0,0)"/>
<path d="" fill="#348356" transform="translate(0,0)"/>
<path d="" fill="#368B5B" transform="translate(0,0)"/>
<path d="" fill="#33885A" transform="translate(0,0)"/>
<path d="" fill="#348A58" transform="translate(0,0)"/>
<path d="" fill="#32885B" transform="translate(0,0)"/>
<path d="" fill="#32875B" transform="translate(0,0)"/>
<path d="" fill="#318A5A" transform="translate(0,0)"/>
<path d="" fill="#318556" transform="translate(0,0)"/>
<path d="" fill="#2F8255" transform="translate(0,0)"/>
<path d="" fill="#338C5A" transform="translate(0,0)"/>
<path d="" fill="#338858" transform="translate(0,0)"/>
<path d="" fill="#36895D" transform="translate(0,0)"/>
<path d="" fill="#328C5C" transform="translate(0,0)"/>
<path d="" fill="#338958" transform="translate(0,0)"/>
<path d="" fill="#358D5F" transform="translate(0,0)"/>
<path d="" fill="#338B5B" transform="translate(0,0)"/>
<path d="" fill="#33895C" transform="translate(0,0)"/>
<path d="" fill="#358C5B" transform="translate(0,0)"/>
<path d="" fill="#348C5D" transform="translate(0,0)"/>
<path d="" fill="#348658" transform="translate(0,0)"/>
<path d="" fill="#328759" transform="translate(0,0)"/>
<path d="" fill="#338A5B" transform="translate(0,0)"/>
<path d="" fill="#338A5B" transform="translate(0,0)"/>
<path d="" fill="#358B5D" transform="translate(0,0)"/>
<path d="" fill="#328A5A" transform="translate(0,0)"/>
<path d="" fill="#348D5D" transform="translate(0,0)"/>
<path d="" fill="#308354" transform="translate(0,0)"/>
<path d="" fill="#308156" transform="translate(0,0)"/>
<path d="" fill="#348A5D" transform="translate(0,0)"/>
<path d="" fill="#358B5D" transform="translate(0,0)"/>
<path d="" fill="#318458" transform="translate(0,0)"/>
<path d="" fill="#308356" transform="translate(0,0)"/>
<path d="" fill="#308457" transform="translate(0,0)"/>
<path d="" fill="#2F8056" transform="translate(0,0)"/>
<path d="" fill="#338156" transform="translate(0,0)"/>
<path d="" fill="#2F8055" transform="translate(0,0)"/>
<path d="" fill="#318156" transform="translate(0,0)"/>
<path d="" fill="#33895D" transform="translate(0,0)"/>
<path d="" fill="#33885C" transform="translate(0,0)"/>
<path d="" fill="#348B5F" transform="translate(0,0)"/>
<path d="" fill="#368A5B" transform="translate(0,0)"/>
<path d="" fill="#318458" transform="translate(0,0)"/>
<path d="" fill="#318456" transform="translate(0,0)"/>
<path d="" fill="#32865B" transform="translate(0,0)"/>
<path d="" fill="#33895C" transform="translate(0,0)"/>
<path d="" fill="#33895B" transform="translate(0,0)"/>
<path d="" fill="#32865A" transform="translate(0,0)"/>
<path d="" fill="#32885A" transform="translate(0,0)"/>
<path d="" fill="#34885D" transform="translate(0,0)"/>
<path d="" fill="#328A5B" transform="translate(0,0)"/>
<path d="" fill="#338558" transform="translate(0,0)"/>
<path d="" fill="#338759" transform="translate(0,0)"/>
<path d="" fill="#328A59" transform="translate(0,0)"/>
<path d="" fill="#32855A" transform="translate(0,0)"/>
<path d="" fill="#338659" transform="translate(0,0)"/>
<path d="" fill="#358A5A" transform="translate(0,0)"/>
<path d="" fill="#33845A" transform="translate(0,0)"/>
<path d="" fill="#338A5C" transform="translate(0,0)"/>
<path d="" fill="#32885B" transform="translate(0,0)"/>
<path d="" fill="#328858" transform="translate(0,0)"/>
<path d="" fill="#368A5A" transform="translate(0,0)"/>
<path d="" fill="#328C5E" transform="translate(0,0)"/>
<path d="" fill="#378B5B" transform="translate(0,0)"/>
<path d="" fill="#308457" transform="translate(0,0)"/>
<path d="" fill="#348558" transform="translate(0,0)"/>
<path d="" fill="#308859" transform="translate(0,0)"/>
<path d="" fill="#318356" transform="translate(0,0)"/>
<path d="" fill="#348A5D" transform="translate(0,0)"/>
<path d="" fill="#32885A" transform="translate(0,0)"/>
<path d="" fill="#348759" transform="translate(0,0)"/>
<path d="" fill="#328658" transform="translate(0,0)"/>
<path d="" fill="#328357" transform="translate(0,0)"/>
<path d="" fill="#338558" transform="translate(0,0)"/>
<path d="" fill="#358B5D" transform="translate(0,0)"/>
<path d="" fill="#348B5D" transform="translate(0,0)"/>
<path d="" fill="#338B5E" transform="translate(0,0)"/>
<path d="" fill="#308759" transform="translate(0,0)"/>
<path d="" fill="#338D5C" transform="translate(0,0)"/>
<path d="" fill="#308859" transform="translate(0,0)"/>
<path d="" fill="#318658" transform="translate(0,0)"/>
<path d="" fill="#348A5C" transform="translate(0,0)"/>
<path d="" fill="#358B5F" transform="translate(0,0)"/>
<path d="" fill="#31895B" transform="translate(0,0)"/>
<path d="" fill="#338A5C" transform="translate(0,0)"/>
<path d="" fill="#318258" transform="translate(0,0)"/>
<path d="" fill="#348A5C" transform="translate(0,0)"/>
<path d="" fill="#368C5D" transform="translate(0,0)"/>
<path d="" fill="#35895B" transform="translate(0,0)"/>
<path d="" fill="#338257" transform="translate(0,0)"/>
<path d="" fill="#308153" transform="translate(0,0)"/>
<path d="" fill="#358C5C" transform="translate(0,0)"/>
<path d="" fill="#338D5E" transform="translate(0,0)"/>
<path d="" fill="#348D5D" transform="translate(0,0)"/>
<path d="" fill="#308155" transform="translate(0,0)"/>
<path d="" fill="#2F7F51" transform="translate(0,0)"/>
<path d="" fill="#308054" transform="translate(0,0)"/>
<path d="" fill="#2D8254" transform="translate(0,0)"/>
<path d="" fill="#348C5C" transform="translate(0,0)"/>
<path d="" fill="#358B5D" transform="translate(0,0)"/>
<path d="" fill="#348A5D" transform="translate(0,0)"/>
<path d="" fill="#308052" transform="translate(0,0)"/>
<path d="" fill="#358A5A" transform="translate(0,0)"/>
<path d="" fill="#308155" transform="translate(0,0)"/>
<path d="" fill="#318E5A" transform="translate(0,0)"/>
<path d="" fill="#34895B" transform="translate(0,0)"/>
<path d="" fill="#358C5E" transform="translate(0,0)"/>
<path d="" fill="#308454" transform="translate(0,0)"/>
<path d="" fill="#308355" transform="translate(0,0)"/>
<path d="" fill="#318456" transform="translate(0,0)"/>
<path d="" fill="#317F53" transform="translate(0,0)"/>
<path d="" fill="#2E8257" transform="translate(0,0)"/>
<path d="" fill="#308155" transform="translate(0,0)"/>
<path d="" fill="#318255" transform="translate(0,0)"/>
<path d="" fill="#328457" transform="translate(0,0)"/>
<path d="" fill="#328253" transform="translate(0,0)"/>
<path d="" fill="#318155" transform="translate(0,0)"/>
</svg>
